<svg preserveAspectRatio="xMidYMid meet" style="display: block;" viewBox="0 0 246 246" fill="none" xmlns="http://www.w3.org/2000/svg">

<g id="Layer_2" clip-path="url(#clip0_0_10)">
<path id="Vector" d="M98.4425 16.587H114.817H131.187H147.558H163.928H180.302V0.216767H163.928H147.558H131.187H114.817H98.4425H82.0723H65.702V16.587H82.0723H98.4425Z" fill="var(--fill-0, white)"/>
<path id="Vector_2" d="M180.302 16.587V32.9572H196.673V49.3275H213.043V32.9572H229.413V16.587H213.043V32.9572H196.673V16.587H180.302ZM195.58 31.8691H181.39V17.6795H195.58V31.8691ZM214.135 17.6795H228.325V31.8691H214.135V17.6795Z" fill="var(--fill-0, white)"/>
<path id="Vector_3" d="M32.9572 49.3318H49.3275V32.9616H65.6977V16.5913H49.3275V32.9616H32.9572V16.5913H16.587V32.9616H32.9572V49.3318ZM50.42 17.6795H64.6095V31.8691H50.42V17.6795ZM31.8691 31.8691H17.6795V17.6795H31.8691V31.8691Z" fill="var(--fill-0, white)"/>
<path id="Vector_4" d="M32.9572 49.3318H16.587V65.702H32.9572V49.3318ZM31.8691 64.6095H17.6795V50.42H31.8691V64.6095Z" fill="var(--fill-0, white)"/>
<path id="Vector_5" d="M213.043 65.702H229.413V49.3318H213.043V65.702ZM214.135 50.42H228.325V64.6095H214.135V50.42Z" fill="var(--fill-0, white)"/>
<path id="Vector_6" d="M114.817 65.702H98.4468V82.0723H114.817V65.702ZM113.725 80.9797H99.535V66.7902H113.725V80.9797Z" fill="var(--fill-0, white)"/>
<path id="Vector_7" d="M147.558 65.702H131.187V82.0723H147.558V65.702ZM146.465 80.9797H132.275V66.7902H146.465V80.9797Z" fill="var(--fill-0, white)"/>
<path id="Vector_8" d="M229.413 65.702V82.0723V98.4425V114.817V131.187V147.558V163.928V180.302H245.783V163.928V147.558V131.187V114.817V98.4425V82.0723V65.702H229.413Z" fill="var(--fill-0, white)"/>
<path id="Vector_9" d="M98.4425 82.0723H82.0723V98.4425H98.4425V82.0723Z" fill="var(--fill-0, white)"/>
<path id="Vector_10" d="M131.187 82.0723H114.817V98.4425H131.187V82.0723Z" fill="var(--fill-0, white)"/>
<path id="Vector_11" d="M163.928 82.0723H147.558V98.4425H163.928V82.0723Z" fill="var(--fill-0, white)"/>
<path id="Vector_12" d="M65.702 98.4425V114.813H82.0723V98.4425H65.702ZM80.9797 113.725H66.7902V99.535H80.9797V113.725Z" fill="var(--fill-0, white)"/>
<path id="Vector_13" d="M114.817 98.4425H98.4468V114.813H114.817V98.4425ZM113.725 113.725H99.535V99.535H113.725V113.725Z" fill="var(--fill-0, white)"/>
<path id="Vector_14" d="M131.187 98.4425V114.813H147.558V98.4425H131.187ZM146.465 113.725H132.275V99.535H146.465V113.725Z" fill="var(--fill-0, white)"/>
<path id="Vector_15" d="M180.302 114.817V98.4468H163.932V114.817H180.302ZM165.02 99.535H179.21V113.725H165.02V99.535Z" fill="var(--fill-0, white)"/>
<path id="Vector_16" d="M98.4425 114.817H82.0723V131.187H98.4425V114.817Z" fill="var(--fill-0, white)"/>
<path id="Vector_17" d="M131.187 114.817H114.817V131.187H131.187V114.817Z" fill="var(--fill-0, white)"/>
<path id="Vector_18" d="M163.928 114.817H147.558V131.187H163.928V114.817Z" fill="var(--fill-0, white)"/>
<path id="Vector_19" d="M65.702 131.187V147.558H82.0723V131.187H65.702ZM80.9797 146.465H66.7902V132.275H80.9797V146.465Z" fill="var(--fill-0, white)"/>
<path id="Vector_20" d="M98.4425 131.187V147.558H114.813V131.187H98.4425ZM113.725 146.465H99.535V132.275H113.725V146.465Z" fill="var(--fill-0, white)"/>
<path id="Vector_21" d="M131.187 131.187V147.558H147.558V131.187H131.187ZM146.465 146.465H132.275V132.275H146.465V146.465Z" fill="var(--fill-0, white)"/>
<path id="Vector_22" d="M180.302 147.558V131.187H163.932V147.558H180.302ZM165.02 132.275H179.21V146.465H165.02V132.275Z" fill="var(--fill-0, white)"/>
<path id="Vector_23" d="M98.4425 147.558H82.0723V163.928H98.4425V147.558Z" fill="var(--fill-0, white)"/>
<path id="Vector_24" d="M131.187 147.558H114.817V163.928H131.187V147.558Z" fill="var(--fill-0, white)"/>
<path id="Vector_25" d="M163.928 147.558H147.558V163.928H163.928V147.558Z" fill="var(--fill-0, white)"/>
<path id="Vector_26" d="M16.587 163.928V147.558V131.187V114.817V98.4425V82.0723V65.702H0.216767V82.0723V98.4425V114.817V131.187V147.558V163.928V180.302H16.587V163.928Z" fill="var(--fill-0, white)"/>
<path id="Vector_27" d="M98.4425 180.302H114.813V163.932H98.4425V180.302ZM99.535 165.02H113.725V179.21H99.535V165.02Z" fill="var(--fill-0, white)"/>
<path id="Vector_28" d="M131.187 180.302H147.558V163.932H131.187V180.302ZM132.275 165.02H146.465V179.21H132.275V165.02Z" fill="var(--fill-0, white)"/>
<path id="Vector_29" d="M213.043 196.673H196.673V213.043H213.043V196.673H229.413V180.302H213.043V196.673ZM214.135 181.39H228.325V195.58H214.135V181.39Z" fill="var(--fill-0, white)"/>
<path id="Vector_30" d="M49.3318 213.043V196.673H32.9616V180.302H16.5913V196.673H32.9616V213.043H49.3318ZM31.8691 195.58H17.6795V181.39H31.8691V195.58Z" fill="var(--fill-0, white)"/>
<path id="Vector_31" d="M16.587 229.413H32.9572V213.043H16.587V229.413ZM17.6795 214.135H31.8691V228.325H17.6795V214.135Z" fill="var(--fill-0, white)"/>
<path id="Vector_32" d="M65.702 213.043H49.3318V229.413H65.702V213.043ZM64.6095 228.325H50.42V214.135H64.6095V228.325Z" fill="var(--fill-0, white)"/>
<path id="Vector_33" d="M180.302 229.413H196.673V213.043H180.302V229.413ZM181.39 214.135H195.58V228.325H181.39V214.135Z" fill="var(--fill-0, white)"/>
<path id="Vector_34" d="M213.043 229.413H229.413V213.043H213.043V229.413ZM214.135 214.135H228.325V228.325H214.135V214.135Z" fill="var(--fill-0, white)"/>
<g id="Group">
<path id="Vector_35" d="M244.266 65.4853H231.364C230.406 65.4853 229.63 64.7092 229.63 63.7511V50.8492C229.63 49.8911 228.854 49.115 227.896 49.115H214.994C214.036 49.115 213.26 48.339 213.26 47.3809V34.9125C213.26 33.9544 214.036 33.1783 214.994 33.1783H227.896C228.854 33.1783 229.63 32.4023 229.63 31.4442V18.1087C229.63 17.1506 228.854 16.3746 227.896 16.3746H214.56C213.602 16.3746 212.826 17.1506 212.826 18.1087V31.0107C212.826 31.9688 212.05 32.7448 211.092 32.7448H198.623C197.665 32.7448 196.889 31.9688 196.889 31.0107V18.1087C196.889 17.1506 196.113 16.3746 195.155 16.3746H182.253C181.295 16.3746 180.519 15.5985 180.519 14.6404V1.73413C180.519 0.776025 179.743 0 178.785 0H67.2194C66.2613 0 65.4853 0.776025 65.4853 1.73413V14.6361C65.4853 15.5942 64.7092 16.3702 63.7511 16.3702H50.8492C49.8911 16.3702 49.115 17.1463 49.115 18.1044V31.0063C49.115 31.9644 48.339 32.7405 47.3809 32.7405H34.9125C33.9544 32.7405 33.1783 31.9644 33.1783 31.0063V18.1044C33.1783 17.1463 32.4023 16.3702 31.4442 16.3702H18.1087C17.1506 16.3702 16.3746 17.1463 16.3746 18.1044V31.4399C16.3746 32.398 17.1506 33.174 18.1087 33.174H31.0107C31.9688 33.174 32.7448 33.95 32.7448 34.9081V47.3766C32.7448 48.3347 31.9688 49.1107 31.0107 49.1107H18.1087C17.1506 49.1107 16.3746 49.8867 16.3746 50.8448V63.7468C16.3746 64.7049 15.5985 65.4809 14.6404 65.4809H1.73413C0.776025 65.4809 0 66.2569 0 67.2151V178.781C0 179.739 0.776025 180.515 1.73413 180.515H14.6361C15.5942 180.515 16.3702 181.291 16.3702 182.249V195.151C16.3702 196.109 17.1463 196.885 18.1044 196.885H31.0063C31.9644 196.885 32.7405 197.661 32.7405 198.619V211.088C32.7405 212.046 31.9644 212.822 31.0063 212.822H18.1044C17.1463 212.822 16.3702 213.598 16.3702 214.556V227.891C16.3702 228.849 17.1463 229.625 18.1044 229.625H31.4399C32.398 229.625 33.174 228.849 33.174 227.891V214.989C33.174 214.031 33.95 213.255 34.9081 213.255H47.3766C48.3347 213.255 49.1107 214.031 49.1107 214.989V227.891C49.1107 228.849 49.8867 229.625 50.8448 229.625H63.7468C64.7049 229.625 65.4809 230.401 65.4809 231.36V244.262C65.4809 245.22 66.2569 245.996 67.2151 245.996H178.781C179.739 245.996 180.515 245.22 180.515 244.262V231.36C180.515 230.401 181.291 229.625 182.249 229.625H195.151C196.109 229.625 196.885 228.849 196.885 227.891V214.989C196.885 214.031 197.661 213.255 198.619 213.255H211.088C212.046 213.255 212.822 214.031 212.822 214.989V227.891C212.822 228.849 213.598 229.625 214.556 229.625H227.891C228.849 229.625 229.625 228.849 229.625 227.891V214.556C229.625 213.598 228.849 212.822 227.891 212.822H214.989C214.031 212.822 213.255 212.046 213.255 211.088V198.619C213.255 197.661 214.031 196.885 214.989 196.885H227.891C228.849 196.885 229.625 196.109 229.625 195.151V182.249C229.625 181.291 230.401 180.515 231.36 180.515H244.262C245.22 180.515 245.996 179.739 245.996 178.781V67.2194C245.996 66.2613 245.22 65.4853 244.262 65.4853H244.266ZM216.086 17.8963H226.374C227.332 17.8963 228.108 18.6723 228.108 19.6304V29.9182C228.108 30.8763 227.332 31.6523 226.374 31.6523H216.086C215.128 31.6523 214.352 30.8763 214.352 29.9182V19.6304C214.352 18.6723 215.128 17.8963 216.086 17.8963ZM29.9182 31.6523H19.6304C18.6723 31.6523 17.8963 30.8763 17.8963 29.9182V19.6304C17.8963 18.6723 18.6723 17.8963 19.6304 17.8963H29.9182C30.8763 17.8963 31.6523 18.6723 31.6523 19.6304V29.9182C31.6523 30.8763 30.8763 31.6523 29.9182 31.6523ZM216.086 50.6367H226.374C227.332 50.6367 228.108 51.4128 228.108 52.3709V62.6586C228.108 63.6167 227.332 64.3928 226.374 64.3928H216.086C215.128 64.3928 214.352 63.6167 214.352 62.6586V52.3709C214.352 51.4128 215.128 50.6367 216.086 50.6367ZM183.341 17.8963H193.629C194.587 17.8963 195.363 18.6723 195.363 19.6304V29.9182C195.363 30.8763 194.587 31.6523 193.629 31.6523H183.341C182.383 31.6523 181.607 30.8763 181.607 29.9182V19.6304C181.607 18.6723 182.383 17.8963 183.341 17.8963ZM52.3709 17.8963H62.6586C63.6167 17.8963 64.3928 18.6723 64.3928 19.6304V29.9182C64.3928 30.8763 63.6167 31.6523 62.6586 31.6523H52.3709C51.4128 31.6523 50.6367 30.8763 50.6367 29.9182V19.6304C50.6367 18.6723 51.4128 17.8963 52.3709 17.8963ZM19.6304 50.6367H29.9182C30.8763 50.6367 31.6523 51.4128 31.6523 52.3709V62.6586C31.6523 63.6167 30.8763 64.3928 29.9182 64.3928H19.6304C18.6723 64.3928 17.8963 63.6167 17.8963 62.6586V52.3709C17.8963 51.4128 18.6723 50.6367 19.6304 50.6367ZM29.9182 195.363H19.6304C18.6723 195.363 17.8963 194.587 17.8963 193.629V183.341C17.8963 182.383 18.6723 181.607 19.6304 181.607H29.9182C30.8763 181.607 31.6523 182.383 31.6523 183.341V193.629C31.6523 194.587 30.8763 195.363 29.9182 195.363ZM29.9182 228.108H19.6304C18.6723 228.108 17.8963 227.332 17.8963 226.374V216.086C17.8963 215.128 18.6723 214.352 19.6304 214.352H29.9182C30.8763 214.352 31.6523 215.128 31.6523 216.086V226.374C31.6523 227.332 30.8763 228.108 29.9182 228.108ZM62.6586 228.108H52.3709C51.4128 228.108 50.6367 227.332 50.6367 226.374V216.086C50.6367 215.128 51.4128 214.352 52.3709 214.352H62.6586C63.6167 214.352 64.3928 215.128 64.3928 216.086V226.374C64.3928 227.332 63.6167 228.108 62.6586 228.108ZM193.629 228.108H183.341C182.383 228.108 181.607 227.332 181.607 226.374V216.086C181.607 215.128 182.383 214.352 183.341 214.352H193.629C194.587 214.352 195.363 215.128 195.363 216.086V226.374C195.363 227.332 194.587 228.108 193.629 228.108ZM216.086 214.352H226.374C227.332 214.352 228.108 215.128 228.108 216.086V226.374C228.108 227.332 227.332 228.108 226.374 228.108H216.086C215.128 228.108 214.352 227.332 214.352 226.374V216.086C214.352 215.128 215.128 214.352 216.086 214.352ZM212.826 181.82V194.722C212.826 195.68 212.05 196.456 211.092 196.456H198.19C197.232 196.456 196.456 197.232 196.456 198.19V211.092C196.456 212.05 195.68 212.826 194.722 212.826H181.82C180.862 212.826 180.086 213.602 180.086 214.56V227.462C180.086 228.42 179.31 229.196 178.351 229.196H67.6529C66.6948 229.196 65.9188 228.42 65.9188 227.462V214.56C65.9188 213.602 65.1428 212.826 64.1847 212.826H51.2827C50.3246 212.826 49.5486 212.05 49.5486 211.092V198.19C49.5486 197.232 48.7725 196.456 47.8144 196.456H34.9125C33.9544 196.456 33.1783 195.68 33.1783 194.722V181.82C33.1783 180.862 32.4023 180.086 31.4442 180.086H18.5422C17.5841 180.086 16.8081 179.31 16.8081 178.351V67.6529C16.8081 66.6948 17.5841 65.9188 18.5422 65.9188H31.4442C32.4023 65.9188 33.1783 65.1428 33.1783 64.1847V51.2827C33.1783 50.3246 33.9544 49.5486 34.9125 49.5486H47.8144C48.7725 49.5486 49.5486 48.7725 49.5486 47.8144V34.9125C49.5486 33.9544 50.3246 33.1783 51.2827 33.1783H64.1847C65.1428 33.1783 65.9188 32.4023 65.9188 31.4442V18.5422C65.9188 17.5841 66.6948 16.8081 67.6529 16.8081H178.351C179.31 16.8081 180.086 17.5841 180.086 18.5422V31.4442C180.086 32.4023 180.862 33.1783 181.82 33.1783H194.722C195.68 33.1783 196.456 33.9544 196.456 34.9125V47.8144C196.456 48.7725 197.232 49.5486 198.19 49.5486H211.092C212.05 49.5486 212.826 50.3246 212.826 51.2827V64.1847C212.826 65.1428 213.602 65.9188 214.56 65.9188H227.462C228.42 65.9188 229.196 66.6948 229.196 67.6529V178.351C229.196 179.31 228.42 180.086 227.462 180.086H214.56C213.602 180.086 212.826 180.862 212.826 181.82ZM226.374 195.363H216.086C215.128 195.363 214.352 194.587 214.352 193.629V183.341C214.352 182.383 215.128 181.607 216.086 181.607H226.374C227.332 181.607 228.108 182.383 228.108 183.341V193.629C228.108 194.587 227.332 195.363 226.374 195.363Z" fill="var(--fill-0, white)"/>
<path id="Vector_36" d="M162.41 81.8555H149.508C148.55 81.8555 147.774 81.0795 147.774 80.1214V67.2194C147.774 66.2613 146.998 65.4853 146.04 65.4853H132.705C131.747 65.4853 130.971 66.2613 130.971 67.2194V80.1214C130.971 81.0795 130.194 81.8555 129.236 81.8555H116.768C115.81 81.8555 115.034 81.0795 115.034 80.1214V67.2194C115.034 66.2613 114.258 65.4853 113.3 65.4853H99.9642C99.0061 65.4853 98.2301 66.2613 98.2301 67.2194V80.1214C98.2301 81.0795 97.454 81.8555 96.4959 81.8555H83.594C82.6359 81.8555 81.8598 82.6315 81.8598 83.5896V96.4916C81.8598 97.4497 81.0838 98.2257 80.1257 98.2257H67.2237C66.2656 98.2257 65.4896 99.0017 65.4896 99.9599V113.295C65.4896 114.253 66.2656 115.029 67.2237 115.029H80.1257C81.0838 115.029 81.8598 115.806 81.8598 116.764V129.232C81.8598 130.19 81.0838 130.966 80.1257 130.966H67.2237C66.2656 130.966 65.4896 131.742 65.4896 132.7V146.036C65.4896 146.994 66.2656 147.77 67.2237 147.77H80.1257C81.0838 147.77 81.8598 148.546 81.8598 149.504V162.406C81.8598 163.364 82.6359 164.14 83.594 164.14H96.4959C97.454 164.14 98.2301 164.916 98.2301 165.874V178.776C98.2301 179.734 99.0061 180.51 99.9642 180.51H113.3C114.258 180.51 115.034 179.734 115.034 178.776V165.874C115.034 164.916 115.81 164.14 116.768 164.14H129.236C130.194 164.14 130.971 164.916 130.971 165.874V178.776C130.971 179.734 131.747 180.51 132.705 180.51H146.04C146.998 180.51 147.774 179.734 147.774 178.776V165.874C147.774 164.916 148.55 164.14 149.508 164.14H162.41C163.368 164.14 164.145 163.364 164.145 162.406V149.504C164.145 148.546 164.921 147.77 165.879 147.77H178.781C179.739 147.77 180.515 146.994 180.515 146.036V132.7C180.515 131.742 179.739 130.966 178.781 130.966H165.879C164.921 130.966 164.145 130.19 164.145 129.232V116.764C164.145 115.806 164.921 115.029 165.879 115.029H178.781C179.739 115.029 180.515 114.253 180.515 113.295V99.9599C180.515 99.0017 179.739 98.2257 178.781 98.2257H165.879C164.921 98.2257 164.145 97.4497 164.145 96.4916V83.5896C164.145 82.6315 163.368 81.8555 162.41 81.8555ZM145.607 98.2257H133.138C132.18 98.2257 131.404 97.4497 131.404 96.4916V84.0232C131.404 83.065 132.18 82.289 133.138 82.289H145.607C146.565 82.289 147.341 83.065 147.341 84.0232V96.4916C147.341 97.4497 146.565 98.2257 145.607 98.2257ZM145.607 130.971H133.138C132.18 130.971 131.404 130.194 131.404 129.236V116.768C131.404 115.81 132.18 115.034 133.138 115.034H145.607C146.565 115.034 147.341 115.81 147.341 116.768V129.236C147.341 130.194 146.565 130.971 145.607 130.971ZM146.248 134.231V144.518C146.248 145.477 145.472 146.253 144.514 146.253H134.226C133.268 146.253 132.492 145.477 132.492 144.518V134.231C132.492 133.273 133.268 132.497 134.226 132.497H144.514C145.472 132.497 146.248 133.273 146.248 134.231ZM132.492 111.774V101.486C132.492 100.528 133.268 99.7518 134.226 99.7518H144.514C145.472 99.7518 146.248 100.528 146.248 101.486V111.774C146.248 112.732 145.472 113.508 144.514 113.508H134.226C133.268 113.508 132.492 112.732 132.492 111.774ZM129.236 114.6H116.768C115.81 114.6 115.034 113.824 115.034 112.866V100.398C115.034 99.4396 115.81 98.6636 116.768 98.6636H129.236C130.194 98.6636 130.971 99.4396 130.971 100.398V112.866C130.971 113.824 130.194 114.6 129.236 114.6ZM112.866 130.971H100.398C99.4396 130.971 98.6636 130.194 98.6636 129.236V116.768C98.6636 115.81 99.4396 115.034 100.398 115.034H112.866C113.824 115.034 114.6 115.81 114.6 116.768V129.236C114.6 130.194 113.824 130.971 112.866 130.971ZM113.508 134.231V144.518C113.508 145.477 112.732 146.253 111.774 146.253H101.486C100.528 146.253 99.7518 145.477 99.7518 144.518V134.231C99.7518 133.273 100.528 132.497 101.486 132.497H111.774C112.732 132.497 113.508 133.273 113.508 134.231ZM99.7518 111.774V101.486C99.7518 100.528 100.528 99.7518 101.486 99.7518H111.774C112.732 99.7518 113.508 100.528 113.508 101.486V111.774C113.508 112.732 112.732 113.508 111.774 113.508H101.486C100.528 113.508 99.7518 112.732 99.7518 111.774ZM112.866 98.2257H100.398C99.4396 98.2257 98.6636 97.4497 98.6636 96.4916V84.0232C98.6636 83.065 99.4396 82.289 100.398 82.289H112.866C113.824 82.289 114.6 83.065 114.6 84.0232V96.4916C114.6 97.4497 113.824 98.2257 112.866 98.2257ZM96.4916 114.6H84.0232C83.065 114.6 82.289 113.824 82.289 112.866V100.398C82.289 99.4396 83.065 98.6636 84.0232 98.6636H96.4916C97.4497 98.6636 98.2257 99.4396 98.2257 100.398V112.866C98.2257 113.824 97.4497 114.6 96.4916 114.6ZM96.4916 147.341H84.0232C83.065 147.341 82.289 146.565 82.289 145.607V133.138C82.289 132.18 83.065 131.404 84.0232 131.404H96.4916C97.4497 131.404 98.2257 132.18 98.2257 133.138V145.607C98.2257 146.565 97.4497 147.341 96.4916 147.341ZM100.393 147.774H112.862C113.82 147.774 114.596 148.55 114.596 149.508V161.977C114.596 162.935 113.82 163.711 112.862 163.711H100.393C99.4353 163.711 98.6593 162.935 98.6593 161.977V149.508C98.6593 148.55 99.4353 147.774 100.393 147.774ZM116.768 131.404H129.236C130.194 131.404 130.971 132.18 130.971 133.138V145.607C130.971 146.565 130.194 147.341 129.236 147.341H116.768C115.81 147.341 115.034 146.565 115.034 145.607V133.138C115.034 132.18 115.81 131.404 116.768 131.404ZM133.138 147.774H145.607C146.565 147.774 147.341 148.55 147.341 149.508V161.977C147.341 162.935 146.565 163.711 145.607 163.711H133.138C132.18 163.711 131.404 162.935 131.404 161.977V149.508C131.404 148.55 132.18 147.774 133.138 147.774ZM149.508 131.404H161.977C162.935 131.404 163.711 132.18 163.711 133.138V145.607C163.711 146.565 162.935 147.341 161.977 147.341H149.508C148.55 147.341 147.774 146.565 147.774 145.607V133.138C147.774 132.18 148.55 131.404 149.508 131.404ZM149.508 98.6593H161.977C162.935 98.6593 163.711 99.4353 163.711 100.393V112.862C163.711 113.82 162.935 114.596 161.977 114.596H149.508C148.55 114.596 147.774 113.82 147.774 112.862V100.393C147.774 99.4353 148.55 98.6593 149.508 98.6593ZM134.226 67.0113H144.514C145.472 67.0113 146.248 67.7873 146.248 68.7454V79.0332C146.248 79.9913 145.472 80.7673 144.514 80.7673H134.226C133.268 80.7673 132.492 79.9913 132.492 79.0332V68.7454C132.492 67.7873 133.268 67.0113 134.226 67.0113ZM101.486 67.0113H111.774C112.732 67.0113 113.508 67.7873 113.508 68.7454V79.0332C113.508 79.9913 112.732 80.7673 111.774 80.7673H101.486C100.528 80.7673 99.7518 79.9913 99.7518 79.0332V68.7454C99.7518 67.7873 100.528 67.0113 101.486 67.0113ZM79.0288 113.508H68.7411C67.783 113.508 67.007 112.732 67.007 111.774V101.486C67.007 100.528 67.783 99.7518 68.7411 99.7518H79.0288C79.987 99.7518 80.763 100.528 80.763 101.486V111.774C80.763 112.732 79.987 113.508 79.0288 113.508ZM79.0288 146.248H68.7411C67.783 146.248 67.007 145.472 67.007 144.514V134.226C67.007 133.268 67.783 132.492 68.7411 132.492H79.0288C79.987 132.492 80.763 133.268 80.763 134.226V144.514C80.763 145.472 79.987 146.248 79.0288 146.248ZM111.774 178.993H101.486C100.528 178.993 99.7518 178.217 99.7518 177.259V166.971C99.7518 166.013 100.528 165.237 101.486 165.237H111.774C112.732 165.237 113.508 166.013 113.508 166.971V177.259C113.508 178.217 112.732 178.993 111.774 178.993ZM144.514 178.993H134.226C133.268 178.993 132.492 178.217 132.492 177.259V166.971C132.492 166.013 133.268 165.237 134.226 165.237H144.514C145.472 165.237 146.248 166.013 146.248 166.971V177.259C146.248 178.217 145.472 178.993 144.514 178.993ZM166.971 132.497H177.259C178.217 132.497 178.993 133.273 178.993 134.231V144.518C178.993 145.477 178.217 146.253 177.259 146.253H166.971C166.013 146.253 165.237 145.477 165.237 144.518V134.231C165.237 133.273 166.013 132.497 166.971 132.497ZM166.971 99.7518H177.259C178.217 99.7518 178.993 100.528 178.993 101.486V111.774C178.993 112.732 178.217 113.508 177.259 113.508H166.971C166.013 113.508 165.237 112.732 165.237 111.774V101.486C165.237 100.528 166.013 99.7518 166.971 99.7518Z" fill="var(--fill-0, white)"/>
</g>
<path id="Vector_37" d="M147.558 229.413H131.187H114.817H98.4425H82.0723H65.702V245.783H82.0723H98.4425H114.817H131.187H147.558H163.928H180.302V229.413H163.928H147.558Z" fill="var(--fill-0, white)"/>
</g>
<defs>
<clipPath id="clip0_0_10">
<rect width="246" height="246" fill="white"/>
</clipPath>
</defs>
</svg>
