<svg preserveAspectRatio="xMidYMid meet" style="display: block;" viewBox="0 0 148 148" fill="none" xmlns="http://www.w3.org/2000/svg">
<g id="Layer_2" clip-path="url(#clip0_1153_3004)">
<path id="Vector" d="M9.3245 0.787692V8.2812C9.3245 8.85762 8.85762 9.3245 8.2812 9.3245H1.83099C1.25457 9.3245 0.787692 8.85762 0.787692 8.2812V1.83099C0.787692 1.25457 1.25457 0.787692 1.83099 0.787692H9.3245ZM9.97917 0.130413H0.912888C0.479918 0.130413 0.130413 0.479918 0.130413 0.912888V8.93587C0.130413 9.51229 0.59729 9.97917 1.17371 9.97917H8.93587C9.51229 9.97917 9.97917 9.51229 9.97917 8.93587V0.130413Z" fill="var(--fill-0, white)"/>
<path id="Vector_2" d="M68.4196 0.787692V8.2812C68.4196 8.85762 67.9528 9.3245 67.3763 9.3245H60.9261C60.3497 9.3245 59.8828 8.85762 59.8828 8.2812V1.83099C59.8828 1.25457 60.3497 0.787692 60.9261 0.787692H68.4196ZM69.0769 0.130413H60.0106C59.5777 0.130413 59.2282 0.479918 59.2282 0.912888V8.93587C59.2282 9.51229 59.695 9.97917 60.2715 9.97917H68.0336C68.61 9.97917 69.0769 9.51229 69.0769 8.93587V0.130413Z" fill="var(--fill-0, white)"/>
<path id="Vector_3" d="M88.1172 0.787692V8.2812C88.1172 8.85762 87.6503 9.3245 87.0739 9.3245H80.6237C80.0472 9.3245 79.5804 8.85762 79.5804 8.2812V1.83099C79.5804 1.25457 80.0472 0.787692 80.6237 0.787692H88.1172ZM88.7744 0.130413H79.7082C79.2752 0.130413 78.9257 0.479918 78.9257 0.912888V8.93587C78.9257 9.51229 79.3926 9.97917 79.969 9.97917H87.7311C88.3076 9.97917 88.7744 9.51229 88.7744 8.93587V0.130413Z" fill="var(--fill-0, white)"/>
<path id="Vector_4" d="M147.215 0.787692V8.2812C147.215 8.85762 146.748 9.3245 146.172 9.3245H139.721C139.145 9.3245 138.678 8.85762 138.678 8.2812V1.83099C138.678 1.25457 139.145 0.787692 139.721 0.787692H147.215ZM147.87 0.130413H138.803C138.37 0.130413 138.021 0.479918 138.021 0.912888V8.93587C138.021 9.51229 138.488 9.97917 139.064 9.97917H146.826C147.403 9.97917 147.87 9.51229 147.87 8.93587V0.130413Z" fill="var(--fill-0, white)"/>
<path id="Vector_5" d="M38.4847 9.97917H30.7226C30.1464 9.97917 29.6793 10.4463 29.6793 11.0225V18.7846C29.6793 19.3608 30.1464 19.8279 30.7226 19.8279H38.4847C39.0609 19.8279 39.528 19.3608 39.528 18.7846V11.0225C39.528 10.4463 39.0609 9.97917 38.4847 9.97917Z" fill="var(--fill-0, white)"/>
<path id="Vector_6" d="M77.8824 9.97917H70.1202C69.544 9.97917 69.0769 10.4463 69.0769 11.0225V18.7846C69.0769 19.3608 69.544 19.8279 70.1202 19.8279H77.8824C78.4586 19.8279 78.9257 19.3608 78.9257 18.7846V11.0225C78.9257 10.4463 78.4586 9.97917 77.8824 9.97917Z" fill="var(--fill-0, white)"/>
<path id="Vector_7" d="M117.277 9.97917H109.515C108.939 9.97917 108.472 10.4463 108.472 11.0225V18.7846C108.472 19.3608 108.939 19.8279 109.515 19.8279H117.277C117.854 19.8279 118.321 19.3608 118.321 18.7846V11.0225C118.321 10.4463 117.854 9.97917 117.277 9.97917Z" fill="var(--fill-0, white)"/>
<path id="Vector_8" d="M29.022 20.4852V27.9787C29.022 28.5551 28.5551 29.022 27.9787 29.022H21.5285C20.9521 29.022 20.4852 28.5551 20.4852 27.9787V21.5285C20.4852 20.9521 20.9521 20.4852 21.5285 20.4852H29.022ZM29.6793 19.8279H20.8738C20.2974 19.8279 19.8305 20.2948 19.8305 20.8712V28.6334C19.8305 29.2098 20.2974 29.6767 20.8738 29.6767H28.636C29.2124 29.6767 29.6793 29.2098 29.6793 28.6334V19.8279Z" fill="var(--fill-0, white)"/>
<path id="Vector_9" d="M48.3335 19.8279H40.5713C39.9952 19.8279 39.528 20.295 39.528 20.8712V28.6334C39.528 29.2096 39.9952 29.6767 40.5713 29.6767H48.3335C48.9097 29.6767 49.3768 29.2096 49.3768 28.6334V20.8712C49.3768 20.295 48.9097 19.8279 48.3335 19.8279Z" fill="var(--fill-0, white)"/>
<path id="Vector_10" d="M107.429 19.8279H99.6665C99.0903 19.8279 98.6232 20.295 98.6232 20.8712V28.6334C98.6232 29.2096 99.0903 29.6767 99.6665 29.6767H107.429C108.005 29.6767 108.472 29.2096 108.472 28.6334V20.8712C108.472 20.295 108.005 19.8279 107.429 19.8279Z" fill="var(--fill-0, white)"/>
<path id="Vector_11" d="M127.515 20.4852V27.9787C127.515 28.5551 127.048 29.022 126.471 29.022H120.021C119.445 29.022 118.978 28.5551 118.978 27.9787V21.5285C118.978 20.9521 119.445 20.4852 120.021 20.4852H127.515ZM128.172 19.8279H119.367C118.79 19.8279 118.323 20.2948 118.323 20.8712V28.6334C118.323 29.2098 118.79 29.6767 119.367 29.6767H127.129C127.705 29.6767 128.172 29.2098 128.172 28.6334V19.8279Z" fill="var(--fill-0, white)"/>
<path id="Vector_12" d="M38.4847 29.6793H30.7226C30.1464 29.6793 29.6793 30.1464 29.6793 30.7226V38.4847C29.6793 39.0609 30.1464 39.528 30.7226 39.528H38.4847C39.0609 39.528 39.528 39.0609 39.528 38.4847V30.7226C39.528 30.1464 39.0609 29.6793 38.4847 29.6793Z" fill="var(--fill-0, white)"/>
<path id="Vector_13" d="M117.277 29.6793H109.515C108.939 29.6793 108.472 30.1464 108.472 30.7226V38.4847C108.472 39.0609 108.939 39.528 109.515 39.528H117.277C117.854 39.528 118.321 39.0609 118.321 38.4847V30.7226C118.321 30.1464 117.854 29.6793 117.277 29.6793Z" fill="var(--fill-0, white)"/>
<path id="Vector_14" d="M28.6334 39.528H20.8712C20.295 39.528 19.8279 39.9952 19.8279 40.5713V48.3335C19.8279 48.9097 20.295 49.3768 20.8712 49.3768H28.6334C29.2096 49.3768 29.6767 48.9097 29.6767 48.3335V40.5713C29.6767 39.9952 29.2096 39.528 28.6334 39.528Z" fill="var(--fill-0, white)"/>
<path id="Vector_15" d="M68.031 39.528H60.2689C59.6927 39.528 59.2256 39.9952 59.2256 40.5713V48.3335C59.2256 48.9097 59.6927 49.3768 60.2689 49.3768H68.031C68.6072 49.3768 69.0743 48.9097 69.0743 48.3335V40.5713C69.0743 39.9952 68.6072 39.528 68.031 39.528Z" fill="var(--fill-0, white)"/>
<path id="Vector_16" d="M87.7311 39.528H79.969C79.3928 39.528 78.9257 39.9952 78.9257 40.5713V48.3335C78.9257 48.9097 79.3928 49.3768 79.969 49.3768H87.7311C88.3073 49.3768 88.7744 48.9097 88.7744 48.3335V40.5713C88.7744 39.9952 88.3073 39.528 87.7311 39.528Z" fill="var(--fill-0, white)"/>
<path id="Vector_17" d="M127.129 39.528H119.367C118.79 39.528 118.323 39.9952 118.323 40.5713V48.3335C118.323 48.9097 118.79 49.3768 119.367 49.3768H127.129C127.705 49.3768 128.172 48.9097 128.172 48.3335V40.5713C128.172 39.9952 127.705 39.528 127.129 39.528Z" fill="var(--fill-0, white)"/>
<path id="Vector_18" d="M28.6334 49.3768H20.8712C20.295 49.3768 19.8279 49.8439 19.8279 50.4201V58.1823C19.8279 58.7585 20.295 59.2256 20.8712 59.2256H28.6334C29.2096 59.2256 29.6767 58.7585 29.6767 58.1823V50.4201C29.6767 49.8439 29.2096 49.3768 28.6334 49.3768Z" fill="var(--fill-0, white)"/>
<path id="Vector_19" d="M127.129 49.3768H119.367C118.79 49.3768 118.323 49.8439 118.323 50.4201V58.1823C118.323 58.7585 118.79 59.2256 119.367 59.2256H127.129C127.705 59.2256 128.172 58.7585 128.172 58.1823V50.4201C128.172 49.8439 127.705 49.3768 127.129 49.3768Z" fill="var(--fill-0, white)"/>
<path id="Vector_20" d="M8.93587 59.2256H1.17371C0.597514 59.2256 0.130413 59.6927 0.130413 60.2689V68.031C0.130413 68.6072 0.597514 69.0743 1.17371 69.0743H8.93587C9.51207 69.0743 9.97917 68.6072 9.97917 68.031V60.2689C9.97917 59.6927 9.51207 59.2256 8.93587 59.2256Z" fill="var(--fill-0, white)"/>
<path id="Vector_21" d="M28.6334 59.2256H20.8712C20.295 59.2256 19.8279 59.6927 19.8279 60.2689V68.031C19.8279 68.6072 20.295 69.0743 20.8712 69.0743H28.6334C29.2096 69.0743 29.6767 68.6072 29.6767 68.031V60.2689C29.6767 59.6927 29.2096 59.2256 28.6334 59.2256Z" fill="var(--fill-0, white)"/>
<path id="Vector_22" d="M127.129 59.2256H119.367C118.79 59.2256 118.323 59.6927 118.323 60.2689V68.031C118.323 68.6072 118.79 69.0743 119.367 69.0743H127.129C127.705 69.0743 128.172 68.6072 128.172 68.031V60.2689C128.172 59.6927 127.705 59.2256 127.129 59.2256Z" fill="var(--fill-0, white)"/>
<path id="Vector_23" d="M146.826 59.2256H139.064C138.488 59.2256 138.021 59.6927 138.021 60.2689V68.031C138.021 68.6072 138.488 69.0743 139.064 69.0743H146.826C147.402 69.0743 147.87 68.6072 147.87 68.031V60.2689C147.87 59.6927 147.402 59.2256 146.826 59.2256Z" fill="var(--fill-0, white)"/>
<path id="Vector_24" d="M18.7846 69.0769H11.0225C10.4463 69.0769 9.97917 69.544 9.97917 70.1202V77.8824C9.97917 78.4586 10.4463 78.9257 11.0225 78.9257H18.7846C19.3608 78.9257 19.8279 78.4586 19.8279 77.8824V70.1202C19.8279 69.544 19.3608 69.0769 18.7846 69.0769Z" fill="var(--fill-0, white)"/>
<path id="Vector_25" d="M28.6334 69.0769H20.8712C20.295 69.0769 19.8279 69.544 19.8279 70.1202V77.8824C19.8279 78.4586 20.295 78.9257 20.8712 78.9257H28.6334C29.2096 78.9257 29.6767 78.4586 29.6767 77.8824V70.1202C29.6767 69.544 29.2096 69.0769 28.6334 69.0769Z" fill="var(--fill-0, white)"/>
<path id="Vector_26" d="M48.3335 69.0769H40.5713C39.9952 69.0769 39.528 69.544 39.528 70.1202V77.8824C39.528 78.4586 39.9952 78.9257 40.5713 78.9257H48.3335C48.9097 78.9257 49.3768 78.4586 49.3768 77.8824V70.1202C49.3768 69.544 48.9097 69.0769 48.3335 69.0769Z" fill="var(--fill-0, white)"/>
<path id="Vector_27" d="M78.2684 69.7316V77.2251C78.2684 77.8015 77.8015 78.2684 77.2251 78.2684H70.7749C70.1985 78.2684 69.7316 77.8015 69.7316 77.2251V70.7749C69.7316 70.1985 70.1985 69.7316 70.7749 69.7316H78.2684ZM78.9257 69.0769H70.1202C69.5438 69.0769 69.0769 69.5438 69.0769 70.1202V77.8824C69.0769 78.4588 69.5438 78.9257 70.1202 78.9257H77.8824C78.4588 78.9257 78.9257 78.4588 78.9257 77.8824V69.0769Z" fill="var(--fill-0, white)"/>
<path id="Vector_28" d="M107.429 69.0769H99.6665C99.0903 69.0769 98.6232 69.544 98.6232 70.1202V77.8824C98.6232 78.4586 99.0903 78.9257 99.6665 78.9257H107.429C108.005 78.9257 108.472 78.4586 108.472 77.8824V70.1202C108.472 69.544 108.005 69.0769 107.429 69.0769Z" fill="var(--fill-0, white)"/>
<path id="Vector_29" d="M127.129 69.0769H119.367C118.79 69.0769 118.323 69.544 118.323 70.1202V77.8824C118.323 78.4586 118.79 78.9257 119.367 78.9257H127.129C127.705 78.9257 128.172 78.4586 128.172 77.8824V70.1202C128.172 69.544 127.705 69.0769 127.129 69.0769Z" fill="var(--fill-0, white)"/>
<path id="Vector_30" d="M136.978 69.0769H129.215C128.639 69.0769 128.172 69.544 128.172 70.1202V77.8824C128.172 78.4586 128.639 78.9257 129.215 78.9257H136.978C137.554 78.9257 138.021 78.4586 138.021 77.8824V70.1202C138.021 69.544 137.554 69.0769 136.978 69.0769Z" fill="var(--fill-0, white)"/>
<path id="Vector_31" d="M8.93587 78.9257H1.17371C0.597514 78.9257 0.130413 79.3928 0.130413 79.969V87.7311C0.130413 88.3073 0.597514 88.7744 1.17371 88.7744H8.93587C9.51207 88.7744 9.97917 88.3073 9.97917 87.7311V79.969C9.97917 79.3928 9.51207 78.9257 8.93587 78.9257Z" fill="var(--fill-0, white)"/>
<path id="Vector_32" d="M28.6334 78.9257H20.8712C20.295 78.9257 19.8279 79.3928 19.8279 79.969V87.7311C19.8279 88.3073 20.295 88.7744 20.8712 88.7744H28.6334C29.2096 88.7744 29.6767 88.3073 29.6767 87.7311V79.969C29.6767 79.3928 29.2096 78.9257 28.6334 78.9257Z" fill="var(--fill-0, white)"/>
<path id="Vector_33" d="M127.129 78.9257H119.367C118.79 78.9257 118.323 79.3928 118.323 79.969V87.7311C118.323 88.3073 118.79 88.7744 119.367 88.7744H127.129C127.705 88.7744 128.172 88.3073 128.172 87.7311V79.969C128.172 79.3928 127.705 78.9257 127.129 78.9257Z" fill="var(--fill-0, white)"/>
<path id="Vector_34" d="M146.826 78.9257H139.064C138.488 78.9257 138.021 79.3928 138.021 79.969V87.7311C138.021 88.3073 138.488 88.7744 139.064 88.7744H146.826C147.402 88.7744 147.87 88.3073 147.87 87.7311V79.969C147.87 79.3928 147.402 78.9257 146.826 78.9257Z" fill="var(--fill-0, white)"/>
<path id="Vector_35" d="M28.6334 88.7744H20.8712C20.295 88.7744 19.8279 89.2415 19.8279 89.8177V97.5799C19.8279 98.1561 20.295 98.6232 20.8712 98.6232H28.6334C29.2096 98.6232 29.6767 98.1561 29.6767 97.5799V89.8177C29.6767 89.2415 29.2096 88.7744 28.6334 88.7744Z" fill="var(--fill-0, white)"/>
<path id="Vector_36" d="M127.129 88.7744H119.367C118.79 88.7744 118.323 89.2415 118.323 89.8177V97.5799C118.323 98.1561 118.79 98.6232 119.367 98.6232H127.129C127.705 98.6232 128.172 98.1561 128.172 97.5799V89.8177C128.172 89.2415 127.705 88.7744 127.129 88.7744Z" fill="var(--fill-0, white)"/>
<path id="Vector_37" d="M28.6334 98.6232H20.8712C20.295 98.6232 19.8279 99.0903 19.8279 99.6665V107.429C19.8279 108.005 20.295 108.472 20.8712 108.472H28.6334C29.2096 108.472 29.6767 108.005 29.6767 107.429V99.6665C29.6767 99.0903 29.2096 98.6232 28.6334 98.6232Z" fill="var(--fill-0, white)"/>
<path id="Vector_38" d="M68.031 98.6232H60.2689C59.6927 98.6232 59.2256 99.0903 59.2256 99.6665V107.429C59.2256 108.005 59.6927 108.472 60.2689 108.472H68.031C68.6072 108.472 69.0743 108.005 69.0743 107.429V99.6665C69.0743 99.0903 68.6072 98.6232 68.031 98.6232Z" fill="var(--fill-0, white)"/>
<path id="Vector_39" d="M87.7311 98.6232H79.969C79.3928 98.6232 78.9257 99.0903 78.9257 99.6665V107.429C78.9257 108.005 79.3928 108.472 79.969 108.472H87.7311C88.3073 108.472 88.7744 108.005 88.7744 107.429V99.6665C88.7744 99.0903 88.3073 98.6232 87.7311 98.6232Z" fill="var(--fill-0, white)"/>
<path id="Vector_40" d="M127.129 98.6232H119.367C118.79 98.6232 118.323 99.0903 118.323 99.6665V107.429C118.323 108.005 118.79 108.472 119.367 108.472H127.129C127.705 108.472 128.172 108.005 128.172 107.429V99.6665C128.172 99.0903 127.705 98.6232 127.129 98.6232Z" fill="var(--fill-0, white)"/>
<path id="Vector_41" d="M38.4847 108.475H30.7226C30.1464 108.475 29.6793 108.942 29.6793 109.518V117.28C29.6793 117.856 30.1464 118.323 30.7226 118.323H38.4847C39.0609 118.323 39.528 117.856 39.528 117.28V109.518C39.528 108.942 39.0609 108.475 38.4847 108.475Z" fill="var(--fill-0, white)"/>
<path id="Vector_42" d="M117.277 108.475H109.515C108.939 108.475 108.472 108.942 108.472 109.518V117.28C108.472 117.856 108.939 118.323 109.515 118.323H117.277C117.854 118.323 118.321 117.856 118.321 117.28V109.518C118.321 108.942 117.854 108.475 117.277 108.475Z" fill="var(--fill-0, white)"/>
<path id="Vector_43" d="M29.022 118.978V126.471C29.022 127.048 28.5551 127.515 27.9787 127.515H21.5285C20.9521 127.515 20.4852 127.048 20.4852 126.471V120.021C20.4852 119.445 20.9521 118.978 21.5285 118.978H29.022ZM29.6793 118.323H20.8738C20.2974 118.323 19.8305 118.79 19.8305 119.367V127.129C19.8305 127.705 20.2974 128.172 20.8738 128.172H28.636C29.2124 128.172 29.6793 127.705 29.6793 127.129V118.323Z" fill="var(--fill-0, white)"/>
<path id="Vector_44" d="M48.3335 118.323H40.5713C39.9952 118.323 39.528 118.79 39.528 119.367V127.129C39.528 127.705 39.9952 128.172 40.5713 128.172H48.3335C48.9097 128.172 49.3768 127.705 49.3768 127.129V119.367C49.3768 118.79 48.9097 118.323 48.3335 118.323Z" fill="var(--fill-0, white)"/>
<path id="Vector_45" d="M107.429 118.323H99.6665C99.0903 118.323 98.6232 118.79 98.6232 119.367V127.129C98.6232 127.705 99.0903 128.172 99.6665 128.172H107.429C108.005 128.172 108.472 127.705 108.472 127.129V119.367C108.472 118.79 108.005 118.323 107.429 118.323Z" fill="var(--fill-0, white)"/>
<path id="Vector_46" d="M127.515 118.978V126.471C127.515 127.048 127.048 127.515 126.471 127.515H120.021C119.445 127.515 118.978 127.048 118.978 126.471V120.021C118.978 119.445 119.445 118.978 120.021 118.978H127.515ZM128.172 118.323H119.367C118.79 118.323 118.323 118.79 118.323 119.367V127.129C118.323 127.705 118.79 128.172 119.367 128.172H127.129C127.705 128.172 128.172 127.705 128.172 127.129V118.323Z" fill="var(--fill-0, white)"/>
<path id="Vector_47" d="M38.4847 128.172H30.7226C30.1464 128.172 29.6793 128.639 29.6793 129.215V136.978C29.6793 137.554 30.1464 138.021 30.7226 138.021H38.4847C39.0609 138.021 39.528 137.554 39.528 136.978V129.215C39.528 128.639 39.0609 128.172 38.4847 128.172Z" fill="var(--fill-0, white)"/>
<path id="Vector_48" d="M77.8824 128.172H70.1202C69.544 128.172 69.0769 128.639 69.0769 129.215V136.978C69.0769 137.554 69.544 138.021 70.1202 138.021H77.8824C78.4586 138.021 78.9257 137.554 78.9257 136.978V129.215C78.9257 128.639 78.4586 128.172 77.8824 128.172Z" fill="var(--fill-0, white)"/>
<path id="Vector_49" d="M117.277 128.172H109.515C108.939 128.172 108.472 128.639 108.472 129.215V136.978C108.472 137.554 108.939 138.021 109.515 138.021H117.277C117.854 138.021 118.321 137.554 118.321 136.978V129.215C118.321 128.639 117.854 128.172 117.277 128.172Z" fill="var(--fill-0, white)"/>
<path id="Vector_50" d="M9.3245 138.678V146.172C9.3245 146.748 8.85762 147.215 8.2812 147.215H1.83099C1.25457 147.215 0.787692 146.748 0.787692 146.172V139.721C0.787692 139.145 1.25457 138.678 1.83099 138.678H9.3245ZM9.97917 138.021H1.17371C0.59729 138.021 0.130413 138.488 0.130413 139.064V146.826C0.130413 147.403 0.59729 147.87 1.17371 147.87H8.93587C9.51229 147.87 9.97917 147.403 9.97917 146.826V138.021Z" fill="var(--fill-0, white)"/>
<path id="Vector_51" d="M68.4196 138.678V146.172C68.4196 146.748 67.9528 147.215 67.3763 147.215H60.9261C60.3497 147.215 59.8828 146.748 59.8828 146.172V139.721C59.8828 139.145 60.3497 138.678 60.9261 138.678H68.4196ZM69.0769 138.021H60.2715C59.695 138.021 59.2282 138.488 59.2282 139.064V146.826C59.2282 147.403 59.695 147.87 60.2715 147.87H68.0336C68.61 147.87 69.0769 147.403 69.0769 146.826V138.021Z" fill="var(--fill-0, white)"/>
<path id="Vector_52" d="M88.1172 138.678V146.172C88.1172 146.748 87.6503 147.215 87.0739 147.215H80.6237C80.0472 147.215 79.5804 146.748 79.5804 146.172V139.721C79.5804 139.145 80.0472 138.678 80.6237 138.678H88.1172ZM88.7744 138.021H79.969C79.3926 138.021 78.9257 138.488 78.9257 139.064V146.826C78.9257 147.403 79.3926 147.87 79.969 147.87H87.7311C88.3076 147.87 88.7744 147.403 88.7744 146.826V138.021Z" fill="var(--fill-0, white)"/>
<g id="Group">
<path id="Vector_53" d="M9.32711 0H0.782475C0.349506 0 0 0.349506 0 0.782475V9.06628C0 9.6427 0.466877 10.1096 1.0433 10.1096H9.06628C9.6427 10.1096 10.1096 9.6427 10.1096 9.06628V0.782475C10.1096 0.349506 9.76008 0 9.32711 0ZM8.15079 9.19409H1.9614C1.38498 9.19409 0.918104 8.72721 0.918104 8.15079V1.9614C0.918104 1.38498 1.38498 0.918104 1.9614 0.918104H8.15079C8.72721 0.918104 9.19409 1.38498 9.19409 1.9614V8.15079C9.19409 8.72721 8.72721 9.19409 8.15079 9.19409Z" fill="var(--fill-0, white)"/>
<path id="Vector_54" d="M77.752 9.84876H70.2506C69.6742 9.84876 69.2073 9.38188 69.2073 8.80546V0.782475C69.2073 0.349506 68.8578 0 68.4249 0H59.8802C59.4473 0 59.0978 0.349506 59.0978 0.782475V9.06628C59.0978 9.6427 59.5646 10.1096 60.1411 10.1096H67.9032C68.4796 10.1096 68.9465 10.5765 68.9465 11.1529V18.915C68.9465 19.4915 69.4134 19.9583 69.9898 19.9583H78.0128C78.5892 19.9583 79.0561 19.4915 79.0561 18.915V11.1529C79.0561 10.5765 79.523 10.1096 80.0994 10.1096H87.8615C88.438 10.1096 88.9049 9.6427 88.9049 9.06628V0.782475C88.9049 0.349506 88.5553 0 88.1224 0H79.5777C79.1448 0 78.7953 0.349506 78.7953 0.782475V8.80546C78.7953 9.38188 78.3284 9.84876 77.752 9.84876ZM67.2459 9.19409H61.0566C60.4801 9.19409 60.0133 8.72721 60.0133 8.15079V1.9614C60.0133 1.38498 60.4801 0.918104 61.0566 0.918104H67.2459C67.8224 0.918104 68.2892 1.38498 68.2892 1.9614V8.15079C68.2892 8.72721 67.8224 9.19409 67.2459 9.19409ZM80.7541 0.918104H86.9434C87.5199 0.918104 87.9867 1.38498 87.9867 1.9614V8.15079C87.9867 8.72721 87.5199 9.19409 86.9434 9.19409H80.7541C80.1776 9.19409 79.7108 8.72721 79.7108 8.15079V1.9614C79.7108 1.38498 80.1776 0.918104 80.7541 0.918104Z" fill="var(--fill-0, white)"/>
<path id="Vector_55" d="M147.218 0H138.673C138.24 0 137.89 0.349506 137.89 0.782475V9.06628C137.89 9.6427 138.357 10.1096 138.934 10.1096H146.957C147.533 10.1096 148 9.6427 148 9.06628V0.782475C148 0.349506 147.651 0 147.218 0ZM146.041 9.19409H139.852C139.275 9.19409 138.809 8.72721 138.809 8.15079V1.9614C138.809 1.38498 139.275 0.918104 139.852 0.918104H146.041C146.618 0.918104 147.085 1.38498 147.085 1.9614V8.15079C147.085 8.72721 146.618 9.19409 146.041 9.19409Z" fill="var(--fill-0, white)"/>
<path id="Vector_56" d="M38.6152 9.84876H30.5922C30.0158 9.84876 29.5489 10.3156 29.5489 10.8921V18.6542C29.5489 19.2306 29.082 19.6975 28.5056 19.6975H20.7434C20.167 19.6975 19.7001 20.1644 19.7001 20.7408V28.7638C19.7001 29.3402 20.167 29.8071 20.7434 29.8071H28.5056C29.082 29.8071 29.5489 30.274 29.5489 30.8504V38.3517C29.5489 38.9281 29.082 39.395 28.5056 39.395H20.7434C20.167 39.395 19.7001 39.8619 19.7001 40.4383V67.9006C19.7001 68.477 19.2332 68.9439 18.6568 68.9439H11.1555C10.5791 68.9439 10.1122 68.477 10.1122 67.9006V60.1385C10.1122 59.562 9.64531 59.0952 9.06889 59.0952H1.0433C0.466877 59.0952 0 59.562 0 60.1385V68.1614C0 68.7379 0.466877 69.2047 1.0433 69.2047H8.80546C9.38188 69.2047 9.84876 69.6716 9.84876 70.248V77.7494C9.84876 78.3258 9.38188 78.7927 8.80546 78.7927H1.0433C0.466877 78.7927 0 79.2595 0 79.836V87.8589C0 88.4354 0.466877 88.9022 1.0433 88.9022H9.06628C9.6427 88.9022 10.1096 88.4354 10.1096 87.8589V80.0968C10.1096 79.5204 10.5765 79.0535 11.1529 79.0535H18.6542C19.2306 79.0535 19.6975 79.5204 19.6975 80.0968V107.559C19.6975 108.135 20.1644 108.602 20.7408 108.602H28.503C29.0794 108.602 29.5463 109.069 29.5463 109.646V117.147C29.5463 117.723 29.0794 118.19 28.503 118.19H20.7408C20.1644 118.19 19.6975 118.657 19.6975 119.234V127.257C19.6975 127.833 20.1644 128.3 20.7408 128.3H28.503C29.0794 128.3 29.5463 128.767 29.5463 129.343V137.105C29.5463 137.682 30.0131 138.149 30.5896 138.149H38.6126C39.189 138.149 39.6559 137.682 39.6559 137.105V129.343C39.6559 128.767 40.1227 128.3 40.6992 128.3H48.4613C49.0377 128.3 49.5046 127.833 49.5046 127.257V119.234C49.5046 118.657 49.0377 118.19 48.4613 118.19H40.6992C40.1227 118.19 39.6559 117.723 39.6559 117.147V109.385C39.6559 108.808 39.189 108.342 38.6126 108.342H30.8504C30.274 108.342 29.8071 107.875 29.8071 107.298V40.6992C29.8071 40.1227 30.274 39.6559 30.8504 39.6559H38.6126C39.189 39.6559 39.6559 39.189 39.6559 38.6126V30.8504C39.6559 30.274 40.1227 29.8071 40.6992 29.8071H48.4613C49.0377 29.8071 49.5046 29.3402 49.5046 28.7638V20.7408C49.5046 20.1644 49.0377 19.6975 48.4613 19.6975H40.6992C40.1227 19.6975 39.6559 19.2306 39.6559 18.6542V10.8921C39.6559 10.3156 39.189 9.84876 38.6126 9.84876H38.6152ZM39.3976 119.497V126.998C39.3976 127.575 38.9308 128.042 38.3543 128.042H30.853C30.2766 128.042 29.8097 127.575 29.8097 126.998V119.497C29.8097 118.921 30.2766 118.454 30.853 118.454H38.3543C38.9308 118.454 39.3976 118.921 39.3976 119.497ZM27.8483 127.384H21.6589C21.0825 127.384 20.6156 126.918 20.6156 126.341V120.152C20.6156 119.575 21.0825 119.108 21.6589 119.108H27.8483C28.4247 119.108 28.8916 119.575 28.8916 120.152V126.341C28.8916 126.918 28.4247 127.384 27.8483 127.384ZM39.3976 21.0016V28.503C39.3976 29.0794 38.9308 29.5463 38.3543 29.5463H30.853C30.2766 29.5463 29.8097 29.0794 29.8097 28.503V21.0016C29.8097 20.4252 30.2766 19.9583 30.853 19.9583H38.3543C38.9308 19.9583 39.3976 20.4252 39.3976 21.0016ZM27.8483 28.8916H21.6589C21.0825 28.8916 20.6156 28.4247 20.6156 27.8483V21.6589C20.6156 21.0825 21.0825 20.6156 21.6589 20.6156H27.8483C28.4247 20.6156 28.8916 21.0825 28.8916 21.6589V27.8483C28.8916 28.4247 28.4247 28.8916 27.8483 28.8916Z" fill="var(--fill-0, white)"/>
<path id="Vector_57" d="M68.1614 39.3976H60.1385C59.5623 39.3976 59.0951 39.8647 59.0951 40.4409V48.4639C59.0951 49.0401 59.5623 49.5072 60.1385 49.5072H68.1614C68.7376 49.5072 69.2047 49.0401 69.2047 48.4639V40.4409C69.2047 39.8647 68.7376 39.3976 68.1614 39.3976Z" fill="var(--fill-0, white)"/>
<path id="Vector_58" d="M87.8615 39.3976H79.8386C79.2624 39.3976 78.7953 39.8647 78.7953 40.4409V48.4639C78.7953 49.0401 79.2624 49.5072 79.8386 49.5072H87.8615C88.4377 49.5072 88.9048 49.0401 88.9048 48.4639V40.4409C88.9048 39.8647 88.4377 39.3976 87.8615 39.3976Z" fill="var(--fill-0, white)"/>
<path id="Vector_59" d="M148 68.164V60.1411C148 59.5646 147.533 59.0978 146.957 59.0978H138.934C138.357 59.0978 137.89 59.5646 137.89 60.1411V67.9032C137.89 68.4796 137.424 68.9465 136.847 68.9465H129.346C128.769 68.9465 128.302 68.4796 128.302 67.9032V40.4409C128.302 39.8645 127.836 39.3976 127.259 39.3976H119.497C118.921 39.3976 118.454 38.9308 118.454 38.3543V30.853C118.454 30.2766 118.921 29.8097 119.497 29.8097H127.259C127.836 29.8097 128.302 29.3428 128.302 28.7664V20.7434C128.302 20.167 127.836 19.7001 127.259 19.7001H119.497C118.921 19.7001 118.454 19.2332 118.454 18.6568V10.8947C118.454 10.3182 117.987 9.85137 117.41 9.85137H109.387C108.811 9.85137 108.344 10.3182 108.344 10.8947V18.6568C108.344 19.2332 107.877 19.7001 107.301 19.7001H99.5387C98.9623 19.7001 98.4954 20.167 98.4954 20.7434V28.7664C98.4954 29.3428 98.9623 29.8097 99.5387 29.8097H107.301C107.877 29.8097 108.344 30.2766 108.344 30.853V38.6152C108.344 39.1916 108.811 39.6585 109.387 39.6585H117.15C117.726 39.6585 118.193 40.1253 118.193 40.7018V107.301C118.193 107.877 117.726 108.344 117.15 108.344H109.387C108.811 108.344 108.344 108.811 108.344 109.387V117.15C108.344 117.726 107.877 118.193 107.301 118.193H99.5387C98.9623 118.193 98.4954 118.66 98.4954 119.236V127.259C98.4954 127.836 98.9623 128.302 99.5387 128.302H107.301C107.877 128.302 108.344 128.769 108.344 129.346V137.108C108.344 137.684 108.811 138.151 109.387 138.151H117.41C117.987 138.151 118.454 137.684 118.454 137.108V129.346C118.454 128.769 118.921 128.302 119.497 128.302H127.259C127.836 128.302 128.302 127.836 128.302 127.259V119.236C128.302 118.66 127.836 118.193 127.259 118.193H119.497C118.921 118.193 118.454 117.726 118.454 117.15V109.648C118.454 109.072 118.921 108.605 119.497 108.605H127.259C127.836 108.605 128.302 108.138 128.302 107.562V80.0994C128.302 79.523 128.769 79.0561 129.346 79.0561H136.847C137.424 79.0561 137.89 79.523 137.89 80.0994V87.8615C137.89 88.438 138.357 88.9048 138.934 88.9048H146.957C147.533 88.9048 148 88.438 148 87.8615V79.8386C148 79.2621 147.533 78.7953 146.957 78.7953H139.195C138.618 78.7953 138.151 78.3284 138.151 77.752V70.2506C138.151 69.6742 138.618 69.2073 139.195 69.2073H146.957C147.533 69.2073 148 68.7405 148 68.164ZM108.602 28.5056V21.0042C108.602 20.4278 109.069 19.9609 109.646 19.9609H117.147C117.723 19.9609 118.19 20.4278 118.19 21.0042V28.5056C118.19 29.082 117.723 29.5489 117.147 29.5489H109.646C109.069 29.5489 108.602 29.082 108.602 28.5056ZM120.152 20.6156H126.341C126.918 20.6156 127.384 21.0825 127.384 21.6589V27.8483C127.384 28.4247 126.918 28.8916 126.341 28.8916H120.152C119.575 28.8916 119.108 28.4247 119.108 27.8483V21.6589C119.108 21.0825 119.575 20.6156 120.152 20.6156ZM118.193 119.497V126.998C118.193 127.575 117.726 128.042 117.15 128.042H109.648C109.072 128.042 108.605 127.575 108.605 126.998V119.497C108.605 118.921 109.072 118.454 109.648 118.454H117.15C117.726 118.454 118.193 118.921 118.193 119.497ZM120.152 119.108H126.341C126.918 119.108 127.384 119.575 127.384 120.152V126.341C127.384 126.918 126.918 127.384 126.341 127.384H120.152C119.575 127.384 119.108 126.918 119.108 126.341V120.152C119.108 119.575 119.575 119.108 120.152 119.108Z" fill="var(--fill-0, white)"/>
<path id="Vector_60" d="M48.4639 68.9465H40.4409C39.8647 68.9465 39.3976 69.4136 39.3976 69.9898V78.0128C39.3976 78.589 39.8647 79.0561 40.4409 79.0561H48.4639C49.0401 79.0561 49.5072 78.589 49.5072 78.0128V69.9898C49.5072 69.4136 49.0401 68.9465 48.4639 68.9465Z" fill="var(--fill-0, white)"/>
<path id="Vector_61" d="M69.9898 79.0561H78.0128C78.5892 79.0561 79.0561 78.5892 79.0561 78.0128V69.9898C79.0561 69.4134 78.5892 68.9465 78.0128 68.9465H69.9898C69.4134 68.9465 68.9465 69.4134 68.9465 69.9898V78.0128C68.9465 78.5892 69.4134 79.0561 69.9898 79.0561ZM70.9053 69.862H77.0947C77.6711 69.862 78.138 70.3289 78.138 70.9053V77.0947C78.138 77.6711 77.6711 78.138 77.0947 78.138H70.9053C70.3289 78.138 69.862 77.6711 69.862 77.0947V70.9053C69.862 70.3289 70.3289 69.862 70.9053 69.862Z" fill="var(--fill-0, white)"/>
<path id="Vector_62" d="M107.559 68.9465H99.5361C98.9599 68.9465 98.4928 69.4136 98.4928 69.9898V78.0128C98.4928 78.589 98.9599 79.0561 99.5361 79.0561H107.559C108.135 79.0561 108.602 78.589 108.602 78.0128V69.9898C108.602 69.4136 108.135 68.9465 107.559 68.9465Z" fill="var(--fill-0, white)"/>
<path id="Vector_63" d="M68.1614 98.4928H60.1385C59.5623 98.4928 59.0951 98.9599 59.0951 99.5361V107.559C59.0951 108.135 59.5623 108.602 60.1385 108.602H68.1614C68.7376 108.602 69.2047 108.135 69.2047 107.559V99.5361C69.2047 98.9599 68.7376 98.4928 68.1614 98.4928Z" fill="var(--fill-0, white)"/>
<path id="Vector_64" d="M87.8615 98.4928H79.8386C79.2624 98.4928 78.7953 98.9599 78.7953 99.5361V107.559C78.7953 108.135 79.2624 108.602 79.8386 108.602H87.8615C88.4377 108.602 88.9048 108.135 88.9048 107.559V99.5361C88.9048 98.9599 88.4377 98.4928 87.8615 98.4928Z" fill="var(--fill-0, white)"/>
<path id="Vector_65" d="M78.0128 128.042H69.9898C69.4134 128.042 68.9465 128.509 68.9465 129.085V136.847C68.9465 137.424 68.4796 137.89 67.9032 137.89H60.1411C59.5646 137.89 59.0978 138.357 59.0978 138.934V146.957C59.0978 147.533 59.5646 148 60.1411 148H68.164C68.7405 148 69.2073 147.533 69.2073 146.957V139.195C69.2073 138.618 69.6742 138.151 70.2506 138.151H77.752C78.3284 138.151 78.7953 138.618 78.7953 139.195V146.957C78.7953 147.533 79.2622 148 79.8386 148H87.8615C88.438 148 88.9049 147.533 88.9049 146.957V138.934C88.9049 138.357 88.438 137.89 87.8615 137.89H80.0994C79.523 137.89 79.0561 137.424 79.0561 136.847V129.085C79.0561 128.509 78.5892 128.042 78.0128 128.042ZM67.2459 147.085H61.0566C60.4801 147.085 60.0133 146.618 60.0133 146.041V139.852C60.0133 139.275 60.4801 138.809 61.0566 138.809H67.2459C67.8224 138.809 68.2892 139.275 68.2892 139.852V146.041C68.2892 146.618 67.8224 147.085 67.2459 147.085ZM80.7541 138.809H86.9434C87.5199 138.809 87.9867 139.275 87.9867 139.852V146.041C87.9867 146.618 87.5199 147.085 86.9434 147.085H80.7541C80.1776 147.085 79.7108 146.618 79.7108 146.041V139.852C79.7108 139.275 80.1776 138.809 80.7541 138.809Z" fill="var(--fill-0, white)"/>
<path id="Vector_66" d="M1.0433 148H9.06628C9.6427 148 10.1096 147.533 10.1096 146.957V138.934C10.1096 138.357 9.6427 137.89 9.06628 137.89H1.0433C0.466877 137.89 0 138.357 0 138.934V146.957C0 147.533 0.466877 148 1.0433 148ZM1.9614 138.809H8.15079C8.72721 138.809 9.19409 139.275 9.19409 139.852V146.041C9.19409 146.618 8.72721 147.085 8.15079 147.085H1.9614C1.38498 147.085 0.918104 146.618 0.918104 146.041V139.852C0.918104 139.275 1.38498 138.809 1.9614 138.809Z" fill="var(--fill-0, white)"/>
<path id="Vector_67" d="M138.934 148H146.957C147.533 148 148 147.533 148 146.957V138.934C148 138.357 147.533 137.89 146.957 137.89H138.934C138.357 137.89 137.89 138.357 137.89 138.934V146.957C137.89 147.533 138.357 148 138.934 148ZM139.852 138.809H146.041C146.618 138.809 147.085 139.275 147.085 139.852V146.041C147.085 146.618 146.618 147.085 146.041 147.085H139.852C139.275 147.085 138.809 146.618 138.809 146.041V139.852C138.809 139.275 139.275 138.809 139.852 138.809Z" fill="var(--fill-0, white)"/>
</g>
<path id="Vector_68" d="M147.215 138.678V146.172C147.215 146.748 146.748 147.215 146.172 147.215H139.721C139.145 147.215 138.678 146.748 138.678 146.172V139.721C138.678 139.145 139.145 138.678 139.721 138.678H147.215ZM147.87 138.021H139.064C138.488 138.021 138.021 138.488 138.021 139.064V146.826C138.021 147.403 138.488 147.87 139.064 147.87H146.826C147.403 147.87 147.87 147.403 147.87 146.826V138.021Z" fill="var(--fill-0, white)"/>
</g>
<defs>
<clipPath id="clip0_1153_3004">
<rect width="148" height="148" fill="white"/>
</clipPath>
</defs>
</svg>
