<svg preserveAspectRatio="xMidYMid meet" style="display: block;" viewBox="0 0 111 111" fill="none" xmlns="http://www.w3.org/2000/svg">
<g id="Layer_2" clip-path="url(#clip0_1158_3114)">
<path id="Vector" d="M6.99337 0.590769V6.2109C6.99337 6.64322 6.64322 6.99337 6.2109 6.99337H1.37324C0.940927 6.99337 0.590769 6.64322 0.590769 6.2109V1.37324C0.590769 0.940927 0.940927 0.590769 1.37324 0.590769H6.99337ZM7.48438 0.0978094H0.684666C0.359939 0.0978094 0.0978094 0.359939 0.0978094 0.684666V6.7019C0.0978094 7.13422 0.447967 7.48438 0.880285 7.48438H6.7019C7.13422 7.48438 7.48438 7.13422 7.48438 6.7019V0.0978094Z" fill="var(--fill-0, white)"/>
<path id="Vector_2" d="M51.3147 0.590769V6.2109C51.3147 6.64322 50.9646 6.99337 50.5323 6.99337H45.6946C45.2623 6.99337 44.9121 6.64322 44.9121 6.2109V1.37324C44.9121 0.940927 45.2623 0.590769 45.6946 0.590769H51.3147ZM51.8077 0.0978094H45.008C44.6833 0.0978094 44.4211 0.359939 44.4211 0.684666V6.7019C44.4211 7.13422 44.7713 7.48438 45.2036 7.48438H51.0252C51.4575 7.48438 51.8077 7.13422 51.8077 6.7019V0.0978094Z" fill="var(--fill-0, white)"/>
<path id="Vector_3" d="M66.0879 0.590769V6.2109C66.0879 6.64322 65.7377 6.99337 65.3054 6.99337H60.4677C60.0354 6.99337 59.6853 6.64322 59.6853 6.2109V1.37324C59.6853 0.940927 60.0354 0.590769 60.4677 0.590769H66.0879ZM66.5808 0.0978094H59.7811C59.4564 0.0978094 59.1943 0.359939 59.1943 0.684666V6.7019C59.1943 7.13422 59.5444 7.48438 59.9767 7.48438H65.7984C66.2307 7.48438 66.5808 7.13422 66.5808 6.7019V0.0978094Z" fill="var(--fill-0, white)"/>
<path id="Vector_4" d="M110.411 0.590769V6.2109C110.411 6.64322 110.061 6.99337 109.629 6.99337H104.791C104.359 6.99337 104.009 6.64322 104.009 6.2109V1.37324C104.009 0.940927 104.359 0.590769 104.791 0.590769H110.411ZM110.902 0.0978094H104.102C103.778 0.0978094 103.516 0.359939 103.516 0.684666V6.7019C103.516 7.13422 103.866 7.48438 104.298 7.48438H110.12C110.552 7.48438 110.902 7.13422 110.902 6.7019V0.0978094Z" fill="var(--fill-0, white)"/>
<path id="Vector_5" d="M28.8636 7.48438H23.0419C22.6098 7.48438 22.2595 7.8347 22.2595 8.26685V14.0885C22.2595 14.5206 22.6098 14.8709 23.0419 14.8709H28.8636C29.2957 14.8709 29.646 14.5206 29.646 14.0885V8.26685C29.646 7.8347 29.2957 7.48438 28.8636 7.48438Z" fill="var(--fill-0, white)"/>
<path id="Vector_6" d="M58.4118 7.48438H52.5902C52.158 7.48438 51.8077 7.8347 51.8077 8.26685V14.0885C51.8077 14.5206 52.158 14.8709 52.5902 14.8709H58.4118C58.8439 14.8709 59.1943 14.5206 59.1943 14.0885V8.26685C59.1943 7.8347 58.8439 7.48438 58.4118 7.48438Z" fill="var(--fill-0, white)"/>
<path id="Vector_7" d="M87.9581 7.48438H82.1364C81.7043 7.48438 81.354 7.8347 81.354 8.26685V14.0885C81.354 14.5206 81.7043 14.8709 82.1364 14.8709H87.9581C88.3902 14.8709 88.7405 14.5206 88.7405 14.0885V8.26685C88.7405 7.8347 88.3902 7.48438 87.9581 7.48438Z" fill="var(--fill-0, white)"/>
<path id="Vector_8" d="M21.7665 15.3639V20.984C21.7665 21.4164 21.4164 21.7665 20.984 21.7665H16.1464C15.7141 21.7665 15.3639 21.4164 15.3639 20.984V16.1464C15.3639 15.7141 15.7141 15.3639 16.1464 15.3639H21.7665ZM22.2595 14.8709H15.6554C15.2231 14.8709 14.8729 15.2211 14.8729 15.6534V21.475C14.8729 21.9074 15.2231 22.2575 15.6554 22.2575H21.477C21.9093 22.2575 22.2595 21.9074 22.2595 21.475V14.8709Z" fill="var(--fill-0, white)"/>
<path id="Vector_9" d="M36.2501 14.8709H30.4285C29.9964 14.8709 29.646 15.2213 29.646 15.6534V21.475C29.646 21.9072 29.9964 22.2575 30.4285 22.2575H36.2501C36.6823 22.2575 37.0326 21.9072 37.0326 21.475V15.6534C37.0326 15.2213 36.6823 14.8709 36.2501 14.8709Z" fill="var(--fill-0, white)"/>
<path id="Vector_10" d="M80.5715 14.8709H74.7499C74.3177 14.8709 73.9674 15.2213 73.9674 15.6534V21.475C73.9674 21.9072 74.3177 22.2575 74.7499 22.2575H80.5715C81.0036 22.2575 81.354 21.9072 81.354 21.475V15.6534C81.354 15.2213 81.0036 14.8709 80.5715 14.8709Z" fill="var(--fill-0, white)"/>
<path id="Vector_11" d="M95.6361 15.3639V20.984C95.6361 21.4164 95.2859 21.7665 94.8536 21.7665H90.016C89.5836 21.7665 89.2335 21.4164 89.2335 20.984V16.1464C89.2335 15.7141 89.5836 15.3639 90.016 15.3639H95.6361ZM96.129 14.8709H89.525C89.0926 14.8709 88.7425 15.2211 88.7425 15.6534V21.475C88.7425 21.9074 89.0926 22.2575 89.525 22.2575H95.3466C95.7789 22.2575 96.129 21.9074 96.129 21.475V14.8709Z" fill="var(--fill-0, white)"/>
<path id="Vector_12" d="M28.8636 22.2595H23.0419C22.6098 22.2595 22.2595 22.6098 22.2595 23.0419V28.8636C22.2595 29.2957 22.6098 29.646 23.0419 29.646H28.8636C29.2957 29.646 29.646 29.2957 29.646 28.8636V23.0419C29.646 22.6098 29.2957 22.2595 28.8636 22.2595Z" fill="var(--fill-0, white)"/>
<path id="Vector_13" d="M87.9581 22.2595H82.1364C81.7043 22.2595 81.354 22.6098 81.354 23.0419V28.8636C81.354 29.2957 81.7043 29.646 82.1364 29.646H87.9581C88.3902 29.646 88.7405 29.2957 88.7405 28.8636V23.0419C88.7405 22.6098 88.3902 22.2595 87.9581 22.2595Z" fill="var(--fill-0, white)"/>
<path id="Vector_14" d="M21.475 29.646H15.6534C15.2213 29.646 14.8709 29.9964 14.8709 30.4285V36.2501C14.8709 36.6823 15.2213 37.0326 15.6534 37.0326H21.475C21.9072 37.0326 22.2575 36.6823 22.2575 36.2501V30.4285C22.2575 29.9964 21.9072 29.646 21.475 29.646Z" fill="var(--fill-0, white)"/>
<path id="Vector_15" d="M51.0233 29.646H45.2016C44.7695 29.646 44.4192 29.9964 44.4192 30.4285V36.2501C44.4192 36.6823 44.7695 37.0326 45.2016 37.0326H51.0233C51.4554 37.0326 51.8057 36.6823 51.8057 36.2501V30.4285C51.8057 29.9964 51.4554 29.646 51.0233 29.646Z" fill="var(--fill-0, white)"/>
<path id="Vector_16" d="M65.7984 29.646H59.9767C59.5446 29.646 59.1943 29.9964 59.1943 30.4285V36.2501C59.1943 36.6823 59.5446 37.0326 59.9767 37.0326H65.7984C66.2305 37.0326 66.5808 36.6823 66.5808 36.2501V30.4285C66.5808 29.9964 66.2305 29.646 65.7984 29.646Z" fill="var(--fill-0, white)"/>
<path id="Vector_17" d="M95.3466 29.646H89.525C89.0928 29.646 88.7425 29.9964 88.7425 30.4285V36.2501C88.7425 36.6823 89.0928 37.0326 89.525 37.0326H95.3466C95.7787 37.0326 96.129 36.6823 96.129 36.2501V30.4285C96.129 29.9964 95.7787 29.646 95.3466 29.646Z" fill="var(--fill-0, white)"/>
<path id="Vector_18" d="M21.475 37.0326H15.6534C15.2213 37.0326 14.8709 37.3829 14.8709 37.8151V43.6367C14.8709 44.0688 15.2213 44.4192 15.6534 44.4192H21.475C21.9072 44.4192 22.2575 44.0688 22.2575 43.6367V37.8151C22.2575 37.3829 21.9072 37.0326 21.475 37.0326Z" fill="var(--fill-0, white)"/>
<path id="Vector_19" d="M95.3466 37.0326H89.525C89.0928 37.0326 88.7425 37.3829 88.7425 37.8151V43.6367C88.7425 44.0688 89.0928 44.4192 89.525 44.4192H95.3466C95.7787 44.4192 96.129 44.0688 96.129 43.6367V37.8151C96.129 37.3829 95.7787 37.0326 95.3466 37.0326Z" fill="var(--fill-0, white)"/>
<path id="Vector_20" d="M6.7019 44.4192H0.880285C0.448136 44.4192 0.0978094 44.7695 0.0978094 45.2016V51.0233C0.0978094 51.4554 0.448136 51.8057 0.880285 51.8057H6.7019C7.13405 51.8057 7.48438 51.4554 7.48438 51.0233V45.2016C7.48438 44.7695 7.13405 44.4192 6.7019 44.4192Z" fill="var(--fill-0, white)"/>
<path id="Vector_21" d="M21.475 44.4192H15.6534C15.2213 44.4192 14.8709 44.7695 14.8709 45.2016V51.0233C14.8709 51.4554 15.2213 51.8057 15.6534 51.8057H21.475C21.9072 51.8057 22.2575 51.4554 22.2575 51.0233V45.2016C22.2575 44.7695 21.9072 44.4192 21.475 44.4192Z" fill="var(--fill-0, white)"/>
<path id="Vector_22" d="M95.3466 44.4192H89.525C89.0928 44.4192 88.7425 44.7695 88.7425 45.2016V51.0233C88.7425 51.4554 89.0928 51.8057 89.525 51.8057H95.3466C95.7787 51.8057 96.129 51.4554 96.129 51.0233V45.2016C96.129 44.7695 95.7787 44.4192 95.3466 44.4192Z" fill="var(--fill-0, white)"/>
<path id="Vector_23" d="M110.12 44.4192H104.298C103.866 44.4192 103.516 44.7695 103.516 45.2016V51.0233C103.516 51.4554 103.866 51.8057 104.298 51.8057H110.12C110.552 51.8057 110.902 51.4554 110.902 51.0233V45.2016C110.902 44.7695 110.552 44.4192 110.12 44.4192Z" fill="var(--fill-0, white)"/>
<path id="Vector_24" d="M14.0885 51.8077H8.26685C7.8347 51.8077 7.48438 52.158 7.48438 52.5902V58.4118C7.48438 58.8439 7.8347 59.1943 8.26685 59.1943H14.0885C14.5206 59.1943 14.8709 58.8439 14.8709 58.4118V52.5902C14.8709 52.158 14.5206 51.8077 14.0885 51.8077Z" fill="var(--fill-0, white)"/>
<path id="Vector_25" d="M21.475 51.8077H15.6534C15.2213 51.8077 14.8709 52.158 14.8709 52.5902V58.4118C14.8709 58.8439 15.2213 59.1943 15.6534 59.1943H21.475C21.9072 59.1943 22.2575 58.8439 22.2575 58.4118V52.5902C22.2575 52.158 21.9072 51.8077 21.475 51.8077Z" fill="var(--fill-0, white)"/>
<path id="Vector_26" d="M36.2501 51.8077H30.4285C29.9964 51.8077 29.646 52.158 29.646 52.5902V58.4118C29.646 58.8439 29.9964 59.1943 30.4285 59.1943H36.2501C36.6823 59.1943 37.0326 58.8439 37.0326 58.4118V52.5902C37.0326 52.158 36.6823 51.8077 36.2501 51.8077Z" fill="var(--fill-0, white)"/>
<path id="Vector_27" d="M58.7013 52.2987V57.9188C58.7013 58.3511 58.3511 58.7013 57.9188 58.7013H53.0812C52.6489 58.7013 52.2987 58.3511 52.2987 57.9188V53.0812C52.2987 52.6489 52.6489 52.2987 53.0812 52.2987H58.7013ZM59.1943 51.8077H52.5902C52.1579 51.8077 51.8077 52.1579 51.8077 52.5902V58.4118C51.8077 58.8441 52.1579 59.1943 52.5902 59.1943H58.4118C58.8441 59.1943 59.1943 58.8441 59.1943 58.4118V51.8077Z" fill="var(--fill-0, white)"/>
<path id="Vector_28" d="M80.5715 51.8077H74.7499C74.3177 51.8077 73.9674 52.158 73.9674 52.5902V58.4118C73.9674 58.8439 74.3177 59.1943 74.7499 59.1943H80.5715C81.0036 59.1943 81.354 58.8439 81.354 58.4118V52.5902C81.354 52.158 81.0036 51.8077 80.5715 51.8077Z" fill="var(--fill-0, white)"/>
<path id="Vector_29" d="M95.3466 51.8077H89.525C89.0928 51.8077 88.7425 52.158 88.7425 52.5902V58.4118C88.7425 58.8439 89.0928 59.1943 89.525 59.1943H95.3466C95.7787 59.1943 96.129 58.8439 96.129 58.4118V52.5902C96.129 52.158 95.7787 51.8077 95.3466 51.8077Z" fill="var(--fill-0, white)"/>
<path id="Vector_30" d="M102.733 51.8077H96.9115C96.4794 51.8077 96.1291 52.158 96.1291 52.5902V58.4118C96.1291 58.8439 96.4794 59.1943 96.9115 59.1943H102.733C103.165 59.1943 103.516 58.8439 103.516 58.4118V52.5902C103.516 52.158 103.165 51.8077 102.733 51.8077Z" fill="var(--fill-0, white)"/>
<path id="Vector_31" d="M6.7019 59.1943H0.880285C0.448136 59.1943 0.0978094 59.5446 0.0978094 59.9767V65.7984C0.0978094 66.2305 0.448136 66.5808 0.880285 66.5808H6.7019C7.13405 66.5808 7.48438 66.2305 7.48438 65.7984V59.9767C7.48438 59.5446 7.13405 59.1943 6.7019 59.1943Z" fill="var(--fill-0, white)"/>
<path id="Vector_32" d="M21.475 59.1943H15.6534C15.2213 59.1943 14.8709 59.5446 14.8709 59.9767V65.7984C14.8709 66.2305 15.2213 66.5808 15.6534 66.5808H21.475C21.9072 66.5808 22.2575 66.2305 22.2575 65.7984V59.9767C22.2575 59.5446 21.9072 59.1943 21.475 59.1943Z" fill="var(--fill-0, white)"/>
<path id="Vector_33" d="M95.3466 59.1943H89.525C89.0928 59.1943 88.7425 59.5446 88.7425 59.9767V65.7984C88.7425 66.2305 89.0928 66.5808 89.525 66.5808H95.3466C95.7787 66.5808 96.129 66.2305 96.129 65.7984V59.9767C96.129 59.5446 95.7787 59.1943 95.3466 59.1943Z" fill="var(--fill-0, white)"/>
<path id="Vector_34" d="M110.12 59.1943H104.298C103.866 59.1943 103.516 59.5446 103.516 59.9767V65.7984C103.516 66.2305 103.866 66.5808 104.298 66.5808H110.12C110.552 66.5808 110.902 66.2305 110.902 65.7984V59.9767C110.902 59.5446 110.552 59.1943 110.12 59.1943Z" fill="var(--fill-0, white)"/>
<path id="Vector_35" d="M21.475 66.5808H15.6534C15.2213 66.5808 14.8709 66.9312 14.8709 67.3633V73.1849C14.8709 73.6171 15.2213 73.9674 15.6534 73.9674H21.475C21.9072 73.9674 22.2575 73.6171 22.2575 73.1849V67.3633C22.2575 66.9312 21.9072 66.5808 21.475 66.5808Z" fill="var(--fill-0, white)"/>
<path id="Vector_36" d="M95.3466 66.5808H89.525C89.0928 66.5808 88.7425 66.9312 88.7425 67.3633V73.1849C88.7425 73.6171 89.0928 73.9674 89.525 73.9674H95.3466C95.7787 73.9674 96.129 73.6171 96.129 73.1849V67.3633C96.129 66.9312 95.7787 66.5808 95.3466 66.5808Z" fill="var(--fill-0, white)"/>
<path id="Vector_37" d="M21.475 73.9674H15.6534C15.2213 73.9674 14.8709 74.3177 14.8709 74.7499V80.5715C14.8709 81.0036 15.2213 81.354 15.6534 81.354H21.475C21.9072 81.354 22.2575 81.0036 22.2575 80.5715V74.7499C22.2575 74.3177 21.9072 73.9674 21.475 73.9674Z" fill="var(--fill-0, white)"/>
<path id="Vector_38" d="M51.0233 73.9674H45.2016C44.7695 73.9674 44.4192 74.3177 44.4192 74.7499V80.5715C44.4192 81.0036 44.7695 81.354 45.2016 81.354H51.0233C51.4554 81.354 51.8057 81.0036 51.8057 80.5715V74.7499C51.8057 74.3177 51.4554 73.9674 51.0233 73.9674Z" fill="var(--fill-0, white)"/>
<path id="Vector_39" d="M65.7984 73.9674H59.9767C59.5446 73.9674 59.1943 74.3177 59.1943 74.7499V80.5715C59.1943 81.0036 59.5446 81.354 59.9767 81.354H65.7984C66.2305 81.354 66.5808 81.0036 66.5808 80.5715V74.7499C66.5808 74.3177 66.2305 73.9674 65.7984 73.9674Z" fill="var(--fill-0, white)"/>
<path id="Vector_40" d="M95.3466 73.9674H89.525C89.0928 73.9674 88.7425 74.3177 88.7425 74.7499V80.5715C88.7425 81.0036 89.0928 81.354 89.525 81.354H95.3466C95.7787 81.354 96.129 81.0036 96.129 80.5715V74.7499C96.129 74.3177 95.7787 73.9674 95.3466 73.9674Z" fill="var(--fill-0, white)"/>
<path id="Vector_41" d="M28.8636 81.3559H23.0419C22.6098 81.3559 22.2595 81.7063 22.2595 82.1384V87.96C22.2595 88.3922 22.6098 88.7425 23.0419 88.7425H28.8636C29.2957 88.7425 29.646 88.3922 29.646 87.96V82.1384C29.646 81.7063 29.2957 81.3559 28.8636 81.3559Z" fill="var(--fill-0, white)"/>
<path id="Vector_42" d="M87.9581 81.3559H82.1364C81.7043 81.3559 81.354 81.7063 81.354 82.1384V87.96C81.354 88.3922 81.7043 88.7425 82.1364 88.7425H87.9581C88.3902 88.7425 88.7405 88.3922 88.7405 87.96V82.1384C88.7405 81.7063 88.3902 81.3559 87.9581 81.3559Z" fill="var(--fill-0, white)"/>
<path id="Vector_43" d="M21.7665 89.2335V94.8536C21.7665 95.2859 21.4164 95.6361 20.984 95.6361H16.1464C15.7141 95.6361 15.3639 95.2859 15.3639 94.8536V90.016C15.3639 89.5836 15.7141 89.2335 16.1464 89.2335H21.7665ZM22.2595 88.7425H15.6554C15.2231 88.7425 14.8729 89.0926 14.8729 89.525V95.3466C14.8729 95.7789 15.2231 96.129 15.6554 96.129H21.477C21.9093 96.129 22.2595 95.7789 22.2595 95.3466V88.7425Z" fill="var(--fill-0, white)"/>
<path id="Vector_44" d="M36.2501 88.7425H30.4285C29.9964 88.7425 29.646 89.0928 29.646 89.525V95.3466C29.646 95.7787 29.9964 96.129 30.4285 96.129H36.2501C36.6823 96.129 37.0326 95.7787 37.0326 95.3466V89.525C37.0326 89.0928 36.6823 88.7425 36.2501 88.7425Z" fill="var(--fill-0, white)"/>
<path id="Vector_45" d="M80.5715 88.7425H74.7499C74.3177 88.7425 73.9674 89.0928 73.9674 89.525V95.3466C73.9674 95.7787 74.3177 96.129 74.7499 96.129H80.5715C81.0036 96.129 81.354 95.7787 81.354 95.3466V89.525C81.354 89.0928 81.0036 88.7425 80.5715 88.7425Z" fill="var(--fill-0, white)"/>
<path id="Vector_46" d="M95.6361 89.2335V94.8536C95.6361 95.2859 95.2859 95.6361 94.8536 95.6361H90.016C89.5836 95.6361 89.2335 95.2859 89.2335 94.8536V90.016C89.2335 89.5836 89.5836 89.2335 90.016 89.2335H95.6361ZM96.129 88.7425H89.525C89.0926 88.7425 88.7425 89.0926 88.7425 89.525V95.3466C88.7425 95.7789 89.0926 96.129 89.525 96.129H95.3466C95.7789 96.129 96.129 95.7789 96.129 95.3466V88.7425Z" fill="var(--fill-0, white)"/>
<path id="Vector_47" d="M28.8636 96.1291H23.0419C22.6098 96.1291 22.2595 96.4794 22.2595 96.9115V102.733C22.2595 103.165 22.6098 103.516 23.0419 103.516H28.8636C29.2957 103.516 29.646 103.165 29.646 102.733V96.9115C29.646 96.4794 29.2957 96.1291 28.8636 96.1291Z" fill="var(--fill-0, white)"/>
<path id="Vector_48" d="M58.4118 96.1291H52.5902C52.158 96.1291 51.8077 96.4794 51.8077 96.9115V102.733C51.8077 103.165 52.158 103.516 52.5902 103.516H58.4118C58.8439 103.516 59.1943 103.165 59.1943 102.733V96.9115C59.1943 96.4794 58.8439 96.1291 58.4118 96.1291Z" fill="var(--fill-0, white)"/>
<path id="Vector_49" d="M87.9581 96.1291H82.1364C81.7043 96.1291 81.354 96.4794 81.354 96.9115V102.733C81.354 103.165 81.7043 103.516 82.1364 103.516H87.9581C88.3902 103.516 88.7405 103.165 88.7405 102.733V96.9115C88.7405 96.4794 88.3902 96.1291 87.9581 96.1291Z" fill="var(--fill-0, white)"/>
<path id="Vector_50" d="M6.99337 104.009V109.629C6.99337 110.061 6.64322 110.411 6.2109 110.411H1.37324C0.940927 110.411 0.590769 110.061 0.590769 109.629V104.791C0.590769 104.359 0.940927 104.009 1.37324 104.009H6.99337ZM7.48438 103.516H0.880285C0.447967 103.516 0.0978094 103.866 0.0978094 104.298V110.12C0.0978094 110.552 0.447967 110.902 0.880285 110.902H6.7019C7.13422 110.902 7.48438 110.552 7.48438 110.12V103.516Z" fill="var(--fill-0, white)"/>
<path id="Vector_51" d="M51.3147 104.009V109.629C51.3147 110.061 50.9646 110.411 50.5323 110.411H45.6946C45.2623 110.411 44.9121 110.061 44.9121 109.629V104.791C44.9121 104.359 45.2623 104.009 45.6946 104.009H51.3147ZM51.8077 103.516H45.2036C44.7713 103.516 44.4211 103.866 44.4211 104.298V110.12C44.4211 110.552 44.7713 110.902 45.2036 110.902H51.0252C51.4575 110.902 51.8077 110.552 51.8077 110.12V103.516Z" fill="var(--fill-0, white)"/>
<path id="Vector_52" d="M66.0879 104.009V109.629C66.0879 110.061 65.7377 110.411 65.3054 110.411H60.4677C60.0354 110.411 59.6853 110.061 59.6853 109.629V104.791C59.6853 104.359 60.0354 104.009 60.4677 104.009H66.0879ZM66.5808 103.516H59.9767C59.5444 103.516 59.1943 103.866 59.1943 104.298V110.12C59.1943 110.552 59.5444 110.902 59.9767 110.902H65.7984C66.2307 110.902 66.5808 110.552 66.5808 110.12V103.516Z" fill="var(--fill-0, white)"/>
<g id="Group">
<path id="Vector_53" d="M6.99533 0H0.586857C0.262129 0 0 0.262129 0 0.586857V6.79971C0 7.23203 0.350158 7.58219 0.782475 7.58219H6.79971C7.23203 7.58219 7.58219 7.23203 7.58219 6.79971V0.586857C7.58219 0.262129 7.32006 0 6.99533 0ZM6.11309 6.89556H1.47105C1.03874 6.89556 0.688578 6.54541 0.688578 6.11309V1.47105C0.688578 1.03874 1.03874 0.688578 1.47105 0.688578H6.11309C6.54541 0.688578 6.89556 1.03874 6.89556 1.47105V6.11309C6.89556 6.54541 6.54541 6.89556 6.11309 6.89556Z" fill="var(--fill-0, white)"/>
<path id="Vector_54" d="M58.314 7.38657H52.688C52.2557 7.38657 51.9055 7.03641 51.9055 6.60409V0.586857C51.9055 0.262129 51.6434 0 51.3186 0H44.9102C44.5854 0 44.3233 0.262129 44.3233 0.586857V6.79971C44.3233 7.23203 44.6735 7.58219 45.1058 7.58219H50.9274C51.3597 7.58219 51.7099 7.93234 51.7099 8.36466V14.1863C51.7099 14.6186 52.06 14.9688 52.4924 14.9688H58.5096C58.9419 14.9688 59.2921 14.6186 59.2921 14.1863V8.36466C59.2921 7.93234 59.6422 7.58219 60.0745 7.58219H65.8962C66.3285 7.58219 66.6786 7.23203 66.6786 6.79971V0.586857C66.6786 0.262129 66.4165 0 66.0918 0H59.6833C59.3586 0 59.0965 0.262129 59.0965 0.586857V6.60409C59.0965 7.03641 58.7463 7.38657 58.314 7.38657ZM50.4345 6.89556H45.7924C45.3601 6.89556 45.0099 6.54541 45.0099 6.11309V1.47105C45.0099 1.03874 45.3601 0.688578 45.7924 0.688578H50.4345C50.8668 0.688578 51.2169 1.03874 51.2169 1.47105V6.11309C51.2169 6.54541 50.8668 6.89556 50.4345 6.89556ZM60.5655 0.688578H65.2076C65.6399 0.688578 65.9901 1.03874 65.9901 1.47105V6.11309C65.9901 6.54541 65.6399 6.89556 65.2076 6.89556H60.5655C60.1332 6.89556 59.7831 6.54541 59.7831 6.11309V1.47105C59.7831 1.03874 60.1332 0.688578 60.5655 0.688578Z" fill="var(--fill-0, white)"/>
<path id="Vector_55" d="M110.413 0H104.005C103.68 0 103.418 0.262129 103.418 0.586857V6.79971C103.418 7.23203 103.768 7.58219 104.2 7.58219H110.218C110.65 7.58219 111 7.23203 111 6.79971V0.586857C111 0.262129 110.738 0 110.413 0ZM109.531 6.89556H104.889C104.457 6.89556 104.106 6.54541 104.106 6.11309V1.47105C104.106 1.03874 104.457 0.688578 104.889 0.688578H109.531C109.963 0.688578 110.313 1.03874 110.313 1.47105V6.11309C110.313 6.54541 109.963 6.89556 109.531 6.89556Z" fill="var(--fill-0, white)"/>
<path id="Vector_56" d="M28.9614 7.38657H22.9441C22.5118 7.38657 22.1617 7.73672 22.1617 8.16904V13.9907C22.1617 14.423 21.8115 14.7731 21.3792 14.7731H15.5576C15.1252 14.7731 14.7751 15.1233 14.7751 15.5556V21.5728C14.7751 22.0052 15.1252 22.3553 15.5576 22.3553H21.3792C21.8115 22.3553 22.1617 22.7055 22.1617 23.1378V28.7638C22.1617 29.1961 21.8115 29.5463 21.3792 29.5463H15.5576C15.1252 29.5463 14.7751 29.8964 14.7751 30.3287V50.9255C14.7751 51.3578 14.4249 51.7079 13.9926 51.7079H8.36662C7.9343 51.7079 7.58414 51.3578 7.58414 50.9255V45.1038C7.58414 44.6715 7.23398 44.3214 6.80167 44.3214H0.782475C0.350158 44.3214 0 44.6715 0 45.1038V51.1211C0 51.5534 0.350158 51.9035 0.782475 51.9035H6.60409C7.03641 51.9035 7.38657 52.2537 7.38657 52.686V58.312C7.38657 58.7443 7.03641 59.0945 6.60409 59.0945H0.782475C0.350158 59.0945 0 59.4446 0 59.877V65.8942C0 66.3265 0.350158 66.6767 0.782475 66.6767H6.79971C7.23203 66.6767 7.58219 66.3265 7.58219 65.8942V60.0726C7.58219 59.6403 7.93234 59.2901 8.36466 59.2901H13.9907C14.423 59.2901 14.7731 59.6403 14.7731 60.0726V80.6693C14.7731 81.1016 15.1233 81.4518 15.5556 81.4518H21.3772C21.8095 81.4518 22.1597 81.8019 22.1597 82.2342V87.8602C22.1597 88.2926 21.8095 88.6427 21.3772 88.6427H15.5556C15.1233 88.6427 14.7731 88.9929 14.7731 89.4252V95.4424C14.7731 95.8747 15.1233 96.2249 15.5556 96.2249H21.3772C21.8095 96.2249 22.1597 96.5751 22.1597 97.0074V102.829C22.1597 103.261 22.5099 103.611 22.9422 103.611H28.9594C29.3917 103.611 29.7419 103.261 29.7419 102.829V97.0074C29.7419 96.5751 30.092 96.2249 30.5244 96.2249H36.346C36.7783 96.2249 37.1285 95.8747 37.1285 95.4424V89.4252C37.1285 88.9929 36.7783 88.6427 36.346 88.6427H30.5244C30.092 88.6427 29.7419 88.2926 29.7419 87.8602V82.0386C29.7419 81.6063 29.3917 81.2562 28.9594 81.2562H23.1378C22.7055 81.2562 22.3553 80.906 22.3553 80.4737V30.5244C22.3553 30.092 22.7055 29.7419 23.1378 29.7419H28.9594C29.3917 29.7419 29.7419 29.3917 29.7419 28.9594V23.1378C29.7419 22.7055 30.092 22.3553 30.5244 22.3553H36.346C36.7783 22.3553 37.1285 22.0052 37.1285 21.5728V15.5556C37.1285 15.1233 36.7783 14.7731 36.346 14.7731H30.5244C30.092 14.7731 29.7419 14.423 29.7419 13.9907V8.16904C29.7419 7.73672 29.3917 7.38657 28.9594 7.38657H28.9614ZM29.5482 89.6228V95.2488C29.5482 95.6811 29.1981 96.0312 28.7658 96.0312H23.1398C22.7074 96.0312 22.3573 95.6811 22.3573 95.2488V89.6228C22.3573 89.1904 22.7074 88.8403 23.1398 88.8403H28.7658C29.1981 88.8403 29.5482 89.1904 29.5482 89.6228ZM20.8862 95.5383H16.2442C15.8119 95.5383 15.4617 95.1881 15.4617 94.7558V90.1138C15.4617 89.6815 15.8119 89.3313 16.2442 89.3313H20.8862C21.3185 89.3313 21.6687 89.6815 21.6687 90.1138V94.7558C21.6687 95.1881 21.3185 95.5383 20.8862 95.5383ZM29.5482 15.7512V21.3772C29.5482 21.8095 29.1981 22.1597 28.7658 22.1597H23.1398C22.7074 22.1597 22.3573 21.8095 22.3573 21.3772V15.7512C22.3573 15.3189 22.7074 14.9688 23.1398 14.9688H28.7658C29.1981 14.9688 29.5482 15.3189 29.5482 15.7512ZM20.8862 21.6687H16.2442C15.8119 21.6687 15.4617 21.3185 15.4617 20.8862V16.2442C15.4617 15.8119 15.8119 15.4617 16.2442 15.4617H20.8862C21.3185 15.4617 21.6687 15.8119 21.6687 16.2442V20.8862C21.6687 21.3185 21.3185 21.6687 20.8862 21.6687Z" fill="var(--fill-0, white)"/>
<path id="Vector_57" d="M51.1211 29.5482H45.1038C44.6717 29.5482 44.3214 29.8986 44.3214 30.3307V36.3479C44.3214 36.7801 44.6717 37.1304 45.1038 37.1304H51.1211C51.5532 37.1304 51.9035 36.7801 51.9035 36.3479V30.3307C51.9035 29.8986 51.5532 29.5482 51.1211 29.5482Z" fill="var(--fill-0, white)"/>
<path id="Vector_58" d="M65.8962 29.5482H59.8789C59.4468 29.5482 59.0965 29.8986 59.0965 30.3307V36.3479C59.0965 36.7801 59.4468 37.1304 59.8789 37.1304H65.8962C66.3283 37.1304 66.6786 36.7801 66.6786 36.3479V30.3307C66.6786 29.8986 66.3283 29.5482 65.8962 29.5482Z" fill="var(--fill-0, white)"/>
<path id="Vector_59" d="M111 51.123V45.1058C111 44.6735 110.65 44.3233 110.218 44.3233H104.2C103.768 44.3233 103.418 44.6735 103.418 45.1058V50.9274C103.418 51.3597 103.068 51.7099 102.635 51.7099H97.0093C96.577 51.7099 96.2269 51.3597 96.2269 50.9274V30.3307C96.2269 29.8984 95.8767 29.5482 95.4444 29.5482H89.6228C89.1905 29.5482 88.8403 29.1981 88.8403 28.7657V23.1398C88.8403 22.7074 89.1905 22.3573 89.6228 22.3573H95.4444C95.8767 22.3573 96.2269 22.0071 96.2269 21.5748V15.5576C96.2269 15.1252 95.8767 14.7751 95.4444 14.7751H89.6228C89.1905 14.7751 88.8403 14.4249 88.8403 13.9926V8.171C88.8403 7.73868 88.4901 7.38852 88.0578 7.38852H82.0406C81.6083 7.38852 81.2581 7.73868 81.2581 8.171V13.9926C81.2581 14.4249 80.908 14.7751 80.4756 14.7751H74.654C74.2217 14.7751 73.8715 15.1252 73.8715 15.5576V21.5748C73.8715 22.0071 74.2217 22.3573 74.654 22.3573H80.4756C80.908 22.3573 81.2581 22.7074 81.2581 23.1398V28.9614C81.2581 29.3937 81.6083 29.7438 82.0406 29.7438H87.8622C88.2945 29.7438 88.6447 30.094 88.6447 30.5263V80.4756C88.6447 80.908 88.2945 81.2581 87.8622 81.2581H82.0406C81.6083 81.2581 81.2581 81.6083 81.2581 82.0406V87.8622C81.2581 88.2945 80.908 88.6447 80.4756 88.6447H74.654C74.2217 88.6447 73.8715 88.9948 73.8715 89.4271V95.4444C73.8715 95.8767 74.2217 96.2269 74.654 96.2269H80.4756C80.908 96.2269 81.2581 96.577 81.2581 97.0093V102.831C81.2581 103.263 81.6083 103.613 82.0406 103.613H88.0578C88.4901 103.613 88.8403 103.263 88.8403 102.831V97.0093C88.8403 96.577 89.1905 96.2269 89.6228 96.2269H95.4444C95.8767 96.2269 96.2269 95.8767 96.2269 95.4444V89.4271C96.2269 88.9948 95.8767 88.6447 95.4444 88.6447H89.6228C89.1905 88.6447 88.8403 88.2945 88.8403 87.8622V82.2362C88.8403 81.8039 89.1905 81.4537 89.6228 81.4537H95.4444C95.8767 81.4537 96.2269 81.1036 96.2269 80.6713V60.0745C96.2269 59.6422 96.577 59.2921 97.0093 59.2921H102.635C103.068 59.2921 103.418 59.6422 103.418 60.0745V65.8962C103.418 66.3285 103.768 66.6786 104.2 66.6786H110.218C110.65 66.6786 111 66.3285 111 65.8962V59.8789C111 59.4466 110.65 59.0965 110.218 59.0965H104.396C103.964 59.0965 103.613 58.7463 103.613 58.314V52.688C103.613 52.2557 103.964 51.9055 104.396 51.9055H110.218C110.65 51.9055 111 51.5553 111 51.123ZM81.4518 21.3792V15.7532C81.4518 15.3209 81.8019 14.9707 82.2342 14.9707H87.8602C88.2926 14.9707 88.6427 15.3209 88.6427 15.7532V21.3792C88.6427 21.8115 88.2926 22.1617 87.8602 22.1617H82.2342C81.8019 22.1617 81.4518 21.8115 81.4518 21.3792ZM90.1138 15.4617H94.7558C95.1881 15.4617 95.5383 15.8119 95.5383 16.2442V20.8862C95.5383 21.3185 95.1881 21.6687 94.7558 21.6687H90.1138C89.6815 21.6687 89.3313 21.3185 89.3313 20.8862V16.2442C89.3313 15.8119 89.6815 15.4617 90.1138 15.4617ZM88.6447 89.6228V95.2488C88.6447 95.6811 88.2945 96.0312 87.8622 96.0312H82.2362C81.8039 96.0312 81.4537 95.6811 81.4537 95.2488V89.6228C81.4537 89.1904 81.8039 88.8403 82.2362 88.8403H87.8622C88.2945 88.8403 88.6447 89.1904 88.6447 89.6228ZM90.1138 89.3313H94.7558C95.1881 89.3313 95.5383 89.6815 95.5383 90.1138V94.7558C95.5383 95.1881 95.1881 95.5383 94.7558 95.5383H90.1138C89.6815 95.5383 89.3313 95.1881 89.3313 94.7558V90.1138C89.3313 89.6815 89.6815 89.3313 90.1138 89.3313Z" fill="var(--fill-0, white)"/>
<path id="Vector_60" d="M36.3479 51.7099H30.3307C29.8986 51.7099 29.5482 52.0602 29.5482 52.4924V58.5096C29.5482 58.9417 29.8986 59.2921 30.3307 59.2921H36.3479C36.7801 59.2921 37.1304 58.9417 37.1304 58.5096V52.4924C37.1304 52.0602 36.7801 51.7099 36.3479 51.7099Z" fill="var(--fill-0, white)"/>
<path id="Vector_61" d="M52.4924 59.2921H58.5096C58.9419 59.2921 59.2921 58.9419 59.2921 58.5096V52.4924C59.2921 52.06 58.9419 51.7099 58.5096 51.7099H52.4924C52.06 51.7099 51.7099 52.06 51.7099 52.4924V58.5096C51.7099 58.9419 52.06 59.2921 52.4924 59.2921ZM53.179 52.3965H57.821C58.2533 52.3965 58.6035 52.7467 58.6035 53.179V57.821C58.6035 58.2533 58.2533 58.6035 57.821 58.6035H53.179C52.7467 58.6035 52.3965 58.2533 52.3965 57.821V53.179C52.3965 52.7467 52.7467 52.3965 53.179 52.3965Z" fill="var(--fill-0, white)"/>
<path id="Vector_62" d="M80.6693 51.7099H74.6521C74.2199 51.7099 73.8696 52.0602 73.8696 52.4924V58.5096C73.8696 58.9417 74.2199 59.2921 74.6521 59.2921H80.6693C81.1015 59.2921 81.4518 58.9417 81.4518 58.5096V52.4924C81.4518 52.0602 81.1015 51.7099 80.6693 51.7099Z" fill="var(--fill-0, white)"/>
<path id="Vector_63" d="M51.1211 73.8696H45.1038C44.6717 73.8696 44.3214 74.2199 44.3214 74.6521V80.6693C44.3214 81.1015 44.6717 81.4518 45.1038 81.4518H51.1211C51.5532 81.4518 51.9035 81.1015 51.9035 80.6693V74.6521C51.9035 74.2199 51.5532 73.8696 51.1211 73.8696Z" fill="var(--fill-0, white)"/>
<path id="Vector_64" d="M65.8962 73.8696H59.8789C59.4468 73.8696 59.0965 74.2199 59.0965 74.6521V80.6693C59.0965 81.1015 59.4468 81.4518 59.8789 81.4518H65.8962C66.3283 81.4518 66.6786 81.1015 66.6786 80.6693V74.6521C66.6786 74.2199 66.3283 73.8696 65.8962 73.8696Z" fill="var(--fill-0, white)"/>
<path id="Vector_65" d="M58.5096 96.0312H52.4924C52.06 96.0312 51.7099 96.3814 51.7099 96.8137V102.635C51.7099 103.068 51.3597 103.418 50.9274 103.418H45.1058C44.6735 103.418 44.3233 103.768 44.3233 104.2V110.218C44.3233 110.65 44.6735 111 45.1058 111H51.123C51.5553 111 51.9055 110.65 51.9055 110.218V104.396C51.9055 103.964 52.2557 103.613 52.688 103.613H58.314C58.7463 103.613 59.0965 103.964 59.0965 104.396V110.218C59.0965 110.65 59.4466 111 59.8789 111H65.8962C66.3285 111 66.6786 110.65 66.6786 110.218V104.2C66.6786 103.768 66.3285 103.418 65.8962 103.418H60.0745C59.6422 103.418 59.2921 103.068 59.2921 102.635V96.8137C59.2921 96.3814 58.9419 96.0312 58.5096 96.0312ZM50.4345 110.313H45.7924C45.3601 110.313 45.0099 109.963 45.0099 109.531V104.889C45.0099 104.457 45.3601 104.106 45.7924 104.106H50.4345C50.8668 104.106 51.2169 104.457 51.2169 104.889V109.531C51.2169 109.963 50.8668 110.313 50.4345 110.313ZM60.5655 104.106H65.2076C65.6399 104.106 65.9901 104.457 65.9901 104.889V109.531C65.9901 109.963 65.6399 110.313 65.2076 110.313H60.5655C60.1332 110.313 59.7831 109.963 59.7831 109.531V104.889C59.7831 104.457 60.1332 104.106 60.5655 104.106Z" fill="var(--fill-0, white)"/>
<path id="Vector_66" d="M0.782475 111H6.79971C7.23203 111 7.58219 110.65 7.58219 110.218V104.2C7.58219 103.768 7.23203 103.418 6.79971 103.418H0.782475C0.350158 103.418 0 103.768 0 104.2V110.218C0 110.65 0.350158 111 0.782475 111ZM1.47105 104.106H6.11309C6.54541 104.106 6.89556 104.457 6.89556 104.889V109.531C6.89556 109.963 6.54541 110.313 6.11309 110.313H1.47105C1.03874 110.313 0.688578 109.963 0.688578 109.531V104.889C0.688578 104.457 1.03874 104.106 1.47105 104.106Z" fill="var(--fill-0, white)"/>
<path id="Vector_67" d="M104.2 111H110.218C110.65 111 111 110.65 111 110.218V104.2C111 103.768 110.65 103.418 110.218 103.418H104.2C103.768 103.418 103.418 103.768 103.418 104.2V110.218C103.418 110.65 103.768 111 104.2 111ZM104.889 104.106H109.531C109.963 104.106 110.313 104.457 110.313 104.889V109.531C110.313 109.963 109.963 110.313 109.531 110.313H104.889C104.457 110.313 104.106 109.963 104.106 109.531V104.889C104.106 104.457 104.457 104.106 104.889 104.106Z" fill="var(--fill-0, white)"/>
</g>
<path id="Vector_68" d="M110.411 104.009V109.629C110.411 110.061 110.061 110.411 109.629 110.411H104.791C104.359 110.411 104.009 110.061 104.009 109.629V104.791C104.009 104.359 104.359 104.009 104.791 104.009H110.411ZM110.902 103.516H104.298C103.866 103.516 103.516 103.866 103.516 104.298V110.12C103.516 110.552 103.866 110.902 104.298 110.902H110.12C110.552 110.902 110.902 110.552 110.902 110.12V103.516Z" fill="var(--fill-0, white)"/>
</g>
<defs>
<clipPath id="clip0_1158_3114">
<rect width="111" height="111" fill="white"/>
</clipPath>
</defs>
</svg>
