<svg preserveAspectRatio="none" width="100%" height="100%" overflow="visible" style="display: block;" viewBox="0 0 85 85" fill="none" xmlns="http://www.w3.org/2000/svg">
<g id="Layer_2" clip-path="url(#clip0_0_62)">
<path id="Vector" d="M5.35529 0.452391V4.75609C5.35529 5.08715 5.08715 5.35529 4.75609 5.35529H1.05158C0.720529 5.35529 0.452391 5.08715 0.452391 4.75609V1.05158C0.452391 0.720529 0.720529 0.452391 1.05158 0.452391H5.35529ZM5.73128 0.0748991H0.524294C0.275629 0.0748991 0.0748991 0.275629 0.0748991 0.524294V5.13209C0.0748991 5.46314 0.343038 5.73128 0.674092 5.73128H5.13209C5.46314 5.73128 5.73128 5.46314 5.73128 5.13209V0.0748991Z" fill="var(--fill-0, white)"/>
<path id="Vector_2" d="M39.2951 0.452391V4.75609C39.2951 5.08715 39.0269 5.35529 38.6959 5.35529H34.9914C34.6603 5.35529 34.3922 5.08715 34.3922 4.75609V1.05158C34.3922 0.720529 34.6603 0.452391 34.9914 0.452391H39.2951ZM39.6726 0.0748991H34.4656C34.2169 0.0748991 34.0162 0.275629 34.0162 0.524294V5.13209C34.0162 5.46314 34.2843 5.73128 34.6154 5.73128H39.0734C39.4044 5.73128 39.6726 5.46314 39.6726 5.13209V0.0748991Z" fill="var(--fill-0, white)"/>
<path id="Vector_3" d="M50.6078 0.452391V4.75609C50.6078 5.08715 50.3397 5.35529 50.0086 5.35529H46.3041C45.9731 5.35529 45.7049 5.08715 45.7049 4.75609V1.05158C45.7049 0.720529 45.9731 0.452391 46.3041 0.452391H50.6078ZM50.9853 0.0748991H45.7783C45.5297 0.0748991 45.3289 0.275629 45.3289 0.524294V5.13209C45.3289 5.46314 45.5971 5.73128 45.9281 5.73128H50.3861C50.7172 5.73128 50.9853 5.46314 50.9853 5.13209V0.0748991Z" fill="var(--fill-0, white)"/>
<path id="Vector_4" d="M84.5491 0.452391V4.75609C84.5491 5.08715 84.281 5.35529 83.9499 5.35529H80.2454C79.9144 5.35529 79.6462 5.08715 79.6462 4.75609V1.05158C79.6462 0.720529 79.9144 0.452391 80.2454 0.452391H84.5491ZM84.9251 0.0748991H79.7181C79.4695 0.0748991 79.2687 0.275629 79.2687 0.524294V5.13209C79.2687 5.46314 79.5369 5.73128 79.8679 5.73128H84.3259C84.657 5.73128 84.9251 5.46314 84.9251 5.13209V0.0748991Z" fill="var(--fill-0, white)"/>
<path id="Vector_5" d="M22.1027 5.73128H17.6447C17.3138 5.73128 17.0455 5.99955 17.0455 6.33047V10.7885C17.0455 11.1194 17.3138 11.3877 17.6447 11.3877H22.1027C22.4337 11.3877 22.7019 11.1194 22.7019 10.7885V6.33047C22.7019 5.99955 22.4337 5.73128 22.1027 5.73128Z" fill="var(--fill-0, white)"/>
<path id="Vector_6" d="M44.7297 5.73128H40.2718C39.9408 5.73128 39.6726 5.99955 39.6726 6.33047V10.7885C39.6726 11.1194 39.9408 11.3877 40.2718 11.3877H44.7297C45.0607 11.3877 45.3289 11.1194 45.3289 10.7885V6.33047C45.3289 5.99955 45.0607 5.73128 44.7297 5.73128Z" fill="var(--fill-0, white)"/>
<path id="Vector_7" d="M67.3553 5.73128H62.8973C62.5664 5.73128 62.2981 5.99955 62.2981 6.33047V10.7885C62.2981 11.1194 62.5664 11.3877 62.8973 11.3877H67.3553C67.6862 11.3877 67.9545 11.1194 67.9545 10.7885V6.33047C67.9545 5.99955 67.6862 5.73128 67.3553 5.73128Z" fill="var(--fill-0, white)"/>
<path id="Vector_8" d="M16.668 11.7652V16.0689C16.668 16.3999 16.3999 16.668 16.0689 16.668H12.3643C12.0333 16.668 11.7652 16.3999 11.7652 16.0689V12.3643C11.7652 12.0333 12.0333 11.7652 12.3643 11.7652H16.668ZM17.0455 11.3877H11.9884C11.6573 11.3877 11.3892 11.6558 11.3892 11.9869V16.4448C11.3892 16.7759 11.6573 17.044 11.9884 17.044H16.4463C16.7774 17.044 17.0455 16.7759 17.0455 16.4448V11.3877Z" fill="var(--fill-0, white)"/>
<path id="Vector_9" d="M27.7591 11.3877H23.3011C22.9702 11.3877 22.7019 11.6559 22.7019 11.9869V16.4448C22.7019 16.7758 22.9702 17.044 23.3011 17.044H27.7591C28.09 17.044 28.3583 16.7758 28.3583 16.4448V11.9869C28.3583 11.6559 28.09 11.3877 27.7591 11.3877Z" fill="var(--fill-0, white)"/>
<path id="Vector_10" d="M61.6989 11.3877H57.2409C56.91 11.3877 56.6417 11.6559 56.6417 11.9869V16.4448C56.6417 16.7758 56.91 17.044 57.2409 17.044H61.6989C62.0298 17.044 62.2981 16.7758 62.2981 16.4448V11.9869C62.2981 11.6559 62.0298 11.3877 61.6989 11.3877Z" fill="var(--fill-0, white)"/>
<path id="Vector_11" d="M73.2348 11.7652V16.0689C73.2348 16.3999 72.9667 16.668 72.6357 16.668H68.9311C68.6001 16.668 68.332 16.3999 68.332 16.0689V12.3643C68.332 12.0333 68.6001 11.7652 68.9311 11.7652H73.2348ZM73.6123 11.3877H68.5551C68.2241 11.3877 67.956 11.6558 67.956 11.9869V16.4448C67.956 16.7759 68.2241 17.044 68.5551 17.044H73.0131C73.3442 17.044 73.6123 16.7759 73.6123 16.4448V11.3877Z" fill="var(--fill-0, white)"/>
<path id="Vector_12" d="M22.1027 17.0455H17.6447C17.3138 17.0455 17.0455 17.3138 17.0455 17.6447V22.1027C17.0455 22.4337 17.3138 22.7019 17.6447 22.7019H22.1027C22.4337 22.7019 22.7019 22.4337 22.7019 22.1027V17.6447C22.7019 17.3138 22.4337 17.0455 22.1027 17.0455Z" fill="var(--fill-0, white)"/>
<path id="Vector_13" d="M67.3553 17.0455H62.8973C62.5664 17.0455 62.2981 17.3138 62.2981 17.6447V22.1027C62.2981 22.4337 62.5664 22.7019 62.8973 22.7019H67.3553C67.6862 22.7019 67.9545 22.4337 67.9545 22.1027V17.6447C67.9545 17.3138 67.6862 17.0455 67.3553 17.0455Z" fill="var(--fill-0, white)"/>
<path id="Vector_14" d="M16.4448 22.7019H11.9869C11.6559 22.7019 11.3877 22.9702 11.3877 23.3011V27.7591C11.3877 28.09 11.6559 28.3583 11.9869 28.3583H16.4448C16.7758 28.3583 17.044 28.09 17.044 27.7591V23.3011C17.044 22.9702 16.7758 22.7019 16.4448 22.7019Z" fill="var(--fill-0, white)"/>
<path id="Vector_15" d="M39.0719 22.7019H34.6139C34.283 22.7019 34.0147 22.9702 34.0147 23.3011V27.7591C34.0147 28.09 34.283 28.3583 34.6139 28.3583H39.0719C39.4028 28.3583 39.6711 28.09 39.6711 27.7591V23.3011C39.6711 22.9702 39.4028 22.7019 39.0719 22.7019Z" fill="var(--fill-0, white)"/>
<path id="Vector_16" d="M50.3861 22.7019H45.9281C45.5972 22.7019 45.3289 22.9702 45.3289 23.3011V27.7591C45.3289 28.09 45.5972 28.3583 45.9281 28.3583H50.3861C50.7171 28.3583 50.9853 28.09 50.9853 27.7591V23.3011C50.9853 22.9702 50.7171 22.7019 50.3861 22.7019Z" fill="var(--fill-0, white)"/>
<path id="Vector_17" d="M73.0131 22.7019H68.5551C68.2242 22.7019 67.956 22.9702 67.956 23.3011V27.7591C67.956 28.09 68.2242 28.3583 68.5551 28.3583H73.0131C73.3441 28.3583 73.6123 28.09 73.6123 27.7591V23.3011C73.6123 22.9702 73.3441 22.7019 73.0131 22.7019Z" fill="var(--fill-0, white)"/>
<path id="Vector_18" d="M16.4448 28.3583H11.9869C11.6559 28.3583 11.3877 28.6266 11.3877 28.9575V33.4155C11.3877 33.7464 11.6559 34.0147 11.9869 34.0147H16.4448C16.7758 34.0147 17.044 33.7464 17.044 33.4155V28.9575C17.044 28.6266 16.7758 28.3583 16.4448 28.3583Z" fill="var(--fill-0, white)"/>
<path id="Vector_19" d="M73.0131 28.3583H68.5551C68.2242 28.3583 67.956 28.6266 67.956 28.9575V33.4155C67.956 33.7464 68.2242 34.0147 68.5551 34.0147H73.0131C73.3441 34.0147 73.6123 33.7464 73.6123 33.4155V28.9575C73.6123 28.6266 73.3441 28.3583 73.0131 28.3583Z" fill="var(--fill-0, white)"/>
<path id="Vector_20" d="M5.13209 34.0147H0.674092C0.343167 34.0147 0.0748991 34.283 0.0748991 34.6139V39.0719C0.0748991 39.4028 0.343167 39.6711 0.674092 39.6711H5.13209C5.46301 39.6711 5.73128 39.4028 5.73128 39.0719V34.6139C5.73128 34.283 5.46301 34.0147 5.13209 34.0147Z" fill="var(--fill-0, white)"/>
<path id="Vector_21" d="M16.4448 34.0147H11.9869C11.6559 34.0147 11.3877 34.283 11.3877 34.6139V39.0719C11.3877 39.4028 11.6559 39.6711 11.9869 39.6711H16.4448C16.7758 39.6711 17.044 39.4028 17.044 39.0719V34.6139C17.044 34.283 16.7758 34.0147 16.4448 34.0147Z" fill="var(--fill-0, white)"/>
<path id="Vector_22" d="M73.0131 34.0147H68.5551C68.2242 34.0147 67.956 34.283 67.956 34.6139V39.0719C67.956 39.4028 68.2242 39.6711 68.5551 39.6711H73.0131C73.3441 39.6711 73.6123 39.4028 73.6123 39.0719V34.6139C73.6123 34.283 73.3441 34.0147 73.0131 34.0147Z" fill="var(--fill-0, white)"/>
<path id="Vector_23" d="M84.3259 34.0147H79.8679C79.537 34.0147 79.2687 34.283 79.2687 34.6139V39.0719C79.2687 39.4028 79.537 39.6711 79.8679 39.6711H84.3259C84.6568 39.6711 84.9251 39.4028 84.9251 39.0719V34.6139C84.9251 34.283 84.6568 34.0147 84.3259 34.0147Z" fill="var(--fill-0, white)"/>
<path id="Vector_24" d="M10.7885 39.6726H6.33047C5.99955 39.6726 5.73128 39.9408 5.73128 40.2718V44.7297C5.73128 45.0607 5.99955 45.3289 6.33047 45.3289H10.7885C11.1194 45.3289 11.3877 45.0607 11.3877 44.7297V40.2718C11.3877 39.9408 11.1194 39.6726 10.7885 39.6726Z" fill="var(--fill-0, white)"/>
<path id="Vector_25" d="M16.4448 39.6726H11.9869C11.6559 39.6726 11.3877 39.9408 11.3877 40.2718V44.7297C11.3877 45.0607 11.6559 45.3289 11.9869 45.3289H16.4448C16.7758 45.3289 17.044 45.0607 17.044 44.7297V40.2718C17.044 39.9408 16.7758 39.6726 16.4448 39.6726Z" fill="var(--fill-0, white)"/>
<path id="Vector_26" d="M27.7591 39.6726H23.3011C22.9702 39.6726 22.7019 39.9408 22.7019 40.2718V44.7297C22.7019 45.0607 22.9702 45.3289 23.3011 45.3289H27.7591C28.09 45.3289 28.3583 45.0607 28.3583 44.7297V40.2718C28.3583 39.9408 28.09 39.6726 27.7591 39.6726Z" fill="var(--fill-0, white)"/>
<path id="Vector_27" d="M44.9514 40.0486V44.3523C44.9514 44.6833 44.6833 44.9514 44.3523 44.9514H40.6477C40.3167 44.9514 40.0486 44.6833 40.0486 44.3523V40.6477C40.0486 40.3167 40.3167 40.0486 40.6477 40.0486H44.9514ZM45.3289 39.6726H40.2718C39.9407 39.6726 39.6726 39.9407 39.6726 40.2718V44.7297C39.6726 45.0608 39.9407 45.3289 40.2718 45.3289H44.7297C45.0608 45.3289 45.3289 45.0608 45.3289 44.7297V39.6726Z" fill="var(--fill-0, white)"/>
<path id="Vector_28" d="M61.6989 39.6726H57.2409C56.91 39.6726 56.6417 39.9408 56.6417 40.2718V44.7297C56.6417 45.0607 56.91 45.3289 57.2409 45.3289H61.6989C62.0298 45.3289 62.2981 45.0607 62.2981 44.7297V40.2718C62.2981 39.9408 62.0298 39.6726 61.6989 39.6726Z" fill="var(--fill-0, white)"/>
<path id="Vector_29" d="M73.0131 39.6726H68.5551C68.2242 39.6726 67.956 39.9408 67.956 40.2718V44.7297C67.956 45.0607 68.2242 45.3289 68.5551 45.3289H73.0131C73.3441 45.3289 73.6123 45.0607 73.6123 44.7297V40.2718C73.6123 39.9408 73.3441 39.6726 73.0131 39.6726Z" fill="var(--fill-0, white)"/>
<path id="Vector_30" d="M78.6695 39.6726H74.2115C73.8806 39.6726 73.6123 39.9408 73.6123 40.2718V44.7297C73.6123 45.0607 73.8806 45.3289 74.2115 45.3289H78.6695C79.0005 45.3289 79.2687 45.0607 79.2687 44.7297V40.2718C79.2687 39.9408 79.0005 39.6726 78.6695 39.6726Z" fill="var(--fill-0, white)"/>
<path id="Vector_31" d="M5.13209 45.3289H0.674092C0.343167 45.3289 0.0748991 45.5972 0.0748991 45.9281V50.3861C0.0748991 50.7171 0.343167 50.9853 0.674092 50.9853H5.13209C5.46301 50.9853 5.73128 50.7171 5.73128 50.3861V45.9281C5.73128 45.5972 5.46301 45.3289 5.13209 45.3289Z" fill="var(--fill-0, white)"/>
<path id="Vector_32" d="M16.4448 45.3289H11.9869C11.6559 45.3289 11.3877 45.5972 11.3877 45.9281V50.3861C11.3877 50.7171 11.6559 50.9853 11.9869 50.9853H16.4448C16.7758 50.9853 17.044 50.7171 17.044 50.3861V45.9281C17.044 45.5972 16.7758 45.3289 16.4448 45.3289Z" fill="var(--fill-0, white)"/>
<path id="Vector_33" d="M73.0131 45.3289H68.5551C68.2242 45.3289 67.956 45.5972 67.956 45.9281V50.3861C67.956 50.7171 68.2242 50.9853 68.5551 50.9853H73.0131C73.3441 50.9853 73.6123 50.7171 73.6123 50.3861V45.9281C73.6123 45.5972 73.3441 45.3289 73.0131 45.3289Z" fill="var(--fill-0, white)"/>
<path id="Vector_34" d="M84.3259 45.3289H79.8679C79.537 45.3289 79.2687 45.5972 79.2687 45.9281V50.3861C79.2687 50.7171 79.537 50.9853 79.8679 50.9853H84.3259C84.6568 50.9853 84.9251 50.7171 84.9251 50.3861V45.9281C84.9251 45.5972 84.6568 45.3289 84.3259 45.3289Z" fill="var(--fill-0, white)"/>
<path id="Vector_35" d="M16.4448 50.9853H11.9869C11.6559 50.9853 11.3877 51.2536 11.3877 51.5845V56.0425C11.3877 56.3734 11.6559 56.6417 11.9869 56.6417H16.4448C16.7758 56.6417 17.044 56.3734 17.044 56.0425V51.5845C17.044 51.2536 16.7758 50.9853 16.4448 50.9853Z" fill="var(--fill-0, white)"/>
<path id="Vector_36" d="M73.0131 50.9853H68.5551C68.2242 50.9853 67.956 51.2536 67.956 51.5845V56.0425C67.956 56.3734 68.2242 56.6417 68.5551 56.6417H73.0131C73.3441 56.6417 73.6123 56.3734 73.6123 56.0425V51.5845C73.6123 51.2536 73.3441 50.9853 73.0131 50.9853Z" fill="var(--fill-0, white)"/>
<path id="Vector_37" d="M16.4448 56.6417H11.9869C11.6559 56.6417 11.3877 56.91 11.3877 57.2409V61.6989C11.3877 62.0298 11.6559 62.2981 11.9869 62.2981H16.4448C16.7758 62.2981 17.044 62.0298 17.044 61.6989V57.2409C17.044 56.91 16.7758 56.6417 16.4448 56.6417Z" fill="var(--fill-0, white)"/>
<path id="Vector_38" d="M39.0719 56.6417H34.6139C34.283 56.6417 34.0147 56.91 34.0147 57.2409V61.6989C34.0147 62.0298 34.283 62.2981 34.6139 62.2981H39.0719C39.4028 62.2981 39.6711 62.0298 39.6711 61.6989V57.2409C39.6711 56.91 39.4028 56.6417 39.0719 56.6417Z" fill="var(--fill-0, white)"/>
<path id="Vector_39" d="M50.3861 56.6417H45.9281C45.5972 56.6417 45.3289 56.91 45.3289 57.2409V61.6989C45.3289 62.0298 45.5972 62.2981 45.9281 62.2981H50.3861C50.7171 62.2981 50.9853 62.0298 50.9853 61.6989V57.2409C50.9853 56.91 50.7171 56.6417 50.3861 56.6417Z" fill="var(--fill-0, white)"/>
<path id="Vector_40" d="M73.0131 56.6417H68.5551C68.2242 56.6417 67.956 56.91 67.956 57.2409V61.6989C67.956 62.0298 68.2242 62.2981 68.5551 62.2981H73.0131C73.3441 62.2981 73.6123 62.0298 73.6123 61.6989V57.2409C73.6123 56.91 73.3441 56.6417 73.0131 56.6417Z" fill="var(--fill-0, white)"/>
<path id="Vector_41" d="M22.1027 62.2996H17.6447C17.3138 62.2996 17.0455 62.5678 17.0455 62.8988V67.3568C17.0455 67.6877 17.3138 67.956 17.6447 67.956H22.1027C22.4337 67.956 22.7019 67.6877 22.7019 67.3568V62.8988C22.7019 62.5678 22.4337 62.2996 22.1027 62.2996Z" fill="var(--fill-0, white)"/>
<path id="Vector_42" d="M67.3553 62.2996H62.8973C62.5664 62.2996 62.2981 62.5678 62.2981 62.8988V67.3568C62.2981 67.6877 62.5664 67.956 62.8973 67.956H67.3553C67.6862 67.956 67.9545 67.6877 67.9545 67.3568V62.8988C67.9545 62.5678 67.6862 62.2996 67.3553 62.2996Z" fill="var(--fill-0, white)"/>
<path id="Vector_43" d="M16.668 68.332V72.6357C16.668 72.9667 16.3999 73.2348 16.0689 73.2348H12.3643C12.0333 73.2348 11.7652 72.9667 11.7652 72.6357V68.9311C11.7652 68.6001 12.0333 68.332 12.3643 68.332H16.668ZM17.0455 67.956H11.9884C11.6573 67.956 11.3892 68.2241 11.3892 68.5551V73.0131C11.3892 73.3442 11.6573 73.6123 11.9884 73.6123H16.4463C16.7774 73.6123 17.0455 73.3442 17.0455 73.0131V67.956Z" fill="var(--fill-0, white)"/>
<path id="Vector_44" d="M27.7591 67.956H23.3011C22.9702 67.956 22.7019 68.2242 22.7019 68.5551V73.0131C22.7019 73.3441 22.9702 73.6123 23.3011 73.6123H27.7591C28.09 73.6123 28.3583 73.3441 28.3583 73.0131V68.5551C28.3583 68.2242 28.09 67.956 27.7591 67.956Z" fill="var(--fill-0, white)"/>
<path id="Vector_45" d="M61.6989 67.956H57.2409C56.91 67.956 56.6417 68.2242 56.6417 68.5551V73.0131C56.6417 73.3441 56.91 73.6123 57.2409 73.6123H61.6989C62.0298 73.6123 62.2981 73.3441 62.2981 73.0131V68.5551C62.2981 68.2242 62.0298 67.956 61.6989 67.956Z" fill="var(--fill-0, white)"/>
<path id="Vector_46" d="M73.2348 68.332V72.6357C73.2348 72.9667 72.9667 73.2348 72.6357 73.2348H68.9311C68.6001 73.2348 68.332 72.9667 68.332 72.6357V68.9311C68.332 68.6001 68.6001 68.332 68.9311 68.332H73.2348ZM73.6123 67.956H68.5551C68.2241 67.956 67.956 68.2241 67.956 68.5551V73.0131C67.956 73.3442 68.2241 73.6123 68.5551 73.6123H73.0131C73.3442 73.6123 73.6123 73.3442 73.6123 73.0131V67.956Z" fill="var(--fill-0, white)"/>
<path id="Vector_47" d="M22.1027 73.6123H17.6447C17.3138 73.6123 17.0455 73.8806 17.0455 74.2115V78.6695C17.0455 79.0005 17.3138 79.2687 17.6447 79.2687H22.1027C22.4337 79.2687 22.7019 79.0005 22.7019 78.6695V74.2115C22.7019 73.8806 22.4337 73.6123 22.1027 73.6123Z" fill="var(--fill-0, white)"/>
<path id="Vector_48" d="M44.7297 73.6123H40.2718C39.9408 73.6123 39.6726 73.8806 39.6726 74.2115V78.6695C39.6726 79.0005 39.9408 79.2687 40.2718 79.2687H44.7297C45.0607 79.2687 45.3289 79.0005 45.3289 78.6695V74.2115C45.3289 73.8806 45.0607 73.6123 44.7297 73.6123Z" fill="var(--fill-0, white)"/>
<path id="Vector_49" d="M67.3553 73.6123H62.8973C62.5664 73.6123 62.2981 73.8806 62.2981 74.2115V78.6695C62.2981 79.0005 62.5664 79.2687 62.8973 79.2687H67.3553C67.6862 79.2687 67.9545 79.0005 67.9545 78.6695V74.2115C67.9545 73.8806 67.6862 73.6123 67.3553 73.6123Z" fill="var(--fill-0, white)"/>
<path id="Vector_50" d="M5.35529 79.6462V83.9499C5.35529 84.281 5.08715 84.5491 4.75609 84.5491H1.05158C0.720529 84.5491 0.452391 84.281 0.452391 83.9499V80.2454C0.452391 79.9144 0.720529 79.6462 1.05158 79.6462H5.35529ZM5.73128 79.2687H0.674092C0.343038 79.2687 0.0748991 79.5369 0.0748991 79.8679V84.3259C0.0748991 84.657 0.343038 84.9251 0.674092 84.9251H5.13209C5.46314 84.9251 5.73128 84.657 5.73128 84.3259V79.2687Z" fill="var(--fill-0, white)"/>
<path id="Vector_51" d="M39.2951 79.6462V83.9499C39.2951 84.281 39.0269 84.5491 38.6959 84.5491H34.9914C34.6603 84.5491 34.3922 84.281 34.3922 83.9499V80.2454C34.3922 79.9144 34.6603 79.6462 34.9914 79.6462H39.2951ZM39.6726 79.2687H34.6154C34.2843 79.2687 34.0162 79.5369 34.0162 79.8679V84.3259C34.0162 84.657 34.2843 84.9251 34.6154 84.9251H39.0734C39.4044 84.9251 39.6726 84.657 39.6726 84.3259V79.2687Z" fill="var(--fill-0, white)"/>
<path id="Vector_52" d="M50.6078 79.6462V83.9499C50.6078 84.281 50.3397 84.5491 50.0086 84.5491H46.3041C45.9731 84.5491 45.7049 84.281 45.7049 83.9499V80.2454C45.7049 79.9144 45.9731 79.6462 46.3041 79.6462H50.6078ZM50.9853 79.2687H45.9281C45.5971 79.2687 45.3289 79.5369 45.3289 79.8679V84.3259C45.3289 84.657 45.5971 84.9251 45.9281 84.9251H50.3861C50.7172 84.9251 50.9853 84.657 50.9853 84.3259V79.2687Z" fill="var(--fill-0, white)"/>
<g id="Group">
<path id="Vector_53" d="M5.35678 0H0.449395C0.20073 0 0 0.20073 0 0.449395V5.20699C0 5.53804 0.268139 5.80618 0.599193 5.80618H5.20699C5.53804 5.80618 5.80618 5.53804 5.80618 5.20699V0.449395C5.80618 0.20073 5.60545 0 5.35678 0ZM4.68119 5.28039H1.12648C0.795429 5.28039 0.52729 5.01225 0.52729 4.68119V1.12648C0.52729 0.795429 0.795429 0.52729 1.12648 0.52729H4.68119C5.01225 0.52729 5.28039 0.795429 5.28039 1.12648V4.68119C5.28039 5.01225 5.01225 5.28039 4.68119 5.28039Z" fill="var(--fill-0, white)"/>
<path id="Vector_54" d="M44.6549 5.65638H40.3467C40.0156 5.65638 39.7475 5.38824 39.7475 5.05719V0.449395C39.7475 0.20073 39.5467 0 39.2981 0H34.3907C34.142 0 33.9413 0.20073 33.9413 0.449395V5.20699C33.9413 5.53804 34.2094 5.80618 34.5405 5.80618H38.9985C39.3295 5.80618 39.5977 6.07432 39.5977 6.40537V10.8634C39.5977 11.1944 39.8658 11.4626 40.1969 11.4626H44.8046C45.1357 11.4626 45.4038 11.1944 45.4038 10.8634V6.40537C45.4038 6.07432 45.672 5.80618 46.003 5.80618H50.461C50.7921 5.80618 51.0602 5.53804 51.0602 5.20699V0.449395C51.0602 0.20073 50.8595 0 50.6108 0H45.7034C45.4548 0 45.254 0.20073 45.254 0.449395V5.05719C45.254 5.38824 44.9859 5.65638 44.6549 5.65638ZM38.621 5.28039H35.0663C34.7352 5.28039 34.4671 5.01225 34.4671 4.68119V1.12648C34.4671 0.795429 34.7352 0.52729 35.0663 0.52729H38.621C38.952 0.52729 39.2202 0.795429 39.2202 1.12648V4.68119C39.2202 5.01225 38.952 5.28039 38.621 5.28039ZM46.379 0.52729H49.9337C50.2648 0.52729 50.5329 0.795429 50.5329 1.12648V4.68119C50.5329 5.01225 50.2648 5.28039 49.9337 5.28039H46.379C46.048 5.28039 45.7798 5.01225 45.7798 4.68119V1.12648C45.7798 0.795429 46.048 0.52729 46.379 0.52729Z" fill="var(--fill-0, white)"/>
<path id="Vector_55" d="M84.5506 0H79.6432C79.3946 0 79.1938 0.20073 79.1938 0.449395V5.20699C79.1938 5.53804 79.462 5.80618 79.793 5.80618H84.4008C84.7319 5.80618 85 5.53804 85 5.20699V0.449395C85 0.20073 84.7993 0 84.5506 0ZM83.875 5.28039H80.3203C79.9893 5.28039 79.7211 5.01225 79.7211 4.68119V1.12648C79.7211 0.795429 79.9893 0.52729 80.3203 0.52729H83.875C84.2061 0.52729 84.4742 0.795429 84.4742 1.12648V4.68119C84.4742 5.01225 84.2061 5.28039 83.875 5.28039Z" fill="var(--fill-0, white)"/>
<path id="Vector_56" d="M22.1776 5.65638H17.5698C17.2388 5.65638 16.9706 5.92452 16.9706 6.25557V10.7136C16.9706 11.0446 16.7025 11.3128 16.3714 11.3128H11.9135C11.5824 11.3128 11.3143 11.5809 11.3143 11.912V16.5197C11.3143 16.8508 11.5824 17.1189 11.9135 17.1189H16.3714C16.7025 17.1189 16.9706 17.3871 16.9706 17.7181V22.0263C16.9706 22.3574 16.7025 22.6255 16.3714 22.6255H11.9135C11.5824 22.6255 11.3143 22.8937 11.3143 23.2247V38.997C11.3143 39.328 11.0461 39.5962 10.7151 39.5962H6.40687C6.07582 39.5962 5.80768 39.328 5.80768 38.997V34.539C5.80768 34.2079 5.53954 33.9398 5.20848 33.9398H0.599193C0.268139 33.9398 0 34.2079 0 34.539V39.1468C0 39.4778 0.268139 39.746 0.599193 39.746H5.05719C5.38824 39.746 5.65638 40.0141 5.65638 40.3452V44.6533C5.65638 44.9844 5.38824 45.2525 5.05719 45.2525H0.599193C0.268139 45.2525 0 45.5207 0 45.8517V50.4595C0 50.7906 0.268139 51.0587 0.599193 51.0587H5.20699C5.53804 51.0587 5.80618 50.7906 5.80618 50.4595V46.0015C5.80618 45.6705 6.07432 45.4023 6.40537 45.4023H10.7136C11.0446 45.4023 11.3128 45.6705 11.3128 46.0015V61.7738C11.3128 62.1048 11.5809 62.373 11.912 62.373H16.3699C16.701 62.373 16.9691 62.6411 16.9691 62.9722V67.2804C16.9691 67.6114 16.701 67.8796 16.3699 67.8796H11.912C11.5809 67.8796 11.3128 68.1477 11.3128 68.4788V73.0865C11.3128 73.4176 11.5809 73.6857 11.912 73.6857H16.3699C16.701 73.6857 16.9691 73.9539 16.9691 74.2849V78.7429C16.9691 79.074 17.2373 79.3421 17.5683 79.3421H22.1761C22.5072 79.3421 22.7753 79.074 22.7753 78.7429V74.2849C22.7753 73.9539 23.0435 73.6857 23.3745 73.6857H27.8325C28.1636 73.6857 28.4317 73.4176 28.4317 73.0865V68.4788C28.4317 68.1477 28.1636 67.8796 27.8325 67.8796H23.3745C23.0435 67.8796 22.7753 67.6114 22.7753 67.2804V62.8224C22.7753 62.4913 22.5072 62.2232 22.1761 62.2232H17.7181C17.3871 62.2232 17.1189 61.955 17.1189 61.624V23.3745C17.1189 23.0435 17.3871 22.7753 17.7181 22.7753H22.1761C22.5072 22.7753 22.7753 22.5072 22.7753 22.1761V17.7181C22.7753 17.3871 23.0435 17.1189 23.3745 17.1189H27.8325C28.1636 17.1189 28.4317 16.8508 28.4317 16.5197V11.912C28.4317 11.5809 28.1636 11.3128 27.8325 11.3128H23.3745C23.0435 11.3128 22.7753 11.0446 22.7753 10.7136V6.25557C22.7753 5.92452 22.5072 5.65638 22.1761 5.65638H22.1776ZM22.627 68.63V72.9382C22.627 73.2693 22.3589 73.5374 22.0278 73.5374H17.7196C17.3886 73.5374 17.1204 73.2693 17.1204 72.9382V68.63C17.1204 68.299 17.3886 68.0309 17.7196 68.0309H22.0278C22.3589 68.0309 22.627 68.299 22.627 68.63ZM15.994 73.16H12.4392C12.1082 73.16 11.8401 72.8918 11.8401 72.5608V69.006C11.8401 68.675 12.1082 68.4069 12.4392 68.4069H15.994C16.325 68.4069 16.5931 68.675 16.5931 69.006V72.5608C16.5931 72.8918 16.325 73.16 15.994 73.16ZM22.627 12.0618V16.3699C22.627 16.701 22.3589 16.9691 22.0278 16.9691H17.7196C17.3886 16.9691 17.1204 16.701 17.1204 16.3699V12.0618C17.1204 11.7307 17.3886 11.4626 17.7196 11.4626H22.0278C22.3589 11.4626 22.627 11.7307 22.627 12.0618ZM15.994 16.5931H12.4392C12.1082 16.5931 11.8401 16.325 11.8401 15.994V12.4392C11.8401 12.1082 12.1082 11.8401 12.4392 11.8401H15.994C16.325 11.8401 16.5931 12.1082 16.5931 12.4392V15.994C16.5931 16.325 16.325 16.5931 15.994 16.5931Z" fill="var(--fill-0, white)"/>
<path id="Vector_57" d="M39.1468 22.627H34.539C34.208 22.627 33.9398 22.8953 33.9398 23.2262V27.834C33.9398 28.1649 34.208 28.4332 34.539 28.4332H39.1468C39.4777 28.4332 39.746 28.1649 39.746 27.834V23.2262C39.746 22.8953 39.4777 22.627 39.1468 22.627Z" fill="var(--fill-0, white)"/>
<path id="Vector_58" d="M50.461 22.627H45.8532C45.5223 22.627 45.254 22.8953 45.254 23.2262V27.834C45.254 28.1649 45.5223 28.4332 45.8532 28.4332H50.461C50.7919 28.4332 51.0602 28.1649 51.0602 27.834V23.2262C51.0602 22.8953 50.7919 22.627 50.461 22.627Z" fill="var(--fill-0, white)"/>
<path id="Vector_59" d="M85 39.1483V34.5405C85 34.2094 84.7319 33.9413 84.4008 33.9413H79.793C79.462 33.9413 79.1938 34.2094 79.1938 34.5405V38.9985C79.1938 39.3295 78.9257 39.5977 78.5946 39.5977H74.2864C73.9554 39.5977 73.6872 39.3295 73.6872 38.9985V23.2262C73.6872 22.8952 73.4191 22.627 73.088 22.627H68.6301C68.299 22.627 68.0309 22.3589 68.0309 22.0278V17.7196C68.0309 17.3886 68.299 17.1204 68.6301 17.1204H73.088C73.4191 17.1204 73.6872 16.8523 73.6872 16.5212V11.9135C73.6872 11.5824 73.4191 11.3143 73.088 11.3143H68.6301C68.299 11.3143 68.0309 11.0461 68.0309 10.7151V6.25707C68.0309 5.92602 67.7627 5.65788 67.4317 5.65788H62.8239C62.4928 5.65788 62.2247 5.92602 62.2247 6.25707V10.7151C62.2247 11.0461 61.9565 11.3143 61.6255 11.3143H57.1675C56.8364 11.3143 56.5683 11.5824 56.5683 11.9135V16.5212C56.5683 16.8523 56.8364 17.1204 57.1675 17.1204H61.6255C61.9565 17.1204 62.2247 17.3886 62.2247 17.7196V22.1776C62.2247 22.5087 62.4928 22.7768 62.8239 22.7768H67.2819C67.6129 22.7768 67.8811 23.045 67.8811 23.376V61.6255C67.8811 61.9565 67.6129 62.2247 67.2819 62.2247H62.8239C62.4928 62.2247 62.2247 62.4928 62.2247 62.8239V67.2819C62.2247 67.6129 61.9565 67.8811 61.6255 67.8811H57.1675C56.8364 67.8811 56.5683 68.1492 56.5683 68.4803V73.088C56.5683 73.4191 56.8364 73.6872 57.1675 73.6872H61.6255C61.9565 73.6872 62.2247 73.9554 62.2247 74.2864V78.7444C62.2247 79.0755 62.4928 79.3436 62.8239 79.3436H67.4317C67.7627 79.3436 68.0309 79.0755 68.0309 78.7444V74.2864C68.0309 73.9554 68.299 73.6872 68.6301 73.6872H73.088C73.4191 73.6872 73.6872 73.4191 73.6872 73.088V68.4803C73.6872 68.1492 73.4191 67.8811 73.088 67.8811H68.6301C68.299 67.8811 68.0309 67.6129 68.0309 67.2819V62.9737C68.0309 62.6426 68.299 62.3745 68.6301 62.3745H73.088C73.4191 62.3745 73.6872 62.1063 73.6872 61.7753V46.003C73.6872 45.672 73.9554 45.4038 74.2864 45.4038H78.5946C78.9257 45.4038 79.1938 45.672 79.1938 46.003V50.461C79.1938 50.7921 79.462 51.0602 79.793 51.0602H84.4008C84.7319 51.0602 85 50.7921 85 50.461V45.8532C85 45.5222 84.7319 45.254 84.4008 45.254H79.9428C79.6118 45.254 79.3436 44.9859 79.3436 44.6549V40.3467C79.3436 40.0156 79.6118 39.7475 79.9428 39.7475H84.4008C84.7319 39.7475 85 39.4793 85 39.1483ZM62.373 16.3714V12.0633C62.373 11.7322 62.6411 11.4641 62.9722 11.4641H67.2804C67.6114 11.4641 67.8796 11.7322 67.8796 12.0633V16.3714C67.8796 16.7025 67.6114 16.9706 67.2804 16.9706H62.9722C62.6411 16.9706 62.373 16.7025 62.373 16.3714ZM69.006 11.8401H72.5608C72.8918 11.8401 73.16 12.1082 73.16 12.4392V15.994C73.16 16.325 72.8918 16.5931 72.5608 16.5931H69.006C68.675 16.5931 68.4069 16.325 68.4069 15.994V12.4392C68.4069 12.1082 68.675 11.8401 69.006 11.8401ZM67.8811 68.6301V72.9383C67.8811 73.2693 67.6129 73.5374 67.2819 73.5374H62.9737C62.6426 73.5374 62.3745 73.2693 62.3745 72.9383V68.6301C62.3745 68.299 62.6426 68.0309 62.9737 68.0309H67.2819C67.6129 68.0309 67.8811 68.299 67.8811 68.6301ZM69.006 68.4069H72.5608C72.8918 68.4069 73.16 68.675 73.16 69.006V72.5608C73.16 72.8918 72.8918 73.16 72.5608 73.16H69.006C68.675 73.16 68.4069 72.8918 68.4069 72.5608V69.006C68.4069 68.675 68.675 68.4069 69.006 68.4069Z" fill="var(--fill-0, white)"/>
<path id="Vector_60" d="M27.834 39.5977H23.2262C22.8953 39.5977 22.627 39.8659 22.627 40.1968V44.8046C22.627 45.1356 22.8953 45.4038 23.2262 45.4038H27.834C28.1649 45.4038 28.4332 45.1356 28.4332 44.8046V40.1968C28.4332 39.8659 28.1649 39.5977 27.834 39.5977Z" fill="var(--fill-0, white)"/>
<path id="Vector_61" d="M40.1968 45.4038H44.8046C45.1357 45.4038 45.4038 45.1357 45.4038 44.8046V40.1968C45.4038 39.8658 45.1357 39.5977 44.8046 39.5977H40.1968C39.8658 39.5977 39.5977 39.8658 39.5977 40.1968V44.8046C39.5977 45.1357 39.8658 45.4038 40.1968 45.4038ZM40.7226 40.1234H44.2774C44.6084 40.1234 44.8765 40.3916 44.8765 40.7226V44.2774C44.8765 44.6084 44.6084 44.8765 44.2774 44.8765H40.7226C40.3916 44.8765 40.1234 44.6084 40.1234 44.2774V40.7226C40.1234 40.3916 40.3916 40.1234 40.7226 40.1234Z" fill="var(--fill-0, white)"/>
<path id="Vector_62" d="M61.7738 39.5977H57.166C56.8351 39.5977 56.5668 39.8659 56.5668 40.1968V44.8046C56.5668 45.1356 56.8351 45.4038 57.166 45.4038H61.7738C62.1047 45.4038 62.373 45.1356 62.373 44.8046V40.1968C62.373 39.8659 62.1047 39.5977 61.7738 39.5977Z" fill="var(--fill-0, white)"/>
<path id="Vector_63" d="M39.1468 56.5668H34.539C34.208 56.5668 33.9398 56.8351 33.9398 57.166V61.7738C33.9398 62.1047 34.208 62.373 34.539 62.373H39.1468C39.4777 62.373 39.746 62.1047 39.746 61.7738V57.166C39.746 56.8351 39.4777 56.5668 39.1468 56.5668Z" fill="var(--fill-0, white)"/>
<path id="Vector_64" d="M50.461 56.5668H45.8532C45.5223 56.5668 45.254 56.8351 45.254 57.166V61.7738C45.254 62.1047 45.5223 62.373 45.8532 62.373H50.461C50.7919 62.373 51.0602 62.1047 51.0602 61.7738V57.166C51.0602 56.8351 50.7919 56.5668 50.461 56.5668Z" fill="var(--fill-0, white)"/>
<path id="Vector_65" d="M44.8046 73.5374H40.1969C39.8658 73.5374 39.5977 73.8056 39.5977 74.1366V78.5946C39.5977 78.9257 39.3295 79.1938 38.9985 79.1938H34.5405C34.2094 79.1938 33.9413 79.462 33.9413 79.793V84.4008C33.9413 84.7319 34.2094 85 34.5405 85H39.1483C39.4793 85 39.7475 84.7319 39.7475 84.4008V79.9428C39.7475 79.6118 40.0156 79.3436 40.3467 79.3436H44.6549C44.9859 79.3436 45.254 79.6118 45.254 79.9428V84.4008C45.254 84.7319 45.5222 85 45.8532 85H50.461C50.7921 85 51.0602 84.7319 51.0602 84.4008V79.793C51.0602 79.462 50.7921 79.1938 50.461 79.1938H46.003C45.672 79.1938 45.4038 78.9257 45.4038 78.5946V74.1366C45.4038 73.8056 45.1357 73.5374 44.8046 73.5374ZM38.621 84.4742H35.0663C34.7352 84.4742 34.4671 84.2061 34.4671 83.875V80.3203C34.4671 79.9893 34.7352 79.7211 35.0663 79.7211H38.621C38.952 79.7211 39.2202 79.9893 39.2202 80.3203V83.875C39.2202 84.2061 38.952 84.4742 38.621 84.4742ZM46.379 79.7211H49.9337C50.2648 79.7211 50.5329 79.9893 50.5329 80.3203V83.875C50.5329 84.2061 50.2648 84.4742 49.9337 84.4742H46.379C46.048 84.4742 45.7798 84.2061 45.7798 83.875V80.3203C45.7798 79.9893 46.048 79.7211 46.379 79.7211Z" fill="var(--fill-0, white)"/>
<path id="Vector_66" d="M0.599193 85H5.20699C5.53804 85 5.80618 84.7319 5.80618 84.4008V79.793C5.80618 79.462 5.53804 79.1938 5.20699 79.1938H0.599193C0.268139 79.1938 0 79.462 0 79.793V84.4008C0 84.7319 0.268139 85 0.599193 85ZM1.12648 79.7211H4.68119C5.01225 79.7211 5.28039 79.9893 5.28039 80.3203V83.875C5.28039 84.2061 5.01225 84.4742 4.68119 84.4742H1.12648C0.795429 84.4742 0.52729 84.2061 0.52729 83.875V80.3203C0.52729 79.9893 0.795429 79.7211 1.12648 79.7211Z" fill="var(--fill-0, white)"/>
<path id="Vector_67" d="M79.793 85H84.4008C84.7319 85 85 84.7319 85 84.4008V79.793C85 79.462 84.7319 79.1938 84.4008 79.1938H79.793C79.462 79.1938 79.1938 79.462 79.1938 79.793V84.4008C79.1938 84.7319 79.462 85 79.793 85ZM80.3203 79.7211H83.875C84.2061 79.7211 84.4742 79.9893 84.4742 80.3203V83.875C84.4742 84.2061 84.2061 84.4742 83.875 84.4742H80.3203C79.9893 84.4742 79.7211 84.2061 79.7211 83.875V80.3203C79.7211 79.9893 79.9893 79.7211 80.3203 79.7211Z" fill="var(--fill-0, white)"/>
</g>
<path id="Vector_68" d="M84.5491 79.6462V83.9499C84.5491 84.281 84.281 84.5491 83.9499 84.5491H80.2454C79.9144 84.5491 79.6462 84.281 79.6462 83.9499V80.2454C79.6462 79.9144 79.9144 79.6462 80.2454 79.6462H84.5491ZM84.9251 79.2687H79.8679C79.5369 79.2687 79.2687 79.5369 79.2687 79.8679V84.3259C79.2687 84.657 79.5369 84.9251 79.8679 84.9251H84.3259C84.657 84.9251 84.9251 84.657 84.9251 84.3259V79.2687Z" fill="var(--fill-0, white)"/>
</g>
<defs>
<clipPath id="clip0_0_62">
<rect width="85" height="85" fill="white"/>
</clipPath>
</defs>
</svg>
