<svg preserveAspectRatio="none" width="100%" height="100%" overflow="visible" style="display: block;" viewBox="0 0 90 30" fill="none" xmlns="http://www.w3.org/2000/svg">
<g id="Layer_2" clip-path="url(#clip0_1158_3093)">
<path id="Vector" d="M89.4438 0H80.4856C80.1781 0 79.9294 0.248176 79.9294 0.555027V9.41484C79.9294 9.72169 79.6807 9.96987 79.3731 9.96987H20.5386C20.231 9.96987 19.9823 10.218 19.9823 10.5249V19.3966C19.9823 19.7035 19.7336 19.9516 19.4261 19.9516H10.6268C10.3193 19.9516 10.0706 19.7035 10.0706 19.3966V10.5312C10.0706 10.2244 9.82192 9.97621 9.51442 9.97621H0.556213C0.248707 9.97621 0 10.2244 0 10.5312V19.4703C0 19.7772 0.248707 20.0254 0.556213 20.0254H9.43496C9.74246 20.0254 9.99117 20.2736 9.99117 20.5804V29.4458C9.99117 29.7526 10.2399 30.0008 10.5474 30.0008H19.5056C19.8131 30.0008 20.0618 29.7526 20.0618 29.4458V20.586C20.0618 20.2791 20.3105 20.0309 20.618 20.0309H79.4534C79.7609 20.0309 80.0096 19.7827 80.0096 19.4759V10.6042C80.0096 10.2973 80.2583 10.0492 80.5658 10.0492H89.4446C89.7521 10.0492 90.0008 9.80098 90.0008 9.49413V0.555027C90.0008 0.248176 89.7521 0 89.4446 0H89.4438ZM8.40199 18.9145H1.66864C1.36113 18.9145 1.11243 18.6664 1.11243 18.3595V11.6405C1.11243 11.3337 1.36113 11.0855 1.66864 11.0855H8.40199C8.7095 11.0855 8.9582 11.3337 8.9582 11.6405V18.3595C8.9582 18.6664 8.7095 18.9145 8.40199 18.9145Z" fill="var(--fill-0, white)"/>
</g>
<defs>
<clipPath id="clip0_1158_3093">
<rect width="90" height="30" fill="white"/>
</clipPath>
</defs>
</svg>
