<svg preserveAspectRatio="none" width="100%" height="100%" overflow="visible" style="display: block;" viewBox="0 0 90.41 105.272" fill="none" xmlns="http://www.w3.org/2000/svg">
<g id="Group 372918">
<path id="Vector" d="M41.734 7.09816H42.0281C42.1328 7.15567 42.2504 7.19092 42.3773 7.19092H48.0308C48.1576 7.19092 48.2752 7.15567 48.38 7.09816H48.674V6.80132C48.731 6.69557 48.7659 6.57684 48.7659 6.44883V0.742097C48.7659 0.614086 48.731 0.49535 48.674 0.389601V0.0927622H48.38C48.2752 0.0352496 48.1576 0 48.0308 0H42.3773C42.2504 0 42.1328 0.0352496 42.0281 0.0927622H41.734V0.389601C41.677 0.49535 41.6421 0.614086 41.6421 0.742097V6.44883C41.6421 6.57684 41.677 6.69557 41.734 6.80132V7.09816Z" fill="var(--fill-0, white)"/>
<path id="Vector_2" d="M48.3819 49.1343C48.2772 49.0768 48.1595 49.0415 48.0327 49.0415H42.3792C42.2524 49.0415 42.1348 49.0768 42.03 49.1343H41.7359V49.4311C41.679 49.5369 41.644 49.6556 41.644 49.7836V55.4903C41.644 55.6183 41.679 55.7371 41.7359 55.8428V56.1397H42.03C42.1348 56.1972 42.2524 56.2324 42.3792 56.2324H48.0327C48.1595 56.2324 48.2772 56.1972 48.3819 56.1397H48.676V55.8428C48.733 55.7371 48.7679 55.6183 48.7679 55.4903V49.7836C48.7679 49.6556 48.733 49.5369 48.676 49.4311V49.1343H48.3819Z" fill="var(--fill-0, white)"/>
<path id="Vector_3" d="M55.6161 70.1504V69.8536C55.6731 69.7478 55.708 69.6291 55.708 69.5011V63.9799C55.708 63.5699 56.037 63.2378 56.4432 63.2378H61.9129C62.0397 63.2378 62.1573 63.2025 62.2621 63.145H62.5561V62.8482C62.6131 62.7424 62.648 62.6237 62.648 62.4957V56.789C62.648 56.661 62.6131 56.5422 62.5561 56.4365V56.1396H62.2621C62.1573 56.0821 62.0397 56.0469 61.9129 56.0469H56.2594C56.1325 56.0469 56.0149 56.0821 55.9102 56.1396H55.6161V56.4365C55.5591 56.5422 55.5242 56.661 55.5242 56.789V62.3102C55.5242 62.7202 55.1952 63.0523 54.789 63.0523H49.3193C49.1925 63.0523 49.0749 63.0875 48.9701 63.145H48.676V63.4419C48.619 63.5476 48.5841 63.6664 48.5841 63.7944V69.3156C48.5841 69.7256 48.2551 70.0577 47.8489 70.0577H42.563C42.1568 70.0577 41.8279 69.7256 41.8279 69.3156V63.7944C41.8279 63.6664 41.7929 63.5476 41.736 63.4419V63.145H41.4419C41.3371 63.0875 41.2195 63.0523 41.0927 63.0523H35.623C35.2168 63.0523 34.8878 62.7202 34.8878 62.3102V56.789C34.8878 56.661 34.8529 56.5422 34.7959 56.4365V56.1396H34.5018C34.3971 56.0821 34.2794 56.0469 34.1526 56.0469H28.4991C28.3723 56.0469 28.2547 56.0821 28.1499 56.1396H27.8558V56.4365C27.7989 56.5422 27.7639 56.661 27.7639 56.789V62.3102C27.7639 62.7202 27.4349 63.0523 27.0288 63.0523H21.559C21.4322 63.0523 21.3146 63.0875 21.2098 63.145H20.9158V63.4419C20.8588 63.5476 20.8239 63.6664 20.8239 63.7944V76.321C20.8239 76.731 20.4949 77.0631 20.0887 77.0631H14.8028C14.3966 77.0631 14.0676 76.731 14.0676 76.321V28.9492C14.0676 28.5392 14.3966 28.2071 14.8028 28.2071H20.0887C20.4949 28.2071 20.8239 28.5392 20.8239 28.9492V34.4704C20.8239 34.5984 20.8588 34.7171 20.9158 34.8229V35.1197H21.2098C21.3146 35.1772 21.4322 35.2125 21.559 35.2125H27.2125C27.3394 35.2125 27.457 35.1772 27.5618 35.1197H27.8558V34.8229C27.9128 34.7171 27.9477 34.5984 27.9477 34.4704V28.9492C27.9477 28.5392 28.2767 28.2071 28.6829 28.2071H34.1526C34.2794 28.2071 34.3971 28.1718 34.5018 28.1143H34.7959V27.8175C34.8529 27.7117 34.8878 27.593 34.8878 27.465V21.7583C34.8878 21.6303 34.8529 21.5115 34.7959 21.4058V21.1089H34.5018C34.3971 21.0514 34.2794 21.0162 34.1526 21.0162H28.6829C28.2767 21.0162 27.9477 20.6841 27.9477 20.2741V14.7529C27.9477 14.6249 27.9128 14.5061 27.8558 14.4004V14.1035H27.5618C27.457 14.046 27.3394 14.0108 27.2125 14.0108H21.7428C21.3367 14.0108 21.0077 13.6787 21.0077 13.2687V7.74747C21.0077 7.61946 20.9727 7.50072 20.9158 7.39497V7.09813H20.6217C20.5169 7.04062 20.3993 7.00537 20.2725 7.00537H14.619C14.4922 7.00537 14.3745 7.04062 14.2698 7.09813H13.9757V7.39497C13.9187 7.50072 13.8838 7.61946 13.8838 7.74747V13.2687C13.8838 13.6787 13.5548 14.0108 13.1486 14.0108H7.67892C7.5521 14.0108 7.43447 14.046 7.32971 14.1035H7.03564V14.4004C6.97866 14.5061 6.94374 14.6249 6.94374 14.7529V20.2741C6.94374 20.6841 6.61475 21.0162 6.20856 21.0162H0.735176C0.608358 21.0162 0.49073 21.0514 0.385968 21.1089H0.091897V21.4058C0.0349209 21.5115 0 21.6303 0 21.7583V27.465C0 27.593 0.0349209 27.7117 0.091897 27.8175V28.1143H0.385968C0.49073 28.1718 0.608358 28.2071 0.735176 28.2071H6.20489C6.61107 28.2071 6.94006 28.5392 6.94006 28.9492V48.2975C6.94006 48.7075 6.61107 49.0396 6.20489 49.0396H0.735176C0.608358 49.0396 0.49073 49.0749 0.385968 49.1324H0.091897V49.4292C0.0349209 49.535 0 49.6537 0 49.7817V55.4884C0 55.6165 0.0349209 55.7352 0.091897 55.8409V56.1378H0.385968C0.49073 56.1953 0.608358 56.2305 0.735176 56.2305H6.20489C6.61107 56.2305 6.94006 56.5626 6.94006 56.9726V76.321C6.94006 76.731 6.61107 77.0631 6.20489 77.0631H0.735176C0.608358 77.0631 0.49073 77.0983 0.385968 77.1558H0.091897V77.4527C0.0349209 77.5584 0 77.6772 0 77.8052V83.5119C0 83.6399 0.0349209 83.7586 0.091897 83.8644V84.1612H0.385968C0.49073 84.2187 0.608358 84.254 0.735176 84.254H6.20489C6.61107 84.254 6.94006 84.5861 6.94006 84.9961V90.5173C6.94006 90.6453 6.97498 90.764 7.03196 90.8698V91.1666H7.32603C7.43079 91.2241 7.54842 91.2594 7.67524 91.2594H13.3287C13.4556 91.2594 13.5732 91.2241 13.678 91.1666H13.972V90.8698C14.029 90.764 14.0639 90.6453 14.0639 90.5173V84.9961C14.0639 84.5861 14.3929 84.254 14.7991 84.254H20.085C20.4912 84.254 20.8202 84.5861 20.8202 84.9961V104.53C20.8202 104.658 20.8551 104.777 20.9121 104.882V105.179H21.2062C21.3109 105.237 21.4285 105.272 21.5554 105.272H27.2089C27.3357 105.272 27.4533 105.237 27.5581 105.179H27.8522V104.882C27.9091 104.777 27.944 104.658 27.944 104.53V63.9799C27.944 63.5699 28.273 63.2378 28.6792 63.2378H33.9651C34.3713 63.2378 34.7003 63.5699 34.7003 63.9799V69.5011C34.7003 69.6291 34.7352 69.7478 34.7922 69.8536V70.1504H35.0863C35.191 70.2079 35.3087 70.2432 35.4355 70.2432H40.9052C41.3114 70.2432 41.6404 70.5753 41.6404 70.9853V76.5065C41.6404 76.6345 41.6753 76.7532 41.7323 76.859V77.1558H42.0264C42.1311 77.2133 42.2487 77.2486 42.3756 77.2486H48.0291C48.1559 77.2486 48.2735 77.2133 48.3783 77.1558H48.6723V76.859C48.7293 76.7532 48.7642 76.6345 48.7642 76.5065V70.9853C48.7642 70.5753 49.0932 70.2432 49.4994 70.2432H54.9691C55.0959 70.2432 55.2136 70.2079 55.3183 70.1504H55.6124H55.6161ZM13.4188 85.4636V89.8661C13.4188 90.2761 13.0898 90.6082 12.6836 90.6082H8.3222C7.91601 90.6082 7.58702 90.2761 7.58702 89.8661V85.4636C7.58702 85.0536 7.91601 84.7215 8.3222 84.7215H12.6836C13.0898 84.7215 13.4188 85.0536 13.4188 85.4636ZM27.7621 27.2813C27.7621 27.6913 27.4331 28.0234 27.0269 28.0234H21.741C21.3348 28.0234 21.0058 27.6913 21.0058 27.2813V21.9456C21.0058 21.5356 21.3348 21.2035 21.741 21.2035H27.0269C27.4331 21.2035 27.7621 21.5356 27.7621 21.9456V27.2813ZM14.0658 14.9384C14.0658 14.5284 14.3948 14.1963 14.8009 14.1963H20.0869C20.493 14.1963 20.822 14.5284 20.822 14.9384V20.2741C20.822 20.6841 20.493 21.0162 20.0869 21.0162H14.8009C14.3948 21.0162 14.0658 20.6841 14.0658 20.2741V14.9384ZM14.5271 26.8138V22.4113C14.5271 22.0013 14.8561 21.6692 15.2623 21.6692H19.6237C20.0299 21.6692 20.3589 22.0013 20.3589 22.4113V26.8138C20.3589 27.2238 20.0299 27.5559 19.6237 27.5559H15.2623C14.8561 27.5559 14.5271 27.2238 14.5271 26.8138ZM7.12386 21.9456C7.12386 21.5356 7.45285 21.2035 7.85903 21.2035H13.145C13.5511 21.2035 13.8801 21.5356 13.8801 21.9456V27.2813C13.8801 27.6913 13.5511 28.0234 13.145 28.0234H7.85903C7.45285 28.0234 7.12386 27.6913 7.12386 27.2813V21.9456ZM7.12386 77.9907C7.12386 77.5807 7.45285 77.2486 7.85903 77.2486H13.145C13.5511 77.2486 13.8801 77.5807 13.8801 77.9907V83.3264C13.8801 83.7364 13.5511 84.0685 13.145 84.0685H7.85903C7.45285 84.0685 7.12386 83.7364 7.12386 83.3264V77.9907ZM6.47874 50.4348V54.8373C6.47874 55.2473 6.14975 55.5794 5.74356 55.5794H1.38213C0.975946 55.5794 0.646955 55.2473 0.646955 54.8373V50.4348C0.646955 50.0248 0.975946 49.6927 1.38213 49.6927H5.74356C6.14975 49.6927 6.47874 50.0248 6.47874 50.4348Z" fill="var(--fill-0, white)"/>
<path id="Vector_4" d="M83.4699 42.0343V28.9511C83.4699 28.5411 83.7989 28.209 84.2051 28.209H89.6748C89.8016 28.209 89.9193 28.1737 90.024 28.1162H90.3181V27.8194C90.3751 27.7136 90.41 27.5949 90.41 27.4669V21.7602C90.41 21.6321 90.3751 21.5134 90.3181 21.4077V21.1108H90.024C89.9193 21.0533 89.8016 21.0181 89.6748 21.0181H84.2051C83.7989 21.0181 83.4699 20.686 83.4699 20.276V14.7548C83.4699 14.6267 83.435 14.508 83.378 14.4023V14.1054H83.084C82.9792 14.0479 82.8616 14.0127 82.7348 14.0127H77.0813C76.9544 14.0127 76.8368 14.0479 76.732 14.1054H76.438V14.4023C76.381 14.508 76.3461 14.6267 76.3461 14.7548V20.276C76.3461 20.686 76.0171 21.0181 75.6109 21.0181H70.325C69.9188 21.0181 69.5898 20.686 69.5898 20.276V0.742097C69.5898 0.614086 69.5549 0.49535 69.4979 0.389601V0.0927622H69.2038C69.0991 0.0352496 68.9814 0 68.8546 0H63.2011C63.0743 0 62.9567 0.0352496 62.8519 0.0927622H62.5578V0.389601C62.5009 0.49535 62.4659 0.614086 62.4659 0.742097V41.2922C62.4659 41.7022 62.137 42.0343 61.7308 42.0343H56.4448C56.0387 42.0343 55.7097 41.7022 55.7097 41.2922V35.7709C55.7097 35.6429 55.6747 35.5242 55.6178 35.4185V35.1216H55.3237C55.2189 35.0641 55.1013 35.0289 54.9745 35.0289H49.5048C49.0986 35.0289 48.7696 34.6968 48.7696 34.2868V28.7656C48.7696 28.6375 48.7347 28.5188 48.6777 28.4131V28.1162H48.3836C48.2789 28.0587 48.1613 28.0235 48.0344 28.0235H42.3809C42.2541 28.0235 42.1365 28.0587 42.0317 28.1162H41.7376V28.4131C41.6807 28.5188 41.6458 28.6375 41.6458 28.7656V34.2868C41.6458 34.6968 41.3168 35.0289 40.9106 35.0289H35.4409C35.314 35.0289 35.1964 35.0641 35.0917 35.1216H34.7976V35.4185C34.7406 35.5242 34.7057 35.6429 34.7057 35.7709V41.2922C34.7057 41.7022 34.3767 42.0343 33.9705 42.0343H28.5008C28.374 42.0343 28.2564 42.0695 28.1516 42.127H27.8575V42.4239C27.8005 42.5296 27.7656 42.6483 27.7656 42.7763V48.4831C27.7656 48.6111 27.8005 48.7298 27.8575 48.8356V49.1324H28.1516C28.2564 49.1899 28.374 49.2252 28.5008 49.2252H34.1543C34.2811 49.2252 34.3988 49.1899 34.5035 49.1324H34.7976V48.8356C34.8546 48.7298 34.8895 48.6111 34.8895 48.4831V42.9619C34.8895 42.5519 35.2185 42.2198 35.6247 42.2198H41.0944C41.2212 42.2198 41.3388 42.1845 41.4436 42.127H41.7376V41.8302C41.7946 41.7244 41.8295 41.6057 41.8295 41.4777V35.9565C41.8295 35.5465 42.1585 35.2144 42.5647 35.2144H47.8506C48.2568 35.2144 48.5858 35.5465 48.5858 35.9565V41.4777C48.5858 41.6057 48.6207 41.7244 48.6777 41.8302V42.127H48.9718C49.0765 42.1845 49.1942 42.2198 49.321 42.2198H54.7907C55.1969 42.2198 55.5259 42.5519 55.5259 42.9619V48.4831C55.5259 48.6111 55.5608 48.7298 55.6178 48.8356V49.1324H55.9118C56.0166 49.1899 56.1342 49.2252 56.2611 49.2252H61.9146C62.0414 49.2252 62.159 49.1899 62.2638 49.1324H62.5578V48.8356C62.6148 48.7298 62.6497 48.6111 62.6497 48.4831V42.9619C62.6497 42.5519 62.9787 42.2198 63.3849 42.2198H68.8546C68.9814 42.2198 69.0991 42.1845 69.2038 42.127H69.4979V41.8302C69.5549 41.7244 69.5898 41.6057 69.5898 41.4777V28.9511C69.5898 28.5411 69.9188 28.209 70.325 28.209H75.6109C76.0171 28.209 76.3461 28.5411 76.3461 28.9511V76.3229C76.3461 76.7329 76.0171 77.065 75.6109 77.065H70.325C69.9188 77.065 69.5898 76.7329 69.5898 76.3229V70.8017C69.5898 70.6736 69.5549 70.5549 69.4979 70.4492V70.1523H69.2038C69.0991 70.0948 68.9814 70.0596 68.8546 70.0596H63.2011C63.0743 70.0596 62.9567 70.0948 62.8519 70.1523H62.5578V70.4492C62.5009 70.5549 62.4659 70.6736 62.4659 70.8017V76.3229C62.4659 76.7329 62.137 77.065 61.7308 77.065H56.2611C56.1342 77.065 56.0166 77.1002 55.9118 77.1577H55.6178V77.4546C55.5608 77.5603 55.5259 77.679 55.5259 77.8071V83.5138C55.5259 83.6418 55.5608 83.7605 55.6178 83.8663V84.1631H55.9118C56.0166 84.2206 56.1342 84.2559 56.2611 84.2559H61.7308C62.137 84.2559 62.4659 84.588 62.4659 84.998V90.5192C62.4659 90.6472 62.5009 90.7659 62.5578 90.8717V91.1685H62.8519C62.9567 91.226 63.0743 91.2613 63.2011 91.2613H68.6708C69.077 91.2613 69.406 91.5934 69.406 92.0034V97.5246C69.406 97.6526 69.4409 97.7713 69.4979 97.8771V98.1739H69.792C69.8967 98.2314 70.0144 98.2667 70.1412 98.2667H75.7947C75.9215 98.2667 76.0391 98.2314 76.1439 98.1739H76.438V97.8771C76.4949 97.7713 76.5299 97.6526 76.5299 97.5246V92.0034C76.5299 91.5934 76.8589 91.2613 77.265 91.2613H82.7348C82.8616 91.2613 82.9792 91.226 83.084 91.1685H83.378V90.8717C83.435 90.7659 83.4699 90.6472 83.4699 90.5192V84.998C83.4699 84.588 83.7989 84.2559 84.2051 84.2559H89.6748C89.8016 84.2559 89.9193 84.2206 90.024 84.1631H90.3181V83.8663C90.3751 83.7605 90.41 83.6418 90.41 83.5138V77.8071C90.41 77.679 90.3751 77.5603 90.3181 77.4546V77.1577H90.024C89.9193 77.1002 89.8016 77.065 89.6748 77.065H84.2051C83.7989 77.065 83.4699 76.7329 83.4699 76.3229V56.9745C83.4699 56.5645 83.7989 56.2324 84.2051 56.2324H89.6748C89.8016 56.2324 89.9193 56.1972 90.024 56.1397H90.3181V55.8428C90.3751 55.7371 90.41 55.6183 90.41 55.4903V49.7836C90.41 49.6556 90.3751 49.5369 90.3181 49.4311V49.1343H90.024C89.9193 49.0768 89.8016 49.0415 89.6748 49.0415H84.2051C83.7989 49.0415 83.4699 48.7094 83.4699 48.2994V42.0361V42.0343ZM62.6479 77.9907C62.6479 77.5807 62.9769 77.2486 63.3831 77.2486H68.669C69.0752 77.2486 69.4042 77.5807 69.4042 77.9907V83.3264C69.4042 83.7364 69.0752 84.0685 68.669 84.0685H63.3831C62.9769 84.0685 62.6479 83.7364 62.6479 83.3264V77.9907ZM75.8829 78.4582V82.8607C75.8829 83.2707 75.5539 83.6028 75.1477 83.6028H70.7863C70.3801 83.6028 70.0511 83.2707 70.0511 82.8607V78.4582C70.0511 78.0482 70.3801 77.7161 70.7863 77.7161H75.1477C75.5539 77.7161 75.8829 78.0482 75.8829 78.4582ZM69.588 84.998C69.588 84.588 69.917 84.2559 70.3231 84.2559H75.6091C76.0152 84.2559 76.3442 84.588 76.3442 84.998V90.3337C76.3442 90.7437 76.0152 91.0758 75.6091 91.0758H70.3231C69.917 91.0758 69.588 90.7437 69.588 90.3337V84.998ZM76.9912 19.8084V15.4059C76.9912 14.9959 77.3202 14.6638 77.7264 14.6638H82.0878C82.494 14.6638 82.823 14.9959 82.823 15.4059V19.8084C82.823 20.2184 82.494 20.5505 82.0878 20.5505H77.7264C77.3202 20.5505 76.9912 20.2184 76.9912 19.8084ZM83.2861 27.2814C83.2861 27.6914 82.9571 28.0235 82.551 28.0235H77.265C76.8589 28.0235 76.5299 27.6914 76.5299 27.2814V21.9457C76.5299 21.5357 76.8589 21.2036 77.265 21.2036H82.551C82.9571 21.2036 83.2861 21.5357 83.2861 21.9457V27.2814ZM83.2861 83.3283C83.2861 83.7383 82.9571 84.0704 82.551 84.0704H77.265C76.8589 84.0704 76.5299 83.7383 76.5299 83.3283V77.9926C76.5299 77.5826 76.8589 77.2505 77.265 77.2505H82.551C82.9571 77.2505 83.2861 77.5826 83.2861 77.9926V83.3283ZM83.9313 54.8373V50.4348C83.9313 50.0248 84.2602 49.6927 84.6664 49.6927H89.0279C89.434 49.6927 89.763 50.0248 89.763 50.4348V54.8373C89.763 55.2473 89.434 55.5794 89.0279 55.5794H84.6664C84.2602 55.5794 83.9313 55.2473 83.9313 54.8373Z" fill="var(--fill-0, white)"/>
<path id="Vector_5" d="M48.676 98.174H48.3819C48.2772 98.1165 48.1595 98.0812 48.0327 98.0812H42.3792C42.2524 98.0812 42.1348 98.1165 42.03 98.174H41.7359V98.4708C41.679 98.5766 41.644 98.6953 41.644 98.8233V104.53C41.644 104.658 41.679 104.777 41.7359 104.883V105.179H42.03C42.1348 105.237 42.2524 105.272 42.3792 105.272H48.0327C48.1595 105.272 48.2772 105.237 48.3819 105.179H48.676V104.883C48.733 104.777 48.7679 104.658 48.7679 104.53V98.8233C48.7679 98.6953 48.733 98.5766 48.676 98.4708V98.174Z" fill="var(--fill-0, white)"/>
</g>
</svg>
