<svg preserveAspectRatio="xMidYMid meet" style="display: block;" viewBox="0 0 101.208 101.208" fill="none" xmlns="http://www.w3.org/2000/svg">
<g id="Group 372919">
<path id="Vector" d="M6.29853 0.450266V5.58366C6.29853 5.97854 5.9787 6.29837 5.58383 6.29837H1.16514C0.770266 6.29837 0.450434 5.97854 0.450434 5.58366V1.16497C0.450434 0.770098 0.770266 0.450266 1.16514 0.450266H6.29853ZM6.74701 0H0.536199C0.239595 0 0.000167847 0.239427 0.000167847 0.536031V6.03214C0.000167847 6.42701 0.32 6.74685 0.714876 6.74685H6.03231C6.42718 6.74685 6.74701 6.42701 6.74701 6.03214V0Z" fill="var(--fill-0, white)"/>
<path id="Vector_2" d="M46.7811 0.450266V5.58366C46.7811 5.97854 46.4613 6.29837 46.0664 6.29837H41.6478C41.2529 6.29837 40.933 5.97854 40.933 5.58366V1.16497C40.933 0.770098 41.2529 0.450266 41.6478 0.450266H46.7811ZM47.2314 0H41.0206C40.724 0 40.4846 0.239427 40.4846 0.536031V6.03214C40.4846 6.42701 40.8044 6.74685 41.1993 6.74685H46.5167C46.9116 6.74685 47.2314 6.42701 47.2314 6.03214V0Z" fill="var(--fill-0, white)"/>
<path id="Vector_3" d="M60.2752 0.450266V5.58366C60.2752 5.97854 59.9554 6.29837 59.5605 6.29837H55.1418C54.747 6.29837 54.4271 5.97854 54.4271 5.58366V1.16497C54.4271 0.770098 54.747 0.450266 55.1418 0.450266H60.2752ZM60.7255 0H54.5147C54.2181 0 53.9787 0.239427 53.9787 0.536031V6.03214C53.9787 6.42701 54.2985 6.74685 54.6934 6.74685H60.0108C60.4057 6.74685 60.7255 6.42701 60.7255 6.03214V0Z" fill="var(--fill-0, white)"/>
<path id="Vector_4" d="M100.76 0.450266V5.58366C100.76 5.97854 100.44 6.29837 100.045 6.29837H95.6264C95.2315 6.29837 94.9116 5.97854 94.9116 5.58366V1.16497C94.9116 0.770098 95.2315 0.450266 95.6264 0.450266H100.76ZM101.208 0H94.9974C94.7008 0 94.4614 0.239427 94.4614 0.536031V6.03214C94.4614 6.42701 94.7812 6.74685 95.1761 6.74685H100.494C100.888 6.74685 101.208 6.42701 101.208 6.03214V0Z" fill="var(--fill-0, white)"/>
<path id="Vector_5" d="M26.2747 6.74665H20.9572C20.5625 6.74665 20.2425 7.06664 20.2425 7.46136V12.7788C20.2425 13.1735 20.5625 13.4935 20.9572 13.4935H26.2747C26.6694 13.4935 26.9894 13.1735 26.9894 12.7788V7.46136C26.9894 7.06664 26.6694 6.74665 26.2747 6.74665Z" fill="var(--fill-0, white)"/>
<path id="Vector_6" d="M53.2638 6.74665H47.9463C47.5516 6.74665 47.2316 7.06664 47.2316 7.46136V12.7788C47.2316 13.1735 47.5516 13.4935 47.9463 13.4935H53.2638C53.6585 13.4935 53.9785 13.1735 53.9785 12.7788V7.46136C53.9785 7.06664 53.6585 6.74665 53.2638 6.74665Z" fill="var(--fill-0, white)"/>
<path id="Vector_7" d="M80.251 6.74665H74.9336C74.5389 6.74665 74.2189 7.06664 74.2189 7.46136V12.7788C74.2189 13.1735 74.5389 13.4935 74.9336 13.4935H80.251C80.6458 13.4935 80.9658 13.1735 80.9658 12.7788V7.46136C80.9658 7.06664 80.6458 6.74665 80.251 6.74665Z" fill="var(--fill-0, white)"/>
<path id="Vector_8" d="M19.7921 13.9439V19.0773C19.7921 19.4722 19.4722 19.792 19.0774 19.792H14.6587C14.2638 19.792 13.944 19.4722 13.944 19.0773V14.6586C13.944 14.2637 14.2638 13.9439 14.6587 13.9439H19.7921ZM20.2423 13.4936H14.2102C13.8153 13.4936 13.4955 13.8135 13.4955 14.2084V19.5258C13.4955 19.9207 13.8153 20.2405 14.2102 20.2405H19.5276C19.9225 20.2405 20.2423 19.9207 20.2423 19.5258V13.4936Z" fill="var(--fill-0, white)"/>
<path id="Vector_9" d="M33.0217 13.4936H27.7043C27.3096 13.4936 26.9896 13.8136 26.9896 14.2084V19.5258C26.9896 19.9205 27.3096 20.2405 27.7043 20.2405H33.0217C33.4164 20.2405 33.7364 19.9205 33.7364 19.5258V14.2084C33.7364 13.8136 33.4164 13.4936 33.0217 13.4936Z" fill="var(--fill-0, white)"/>
<path id="Vector_10" d="M73.504 13.4936H68.1866C67.7918 13.4936 67.4719 13.8136 67.4719 14.2084V19.5258C67.4719 19.9205 67.7918 20.2405 68.1866 20.2405H73.504C73.8987 20.2405 74.2187 19.9205 74.2187 19.5258V14.2084C74.2187 13.8136 73.8987 13.4936 73.504 13.4936Z" fill="var(--fill-0, white)"/>
<path id="Vector_11" d="M87.2643 13.9439V19.0773C87.2643 19.4722 86.9445 19.792 86.5496 19.792H82.1309C81.736 19.792 81.4162 19.4722 81.4162 19.0773V14.6586C81.4162 14.2637 81.736 13.9439 82.1309 13.9439H87.2643ZM87.7146 13.4936H81.6824C81.2876 13.4936 80.9677 13.8135 80.9677 14.2084V19.5258C80.9677 19.9207 81.2876 20.2405 81.6824 20.2405H86.9999C87.3948 20.2405 87.7146 19.9207 87.7146 19.5258V13.4936Z" fill="var(--fill-0, white)"/>
<path id="Vector_12" d="M26.2747 20.2424H20.9572C20.5625 20.2424 20.2425 20.5624 20.2425 20.9571V26.2745C20.2425 26.6692 20.5625 26.9892 20.9572 26.9892H26.2747C26.6694 26.9892 26.9894 26.6692 26.9894 26.2745V20.9571C26.9894 20.5624 26.6694 20.2424 26.2747 20.2424Z" fill="var(--fill-0, white)"/>
<path id="Vector_13" d="M80.251 20.2424H74.9336C74.5389 20.2424 74.2189 20.5624 74.2189 20.9571V26.2745C74.2189 26.6692 74.5389 26.9892 74.9336 26.9892H80.251C80.6458 26.9892 80.9658 26.6692 80.9658 26.2745V20.9571C80.9658 20.5624 80.6458 20.2424 80.251 20.2424Z" fill="var(--fill-0, white)"/>
<path id="Vector_14" d="M19.5258 26.9891H14.2084C13.8137 26.9891 13.4937 27.3091 13.4937 27.7038V33.0212C13.4937 33.4159 13.8137 33.7359 14.2084 33.7359H19.5258C19.9206 33.7359 20.2405 33.4159 20.2405 33.0212V27.7038C20.2405 27.3091 19.9206 26.9891 19.5258 26.9891Z" fill="var(--fill-0, white)"/>
<path id="Vector_15" d="M46.5149 26.9891H41.1975C40.8028 26.9891 40.4828 27.3091 40.4828 27.7038V33.0212C40.4828 33.4159 40.8028 33.7359 41.1975 33.7359H46.5149C46.9096 33.7359 47.2296 33.4159 47.2296 33.0212V27.7038C47.2296 27.3091 46.9096 26.9891 46.5149 26.9891Z" fill="var(--fill-0, white)"/>
<path id="Vector_16" d="M60.0108 26.9891H54.6934C54.2986 26.9891 53.9787 27.3091 53.9787 27.7038V33.0212C53.9787 33.4159 54.2986 33.7359 54.6934 33.7359H60.0108C60.4055 33.7359 60.7255 33.4159 60.7255 33.0212V27.7038C60.7255 27.3091 60.4055 26.9891 60.0108 26.9891Z" fill="var(--fill-0, white)"/>
<path id="Vector_17" d="M86.9999 26.9891H81.6824C81.2877 26.9891 80.9677 27.3091 80.9677 27.7038V33.0212C80.9677 33.4159 81.2877 33.7359 81.6824 33.7359H86.9999C87.3946 33.7359 87.7146 33.4159 87.7146 33.0212V27.7038C87.7146 27.3091 87.3946 26.9891 86.9999 26.9891Z" fill="var(--fill-0, white)"/>
<path id="Vector_18" d="M19.5258 33.7361H14.2084C13.8137 33.7361 13.4937 34.0561 13.4937 34.4508V39.7682C13.4937 40.1629 13.8137 40.4829 14.2084 40.4829H19.5258C19.9206 40.4829 20.2405 40.1629 20.2405 39.7682V34.4508C20.2405 34.0561 19.9206 33.7361 19.5258 33.7361Z" fill="var(--fill-0, white)"/>
<path id="Vector_19" d="M86.9999 33.7361H81.6824C81.2877 33.7361 80.9677 34.0561 80.9677 34.4508V39.7682C80.9677 40.1629 81.2877 40.4829 81.6824 40.4829H86.9999C87.3946 40.4829 87.7146 40.1629 87.7146 39.7682V34.4508C87.7146 34.0561 87.3946 33.7361 86.9999 33.7361Z" fill="var(--fill-0, white)"/>
<path id="Vector_20" d="M6.03219 40.4828H0.714759C0.320037 40.4828 5.07543e-05 40.8028 5.07543e-05 41.1975V46.5149C5.07543e-05 46.9096 0.320037 47.2296 0.714759 47.2296H6.03219C6.42691 47.2296 6.7469 46.9096 6.7469 46.5149V41.1975C6.7469 40.8028 6.42691 40.4828 6.03219 40.4828Z" fill="var(--fill-0, white)"/>
<path id="Vector_21" d="M19.5258 40.4828H14.2084C13.8137 40.4828 13.4937 40.8028 13.4937 41.1975V46.5149C13.4937 46.9096 13.8137 47.2296 14.2084 47.2296H19.5258C19.9206 47.2296 20.2405 46.9096 20.2405 46.5149V41.1975C20.2405 40.8028 19.9206 40.4828 19.5258 40.4828Z" fill="var(--fill-0, white)"/>
<path id="Vector_22" d="M86.9999 40.4828H81.6824C81.2877 40.4828 80.9677 40.8028 80.9677 41.1975V46.5149C80.9677 46.9096 81.2877 47.2296 81.6824 47.2296H86.9999C87.3946 47.2296 87.7146 46.9096 87.7146 46.5149V41.1975C87.7146 40.8028 87.3946 40.4828 86.9999 40.4828Z" fill="var(--fill-0, white)"/>
<path id="Vector_23" d="M100.494 40.4828H95.1761C94.7814 40.4828 94.4614 40.8028 94.4614 41.1975V46.5149C94.4614 46.9096 94.7814 47.2296 95.1761 47.2296H100.494C100.888 47.2296 101.208 46.9096 101.208 46.5149V41.1975C101.208 40.8028 100.888 40.4828 100.494 40.4828Z" fill="var(--fill-0, white)"/>
<path id="Vector_24" d="M12.7792 47.2315H7.4618C7.06708 47.2315 6.7471 47.5515 6.7471 47.9462V53.2636C6.7471 53.6584 7.06708 53.9784 7.4618 53.9784H12.7792C13.174 53.9784 13.4939 53.6584 13.4939 53.2636V47.9462C13.4939 47.5515 13.174 47.2315 12.7792 47.2315Z" fill="var(--fill-0, white)"/>
<path id="Vector_25" d="M19.5258 47.2315H14.2084C13.8137 47.2315 13.4937 47.5515 13.4937 47.9462V53.2636C13.4937 53.6584 13.8137 53.9784 14.2084 53.9784H19.5258C19.9206 53.9784 20.2405 53.6584 20.2405 53.2636V47.9462C20.2405 47.5515 19.9206 47.2315 19.5258 47.2315Z" fill="var(--fill-0, white)"/>
<path id="Vector_26" d="M33.0217 47.2315H27.7043C27.3096 47.2315 26.9896 47.5515 26.9896 47.9462V53.2636C26.9896 53.6584 27.3096 53.9784 27.7043 53.9784H33.0217C33.4164 53.9784 33.7364 53.6584 33.7364 53.2636V47.9462C33.7364 47.5515 33.4164 47.2315 33.0217 47.2315Z" fill="var(--fill-0, white)"/>
<path id="Vector_27" d="M53.5282 47.68V52.8134C53.5282 53.2083 53.2084 53.5281 52.8135 53.5281H48.3948C47.9999 53.5281 47.6801 53.2083 47.6801 52.8134V48.3947C47.6801 47.9998 47.9999 47.68 48.3948 47.68H53.5282ZM53.9785 47.2315H47.9463C47.5514 47.2315 47.2316 47.5513 47.2316 47.9462V53.2636C47.2316 53.6585 47.5514 53.9784 47.9463 53.9784H53.2638C53.6586 53.9784 53.9785 53.6585 53.9785 53.2636V47.2315Z" fill="var(--fill-0, white)"/>
<path id="Vector_28" d="M73.504 47.2315H68.1866C67.7918 47.2315 67.4719 47.5515 67.4719 47.9462V53.2636C67.4719 53.6584 67.7918 53.9784 68.1866 53.9784H73.504C73.8987 53.9784 74.2187 53.6584 74.2187 53.2636V47.9462C74.2187 47.5515 73.8987 47.2315 73.504 47.2315Z" fill="var(--fill-0, white)"/>
<path id="Vector_29" d="M86.9999 47.2315H81.6824C81.2877 47.2315 80.9677 47.5515 80.9677 47.9462V53.2636C80.9677 53.6584 81.2877 53.9784 81.6824 53.9784H86.9999C87.3946 53.9784 87.7146 53.6584 87.7146 53.2636V47.9462C87.7146 47.5515 87.3946 47.2315 86.9999 47.2315Z" fill="var(--fill-0, white)"/>
<path id="Vector_30" d="M93.7465 47.2315H88.429C88.0343 47.2315 87.7143 47.5515 87.7143 47.9462V53.2636C87.7143 53.6584 88.0343 53.9784 88.429 53.9784H93.7465C94.1412 53.9784 94.4612 53.6584 94.4612 53.2636V47.9462C94.4612 47.5515 94.1412 47.2315 93.7465 47.2315Z" fill="var(--fill-0, white)"/>
<path id="Vector_31" d="M6.03219 53.9782H0.714759C0.320037 53.9782 5.07543e-05 54.2981 5.07543e-05 54.6929V60.0103C5.07543e-05 60.405 0.320037 60.725 0.714759 60.725H6.03219C6.42691 60.725 6.7469 60.405 6.7469 60.0103V54.6929C6.7469 54.2981 6.42691 53.9782 6.03219 53.9782Z" fill="var(--fill-0, white)"/>
<path id="Vector_32" d="M19.5258 53.9782H14.2084C13.8137 53.9782 13.4937 54.2981 13.4937 54.6929V60.0103C13.4937 60.405 13.8137 60.725 14.2084 60.725H19.5258C19.9206 60.725 20.2405 60.405 20.2405 60.0103V54.6929C20.2405 54.2981 19.9206 53.9782 19.5258 53.9782Z" fill="var(--fill-0, white)"/>
<path id="Vector_33" d="M86.9999 53.9782H81.6824C81.2877 53.9782 80.9677 54.2981 80.9677 54.6929V60.0103C80.9677 60.405 81.2877 60.725 81.6824 60.725H86.9999C87.3946 60.725 87.7146 60.405 87.7146 60.0103V54.6929C87.7146 54.2981 87.3946 53.9782 86.9999 53.9782Z" fill="var(--fill-0, white)"/>
<path id="Vector_34" d="M100.494 53.9782H95.1761C94.7814 53.9782 94.4614 54.2981 94.4614 54.6929V60.0103C94.4614 60.405 94.7814 60.725 95.1761 60.725H100.494C100.888 60.725 101.208 60.405 101.208 60.0103V54.6929C101.208 54.2981 100.888 53.9782 100.494 53.9782Z" fill="var(--fill-0, white)"/>
<path id="Vector_35" d="M19.5258 60.7252H14.2084C13.8137 60.7252 13.4937 61.0451 13.4937 61.4399V66.7573C13.4937 67.152 13.8137 67.472 14.2084 67.472H19.5258C19.9206 67.472 20.2405 67.152 20.2405 66.7573V61.4399C20.2405 61.0451 19.9206 60.7252 19.5258 60.7252Z" fill="var(--fill-0, white)"/>
<path id="Vector_36" d="M86.9999 60.7252H81.6824C81.2877 60.7252 80.9677 61.0451 80.9677 61.4399V66.7573C80.9677 67.152 81.2877 67.472 81.6824 67.472H86.9999C87.3946 67.472 87.7146 67.152 87.7146 66.7573V61.4399C87.7146 61.0451 87.3946 60.7252 86.9999 60.7252Z" fill="var(--fill-0, white)"/>
<path id="Vector_37" d="M19.5258 67.4719H14.2084C13.8137 67.4719 13.4937 67.7918 13.4937 68.1866V73.504C13.4937 73.8987 13.8137 74.2187 14.2084 74.2187H19.5258C19.9206 74.2187 20.2405 73.8987 20.2405 73.504V68.1866C20.2405 67.7918 19.9206 67.4719 19.5258 67.4719Z" fill="var(--fill-0, white)"/>
<path id="Vector_38" d="M46.5149 67.4719H41.1975C40.8028 67.4719 40.4828 67.7918 40.4828 68.1866V73.504C40.4828 73.8987 40.8028 74.2187 41.1975 74.2187H46.5149C46.9096 74.2187 47.2296 73.8987 47.2296 73.504V68.1866C47.2296 67.7918 46.9096 67.4719 46.5149 67.4719Z" fill="var(--fill-0, white)"/>
<path id="Vector_39" d="M60.0108 67.4719H54.6934C54.2986 67.4719 53.9787 67.7918 53.9787 68.1866V73.504C53.9787 73.8987 54.2986 74.2187 54.6934 74.2187H60.0108C60.4055 74.2187 60.7255 73.8987 60.7255 73.504V68.1866C60.7255 67.7918 60.4055 67.4719 60.0108 67.4719Z" fill="var(--fill-0, white)"/>
<path id="Vector_40" d="M86.9999 67.4719H81.6824C81.2877 67.4719 80.9677 67.7918 80.9677 68.1866V73.504C80.9677 73.8987 81.2877 74.2187 81.6824 74.2187H86.9999C87.3946 74.2187 87.7146 73.8987 87.7146 73.504V68.1866C87.7146 67.7918 87.3946 67.4719 86.9999 67.4719Z" fill="var(--fill-0, white)"/>
<path id="Vector_41" d="M26.2747 74.2206H20.9572C20.5625 74.2206 20.2425 74.5406 20.2425 74.9353V80.2527C20.2425 80.6474 20.5625 80.9674 20.9572 80.9674H26.2747C26.6694 80.9674 26.9894 80.6474 26.9894 80.2527V74.9353C26.9894 74.5406 26.6694 74.2206 26.2747 74.2206Z" fill="var(--fill-0, white)"/>
<path id="Vector_42" d="M80.251 74.2206H74.9336C74.5389 74.2206 74.2189 74.5406 74.2189 74.9353V80.2527C74.2189 80.6474 74.5389 80.9674 74.9336 80.9674H80.251C80.6458 80.9674 80.9658 80.6474 80.9658 80.2527V74.9353C80.9658 74.5406 80.6458 74.2206 80.251 74.2206Z" fill="var(--fill-0, white)"/>
<path id="Vector_43" d="M19.7921 81.4161V86.5495C19.7921 86.9443 19.4722 87.2642 19.0774 87.2642H14.6587C14.2638 87.2642 13.944 86.9443 13.944 86.5495V82.1308C13.944 81.7359 14.2638 81.4161 14.6587 81.4161H19.7921ZM20.2423 80.9676H14.2102C13.8153 80.9676 13.4955 81.2874 13.4955 81.6823V86.9997C13.4955 87.3946 13.8153 87.7144 14.2102 87.7144H19.5276C19.9225 87.7144 20.2423 87.3946 20.2423 86.9997V80.9676Z" fill="var(--fill-0, white)"/>
<path id="Vector_44" d="M33.0217 80.9676H27.7043C27.3096 80.9676 26.9896 81.2876 26.9896 81.6823V86.9997C26.9896 87.3944 27.3096 87.7144 27.7043 87.7144H33.0217C33.4164 87.7144 33.7364 87.3944 33.7364 86.9997V81.6823C33.7364 81.2876 33.4164 80.9676 33.0217 80.9676Z" fill="var(--fill-0, white)"/>
<path id="Vector_45" d="M73.504 80.9676H68.1866C67.7918 80.9676 67.4719 81.2876 67.4719 81.6823V86.9997C67.4719 87.3944 67.7918 87.7144 68.1866 87.7144H73.504C73.8987 87.7144 74.2187 87.3944 74.2187 86.9997V81.6823C74.2187 81.2876 73.8987 80.9676 73.504 80.9676Z" fill="var(--fill-0, white)"/>
<path id="Vector_46" d="M87.2643 81.4161V86.5495C87.2643 86.9443 86.9445 87.2642 86.5496 87.2642H82.1309C81.736 87.2642 81.4162 86.9443 81.4162 86.5495V82.1308C81.4162 81.7359 81.736 81.4161 82.1309 81.4161H87.2643ZM87.7146 80.9676H81.6824C81.2876 80.9676 80.9677 81.2874 80.9677 81.6823V86.9997C80.9677 87.3946 81.2876 87.7144 81.6824 87.7144H86.9999C87.3948 87.7144 87.7146 87.3946 87.7146 86.9997V80.9676Z" fill="var(--fill-0, white)"/>
<path id="Vector_47" d="M26.2747 87.7142H20.9572C20.5625 87.7142 20.2425 88.0342 20.2425 88.4289V93.7464C20.2425 94.1411 20.5625 94.4611 20.9572 94.4611H26.2747C26.6694 94.4611 26.9894 94.1411 26.9894 93.7464V88.4289C26.9894 88.0342 26.6694 87.7142 26.2747 87.7142Z" fill="var(--fill-0, white)"/>
<path id="Vector_48" d="M53.2638 87.7142H47.9463C47.5516 87.7142 47.2316 88.0342 47.2316 88.4289V93.7464C47.2316 94.1411 47.5516 94.4611 47.9463 94.4611H53.2638C53.6585 94.4611 53.9785 94.1411 53.9785 93.7464V88.4289C53.9785 88.0342 53.6585 87.7142 53.2638 87.7142Z" fill="var(--fill-0, white)"/>
<path id="Vector_49" d="M80.251 87.7142H74.9336C74.5389 87.7142 74.2189 88.0342 74.2189 88.4289V93.7464C74.2189 94.1411 74.5389 94.4611 74.9336 94.4611H80.251C80.6458 94.4611 80.9658 94.1411 80.9658 93.7464V88.4289C80.9658 88.0342 80.6458 87.7142 80.251 87.7142Z" fill="var(--fill-0, white)"/>
<path id="Vector_50" d="M6.29842 94.9115V100.045C6.29842 100.44 5.97859 100.76 5.58371 100.76H1.16503C0.770149 100.76 0.450317 100.44 0.450317 100.045V95.6262C0.450317 95.2313 0.770149 94.9115 1.16503 94.9115H6.29842ZM6.7469 94.4612H0.714759C0.319883 94.4612 5.07543e-05 94.7811 5.07543e-05 95.1759V100.493C5.07543e-05 100.888 0.319883 101.208 0.714759 101.208H6.03219C6.42707 101.208 6.7469 100.888 6.7469 100.493V94.4612Z" fill="var(--fill-0, white)"/>
<path id="Vector_51" d="M46.7811 94.9115V100.045C46.7811 100.44 46.4613 100.76 46.0664 100.76H41.6478C41.2529 100.76 40.933 100.44 40.933 100.045V95.6262C40.933 95.2313 41.2529 94.9115 41.6478 94.9115H46.7811ZM47.2314 94.4612H41.1993C40.8044 94.4612 40.4846 94.7811 40.4846 95.1759V100.493C40.4846 100.888 40.8044 101.208 41.1993 101.208H46.5167C46.9116 101.208 47.2314 100.888 47.2314 100.493V94.4612Z" fill="var(--fill-0, white)"/>
<path id="Vector_52" d="M60.2752 94.9115V100.045C60.2752 100.44 59.9554 100.76 59.5605 100.76H55.1418C54.747 100.76 54.4271 100.44 54.4271 100.045V95.6262C54.4271 95.2313 54.747 94.9115 55.1418 94.9115H60.2752ZM60.7255 94.4612H54.6934C54.2985 94.4612 53.9787 94.7811 53.9787 95.1759V100.493C53.9787 100.888 54.2985 101.208 54.6934 101.208H60.0108C60.4057 101.208 60.7255 100.888 60.7255 100.493V94.4612Z" fill="var(--fill-0, white)"/>
<path id="Vector_53" d="M100.76 94.9115V100.045C100.76 100.44 100.44 100.76 100.045 100.76H95.6264C95.2315 100.76 94.9116 100.44 94.9116 100.045V95.6262C94.9116 95.2313 95.2315 94.9115 95.6264 94.9115H100.76ZM101.208 94.4612H95.1761C94.7812 94.4612 94.4614 94.7811 94.4614 95.1759V100.493C94.4614 100.888 94.7812 101.208 95.1761 101.208H100.494C100.888 101.208 101.208 100.888 101.208 100.493V94.4612Z" fill="var(--fill-0, white)"/>
</g>
</svg>
