<svg preserveAspectRatio="none" width="100%" height="100%" overflow="visible" style="display: block;" viewBox="0 0 85 85" fill="none" xmlns="http://www.w3.org/2000/svg">
<g id="Layer_2" clip-path="url(#clip0_0_6)">
<path id="Vector" d="M5.73128 0.0748978H0.0748991V5.73118H5.73128V0.0748978ZM5.35529 5.35519H0.452391V0.452383H5.35529V5.35519Z" fill="var(--fill-0, white)"/>
<path id="Vector_2" d="M79.2687 0.0748978V5.73118H84.9251V0.0748978H79.2687ZM84.5491 5.35519H79.6462V0.452383H84.5491V5.35519Z" fill="var(--fill-0, white)"/>
<path id="Vector_3" d="M11.3877 11.3875V17.0437H17.044V11.3875H11.3877ZM16.668 16.6678H11.7652V11.7649H16.668V16.6678Z" fill="var(--fill-0, white)"/>
<path id="Vector_4" d="M73.6123 11.3875H67.956V17.0437H73.6123V11.3875ZM73.2348 16.6678H68.332V11.7649H73.2348V16.6678Z" fill="var(--fill-0, white)"/>
<path id="Vector_5" d="M17.0455 17.0452V22.7015H22.7019V17.0452H17.0455ZM22.3244 22.324H17.4215V17.4212H22.3244V22.324Z" fill="var(--fill-0, white)"/>
<path id="Vector_6" d="M56.6417 17.0452H50.9853V22.7015H56.6417V17.0452ZM56.2657 22.324H51.3628V17.4212H56.2657V22.324Z" fill="var(--fill-0, white)"/>
<path id="Vector_7" d="M56.6417 28.3578H50.9853V34.0141H56.6417V28.3578ZM56.2657 33.6381H51.3628V28.7353H56.2657V33.6381Z" fill="var(--fill-0, white)"/>
<path id="Vector_8" d="M50.9853 34.0141H45.3289V39.6704H50.9853V34.0141Z" fill="var(--fill-0, white)"/>
<path id="Vector_9" d="M45.3289 39.6719H39.6726V45.3281H45.3289V39.6719Z" fill="var(--fill-0, white)"/>
<path id="Vector_10" d="M84.9251 39.6719H62.2981V34.0156H67.9545V28.3593H62.2981V22.703H67.9545V17.0467H62.2981V22.703H56.6417V28.3593H62.2981V34.0156H56.6417V39.6719H50.9853V45.3281H56.6417V50.9844H62.2981V56.6407H67.9545V50.9844H62.2981V45.3281H84.9251V39.6719ZM62.6756 28.7353H67.5785V33.6381H62.6756V28.7353ZM62.6756 17.4212H67.5785V22.324H62.6756V17.4212ZM62.6756 51.3619H67.5785V56.2647H62.6756V51.3619Z" fill="var(--fill-0, white)"/>
<path id="Vector_11" d="M45.3289 50.9844V45.3281H39.6726H34.0162V50.9844H28.3598V45.3281H34.0162V39.6719H28.3598V34.0156H34.0162V39.6719H39.6726V34.0156H34.0162V28.3593H39.6726V34.0156H45.3289V28.3593H50.9853V22.703H45.3289V0.0748978H39.6726V22.7015H34.0162V17.0452H28.3598V22.7015H22.7034V28.3578H28.3598V34.0141H22.7034V28.3578H17.047V34.0141H22.7034V39.6704H0.0748991V45.3266H22.7019V50.9829H17.0455V56.6392H22.7019V50.9829H28.3583V56.6392H34.0147V50.9829H39.6711H45.3274L45.3289 50.9844ZM40.0486 45.7056H44.9515V50.6084H40.0486V45.7056ZM22.3244 33.6381H17.4215V28.7353H22.3244V33.6381ZM33.6387 33.6381H28.7358V28.7353H33.6387V33.6381ZM28.7358 17.4212H33.6387V22.324H28.7358V17.4212ZM28.3583 22.7015H34.0147V28.3578H28.3583V22.7015ZM22.3244 56.2647H17.4215V51.3619H22.3244V56.2647ZM33.6387 56.2647H28.7358V51.3619H33.6387V56.2647Z" fill="var(--fill-0, white)"/>
<path id="Vector_12" d="M50.9853 45.3281H45.3289V50.9844H50.9853V45.3281Z" fill="var(--fill-0, white)"/>
<path id="Vector_13" d="M39.6726 56.6407H34.0162V62.297H28.3598V56.6407H22.7034V62.297H28.3598V67.9533H34.0162V62.297H39.6726V84.9236H45.3289V62.297H50.9853V56.6407H45.3289V50.9844H39.6726V56.6407ZM33.6387 67.5773H28.7358V62.6745H33.6387V67.5773Z" fill="var(--fill-0, white)"/>
<path id="Vector_14" d="M50.9853 56.6407H56.6417V50.9844H50.9853V56.6407ZM51.3628 51.3619H56.2657V56.2647H51.3628V51.3619Z" fill="var(--fill-0, white)"/>
<path id="Vector_15" d="M17.0455 67.9548H22.7019V62.2985H17.0455V67.9548ZM17.4215 62.6745H22.3244V67.5773H17.4215V62.6745Z" fill="var(--fill-0, white)"/>
<path id="Vector_16" d="M50.9853 67.9548H56.6417V62.2985H50.9853V67.9548ZM51.3628 62.6745H56.2657V67.5773H51.3628V62.6745Z" fill="var(--fill-0, white)"/>
<path id="Vector_17" d="M62.2996 62.2985V56.6422H56.6432V62.2985H62.2996V67.9548H67.956V62.2985H62.2996ZM67.5785 67.5773H62.6756V62.6745H67.5785V67.5773Z" fill="var(--fill-0, white)"/>
<path id="Vector_18" d="M11.3877 73.611H17.044V67.9548H11.3877V73.611ZM11.7652 68.3307H16.668V73.2336H11.7652V68.3307Z" fill="var(--fill-0, white)"/>
<path id="Vector_19" d="M67.956 73.611H73.6123V67.9548H67.956V73.611ZM68.332 68.3307H73.2348V73.2336H68.332V68.3307Z" fill="var(--fill-0, white)"/>
<path id="Vector_20" d="M0.0748991 84.9251H5.73128V79.2688H0.0748991V84.9251ZM0.452391 79.6448H5.35529V84.5476H0.452391V79.6448Z" fill="var(--fill-0, white)"/>
<g id="Group">
<path id="Vector_21" d="M5.20699 0H0.599193C0.268139 0 0 0.268134 0 0.599182V5.20689C0 5.53794 0.268139 5.80608 0.599193 5.80608H5.20699C5.53804 5.80608 5.80618 5.53794 5.80618 5.20689V0.599182C5.80618 0.268134 5.53804 0 5.20699 0ZM4.68119 5.28029H1.12648C0.795428 5.28029 0.52729 5.01216 0.52729 4.68111V1.12646C0.52729 0.795415 0.795428 0.52728 1.12648 0.52728H4.68119C5.01225 0.52728 5.28039 0.795415 5.28039 1.12646V4.68111C5.28039 5.01216 5.01225 5.28029 4.68119 5.28029Z" fill="var(--fill-0, white)"/>
<path id="Vector_22" d="M79.1938 0.599182V5.20689C79.1938 5.53794 79.462 5.80608 79.793 5.80608H84.4008C84.7319 5.80608 85 5.53794 85 5.20689V0.599182C85 0.268134 84.7319 0 84.4008 0H79.793C79.462 0 79.1938 0.268134 79.1938 0.599182ZM83.875 5.28029H80.3203C79.9893 5.28029 79.7211 5.01216 79.7211 4.68111V1.12646C79.7211 0.795415 79.9893 0.52728 80.3203 0.52728H83.875C84.2061 0.52728 84.4742 0.795415 84.4742 1.12646V4.68111C84.4742 5.01216 84.2061 5.28029 83.875 5.28029Z" fill="var(--fill-0, white)"/>
<path id="Vector_23" d="M62.9722 34.089H67.4302C67.7612 34.089 68.0294 33.8208 68.0294 33.4898V28.8821C68.0294 28.551 67.7612 28.2829 67.4302 28.2829H62.9722C62.6411 28.2829 62.373 28.0148 62.373 27.6837V23.3756C62.373 23.0446 62.6411 22.7764 62.9722 22.7764H67.4302C67.7612 22.7764 68.0294 22.5083 68.0294 22.1772V17.7193C68.0294 17.3883 68.2975 17.1201 68.6286 17.1201H73.0865C73.4176 17.1201 73.6857 16.852 73.6857 16.521V11.9132C73.6857 11.5822 73.4176 11.3141 73.0865 11.3141H68.4788C68.1477 11.3141 67.8796 11.5822 67.8796 11.9132V16.3712C67.8796 16.7022 67.6114 16.9703 67.2804 16.9703H62.8224C62.4913 16.9703 62.2232 17.2385 62.2232 17.5695V22.0274C62.2232 22.3585 61.955 22.6266 61.624 22.6266H57.3158C56.9847 22.6266 56.7166 22.3585 56.7166 22.0274V17.5695C56.7166 17.2385 56.4485 16.9703 56.1174 16.9703H51.5096C51.1786 16.9703 50.9104 17.2385 50.9104 17.5695V22.0274C50.9104 22.3585 50.6423 22.6266 50.3112 22.6266H46.003C45.672 22.6266 45.4038 22.3585 45.4038 22.0274V0.599182C45.4038 0.268134 45.1357 0 44.8046 0H40.1969C39.8658 0 39.5977 0.268134 39.5977 0.599182V22.0274C39.5977 22.3585 39.3295 22.6266 38.9985 22.6266H34.6903C34.3592 22.6266 34.0911 22.3585 34.0911 22.0274V17.5695C34.0911 17.2385 33.8229 16.9703 33.4919 16.9703H28.8841C28.553 16.9703 28.2849 17.2385 28.2849 17.5695V22.0274C28.2849 22.3585 28.0168 22.6266 27.6857 22.6266H23.3775C23.0465 22.6266 22.7783 22.3585 22.7783 22.0274V17.5695C22.7783 17.2385 22.5102 16.9703 22.1791 16.9703H17.7211C17.3901 16.9703 17.1219 16.7022 17.1219 16.3712V11.9132C17.1219 11.5822 16.8538 11.3141 16.5227 11.3141H11.915C11.5839 11.3141 11.3158 11.5822 11.3158 11.9132V16.521C11.3158 16.852 11.5839 17.1201 11.915 17.1201H16.3729C16.704 17.1201 16.9721 17.3883 16.9721 17.7193V22.1772C16.9721 22.5083 17.2403 22.7764 17.5713 22.7764H22.0293C22.3604 22.7764 22.6285 23.0446 22.6285 23.3756V27.6837C22.6285 28.0148 22.3604 28.2829 22.0293 28.2829H17.5713C17.2403 28.2829 16.9721 28.551 16.9721 28.8821V33.4898C16.9721 33.8208 17.2403 34.089 17.5713 34.089H22.0293C22.3604 34.089 22.6285 34.3571 22.6285 34.6882V38.9963C22.6285 39.3273 22.3604 39.5955 22.0293 39.5955H0.599193C0.268139 39.5955 0 39.8636 0 40.1946V44.8024C0 45.1334 0.268139 45.4015 0.599193 45.4015H22.0278C22.3589 45.4015 22.627 45.6697 22.627 46.0007V50.3089C22.627 50.6399 22.3589 50.908 22.0278 50.908H17.5698C17.2388 50.908 16.9706 51.1762 16.9706 51.5072V56.1149C16.9706 56.446 17.2388 56.7141 17.5698 56.7141H22.0278C22.3589 56.7141 22.627 56.9822 22.627 57.3133V61.6214C22.627 61.9525 22.3589 62.2206 22.0278 62.2206H17.5698C17.2388 62.2206 16.9706 62.4887 16.9706 62.8198V67.2777C16.9706 67.6087 16.7025 67.8769 16.3714 67.8769H11.9135C11.5824 67.8769 11.3143 68.145 11.3143 68.4761V73.0838C11.3143 73.4148 11.5824 73.683 11.9135 73.683H16.5212C16.8523 73.683 17.1204 73.4148 17.1204 73.0838V68.6259C17.1204 68.2948 17.3886 68.0267 17.7196 68.0267H22.1776C22.5087 68.0267 22.7768 67.7585 22.7768 67.4275V62.9696C22.7768 62.6385 23.045 62.3704 23.376 62.3704H27.6842C28.0153 62.3704 28.2834 62.6385 28.2834 62.9696V67.4275C28.2834 67.7585 28.5515 68.0267 28.8826 68.0267H33.4904C33.8214 68.0267 34.0896 67.7585 34.0896 67.4275V62.9696C34.0896 62.6385 34.3577 62.3704 34.6888 62.3704H38.997C39.328 62.3704 39.5962 62.6385 39.5962 62.9696V84.3978C39.5962 84.7289 39.8643 84.997 40.1954 84.997H44.8031C45.1342 84.997 45.4023 84.7289 45.4023 84.3978V62.9696C45.4023 62.6385 45.6705 62.3704 46.0015 62.3704H50.3097C50.6408 62.3704 50.9089 62.6385 50.9089 62.9696V67.4275C50.9089 67.7585 51.1771 68.0267 51.5081 68.0267H56.1159C56.447 68.0267 56.7151 67.7585 56.7151 67.4275V62.9696C56.7151 62.6385 56.9832 62.3704 57.3143 62.3704H61.6225C61.9535 62.3704 62.2217 62.6385 62.2217 62.9696V67.4275C62.2217 67.7585 62.4898 68.0267 62.8209 68.0267H67.2789C67.6099 68.0267 67.8781 68.2948 67.8781 68.6259V73.0838C67.8781 73.4148 68.1462 73.683 68.4773 73.683H73.0851C73.4161 73.683 73.6842 73.4148 73.6842 73.0838V68.4761C73.6842 68.145 73.4161 67.8769 73.0851 67.8769H68.6271C68.296 67.8769 68.0279 67.6087 68.0279 67.2777V62.8198C68.0279 62.4887 67.7597 62.2206 67.4287 62.2206H62.9707C62.6396 62.2206 62.3715 61.9525 62.3715 61.6214V57.3133C62.3715 56.9822 62.6396 56.7141 62.9707 56.7141H67.4287C67.7597 56.7141 68.0279 56.446 68.0279 56.1149V51.5072C68.0279 51.1762 67.7597 50.908 67.4287 50.908H62.9707C62.6396 50.908 62.3715 50.6399 62.3715 50.3089V46.0007C62.3715 45.6697 62.6396 45.4015 62.9707 45.4015H84.3993C84.7304 45.4015 84.9985 45.1334 84.9985 44.8024V40.1946C84.9985 39.8636 84.7304 39.5955 84.3993 39.5955H62.9707C62.6396 39.5955 62.3715 39.3273 62.3715 38.9963V34.6882C62.3715 34.3571 62.6396 34.089 62.9707 34.089H62.9722ZM63.3497 28.8102H66.9044C67.2354 28.8102 67.5036 29.0783 67.5036 29.4094V32.964C67.5036 33.2951 67.2354 33.5632 66.9044 33.5632H63.3497C63.0186 33.5632 62.7505 33.2951 62.7505 32.964V29.4094C62.7505 29.0783 63.0186 28.8102 63.3497 28.8102ZM69.006 11.8398H72.5608C72.8918 11.8398 73.16 12.108 73.16 12.439V15.9937C73.16 16.3247 72.8918 16.5929 72.5608 16.5929H69.006C68.675 16.5929 68.4069 16.3247 68.4069 15.9937V12.439C68.4069 12.108 68.675 11.8398 69.006 11.8398ZM63.3497 17.4961H66.9044C67.2354 17.4961 67.5036 17.7643 67.5036 18.0953V21.65C67.5036 21.981 67.2354 22.2491 66.9044 22.2491H63.3497C63.0186 22.2491 62.7505 21.981 62.7505 21.65V18.0953C62.7505 17.7643 63.0186 17.4961 63.3497 17.4961ZM21.6503 33.5632H18.0956C17.7646 33.5632 17.4964 33.2951 17.4964 32.964V29.4094C17.4964 29.0783 17.7646 28.8102 18.0956 28.8102H21.6503C21.9814 28.8102 22.2495 29.0783 22.2495 29.4094V32.964C22.2495 33.2951 21.9814 33.5632 21.6503 33.5632ZM69.006 68.4057H72.5608C72.8918 68.4057 73.16 68.6738 73.16 69.0048V72.5595C73.16 72.8905 72.8918 73.1587 72.5608 73.1587H69.006C68.675 73.1587 68.4069 72.8905 68.4069 72.5595V69.0048C68.4069 68.6738 68.675 68.4057 69.006 68.4057ZM63.3497 62.7494H66.9044C67.2354 62.7494 67.5036 63.0175 67.5036 63.3486V66.9032C67.5036 67.2343 67.2354 67.5024 66.9044 67.5024H63.3497C63.0186 67.5024 62.7505 67.2343 62.7505 66.9032V63.3486C62.7505 63.0175 63.0186 62.7494 63.3497 62.7494ZM63.3497 51.4368H66.9044C67.2354 51.4368 67.5036 51.7049 67.5036 52.036V55.5906C67.5036 55.9217 67.2354 56.1898 66.9044 56.1898H63.3497C63.0186 56.1898 62.7505 55.9217 62.7505 55.5906V52.036C62.7505 51.7049 63.0186 51.4368 63.3497 51.4368ZM61.624 33.9392H57.3158C56.9847 33.9392 56.7166 33.6711 56.7166 33.34V29.0319C56.7166 28.7008 56.9847 28.4327 57.3158 28.4327H61.624C61.955 28.4327 62.2232 28.7008 62.2232 29.0319V33.34C62.2232 33.6711 61.955 33.9392 61.624 33.9392ZM51.6594 56.7156H55.9676C56.2987 56.7156 56.5668 56.9837 56.5668 57.3148V61.6229C56.5668 61.954 56.2987 62.2221 55.9676 62.2221H51.6594C51.3284 62.2221 51.0602 61.954 51.0602 61.6229V57.3148C51.0602 56.9837 51.3284 56.7156 51.6594 56.7156ZM44.8765 46.3797V49.9344C44.8765 50.2654 44.6084 50.5335 44.2774 50.5335H40.7226C40.3916 50.5335 40.1235 50.2654 40.1235 49.9344V46.3797C40.1235 46.0487 40.3916 45.7805 40.7226 45.7805H44.2774C44.6084 45.7805 44.8765 46.0487 44.8765 46.3797ZM46.003 39.7468H50.3112C50.6423 39.7468 50.9104 40.0149 50.9104 40.3459V44.6541C50.9104 44.9851 50.6423 45.2532 50.3112 45.2532H46.003C45.672 45.2532 45.4038 44.9851 45.4038 44.6541V40.3459C45.4038 40.0149 45.672 39.7468 46.003 39.7468ZM51.4377 55.5906V52.036C51.4377 51.7049 51.7059 51.4368 52.0369 51.4368H55.5916C55.9227 51.4368 56.1908 51.7049 56.1908 52.036V55.5906C56.1908 55.9217 55.9227 56.1898 55.5916 56.1898H52.0369C51.7059 56.1898 51.4377 55.9217 51.4377 55.5906ZM51.0602 50.3103V46.0022C51.0602 45.6712 51.3284 45.403 51.6594 45.403H55.9676C56.2987 45.403 56.5668 45.6712 56.5668 46.0022V50.3103C56.5668 50.6414 56.2987 50.9095 55.9676 50.9095H51.6594C51.3284 50.9095 51.0602 50.6414 51.0602 50.3103ZM55.9676 39.597H51.6594C51.3284 39.597 51.0602 39.3288 51.0602 38.9978V34.6897C51.0602 34.3586 51.3284 34.0905 51.6594 34.0905H55.9676C56.2987 34.0905 56.5668 34.3586 56.5668 34.6897V38.9978C56.5668 39.3288 56.2987 39.597 55.9676 39.597ZM55.9676 28.2829H51.6594C51.3284 28.2829 51.0602 28.0148 51.0602 27.6837V23.3756C51.0602 23.0446 51.3284 22.7764 51.6594 22.7764H55.9676C56.2987 22.7764 56.5668 23.0446 56.5668 23.3756V27.6837C56.5668 28.0148 56.2987 28.2829 55.9676 28.2829ZM56.1908 29.4094V32.964C56.1908 33.2951 55.9227 33.5632 55.5916 33.5632H52.0369C51.7059 33.5632 51.4377 33.2951 51.4377 32.964V29.4094C51.4377 29.0783 51.7059 28.8102 52.0369 28.8102H55.5916C55.9227 28.8102 56.1908 29.0783 56.1908 29.4094ZM52.0369 17.4961H55.5916C55.9227 17.4961 56.1908 17.7643 56.1908 18.0953V21.65C56.1908 21.981 55.9227 22.2491 55.5916 22.2491H52.0369C51.7059 22.2491 51.4377 21.981 51.4377 21.65V18.0953C51.4377 17.7643 51.7059 17.4961 52.0369 17.4961ZM50.9104 29.0319V33.34C50.9104 33.6711 50.6423 33.9392 50.3112 33.9392H46.003C45.672 33.9392 45.4038 33.6711 45.4038 33.34V29.0319C45.4038 28.7008 45.672 28.4327 46.003 28.4327H50.3112C50.6423 28.4327 50.9104 28.7008 50.9104 29.0319ZM45.254 34.6882V38.9963C45.254 39.3273 44.9859 39.5955 44.6548 39.5955H40.3467C40.0156 39.5955 39.7475 39.3273 39.7475 38.9963V34.6882C39.7475 34.3571 40.0156 34.089 40.3467 34.089H44.6548C44.9859 34.089 45.254 34.3571 45.254 34.6882ZM34.6888 28.4327H38.997C39.328 28.4327 39.5962 28.7008 39.5962 29.0319V33.34C39.5962 33.6711 39.328 33.9392 38.997 33.9392H34.6888C34.3577 33.9392 34.0896 33.6711 34.0896 33.34V29.0319C34.0896 28.7008 34.3577 28.4327 34.6888 28.4327ZM34.6888 39.7468H38.997C39.328 39.7468 39.5962 40.0149 39.5962 40.3459V44.6541C39.5962 44.9851 39.328 45.2532 38.997 45.2532H34.6888C34.3577 45.2532 34.0896 44.9851 34.0896 44.6541V40.3459C34.0896 40.0149 34.3577 39.7468 34.6888 39.7468ZM29.4099 17.4961H32.9646C33.2956 17.4961 33.5638 17.7643 33.5638 18.0953V21.65C33.5638 21.981 33.2956 22.2491 32.9646 22.2491H29.4099C29.0788 22.2491 28.8107 21.981 28.8107 21.65V18.0953C28.8107 17.7643 29.0788 17.4961 29.4099 17.4961ZM29.0324 22.7764H33.3406C33.6716 22.7764 33.9398 23.0446 33.9398 23.3756V27.6837C33.9398 28.0148 33.6716 28.2829 33.3406 28.2829H29.0324C28.7013 28.2829 28.4332 28.0148 28.4332 27.6837V23.3756C28.4332 23.0446 28.7013 22.7764 29.0324 22.7764ZM33.5638 29.4094V32.964C33.5638 33.2951 33.2956 33.5632 32.9646 33.5632H29.4099C29.0788 33.5632 28.8107 33.2951 28.8107 32.964V29.4094C28.8107 29.0783 29.0788 28.8102 29.4099 28.8102H32.9646C33.2956 28.8102 33.5638 29.0783 33.5638 29.4094ZM29.0324 34.089H33.3406C33.6716 34.089 33.9398 34.3571 33.9398 34.6882V38.9963C33.9398 39.3273 33.6716 39.5955 33.3406 39.5955H29.0324C28.7013 39.5955 28.4332 39.3273 28.4332 38.9963V34.6882C28.4332 34.3571 28.7013 34.089 29.0324 34.089ZM29.0324 45.403H33.3406C33.6716 45.403 33.9398 45.6712 33.9398 46.0022V50.3103C33.9398 50.6414 33.6716 50.9095 33.3406 50.9095H29.0324C28.7013 50.9095 28.4332 50.6414 28.4332 50.3103V46.0022C28.4332 45.6712 28.7013 45.403 29.0324 45.403ZM33.5638 52.036V55.5906C33.5638 55.9217 33.2956 56.1898 32.9646 56.1898H29.4099C29.0788 56.1898 28.8107 55.9217 28.8107 55.5906V52.036C28.8107 51.7049 29.0788 51.4368 29.4099 51.4368H32.9646C33.2956 51.4368 33.5638 51.7049 33.5638 52.036ZM27.6842 33.9392H23.376C23.045 33.9392 22.7768 33.6711 22.7768 33.34V29.0319C22.7768 28.7008 23.045 28.4327 23.376 28.4327H27.6842C28.0153 28.4327 28.2834 28.7008 28.2834 29.0319V33.34C28.2834 33.6711 28.0153 33.9392 27.6842 33.9392ZM15.994 16.5929H12.4392C12.1082 16.5929 11.8401 16.3247 11.8401 15.9937V12.439C11.8401 12.108 12.1082 11.8398 12.4392 11.8398H15.994C16.325 11.8398 16.5931 12.108 16.5931 12.439V15.9937C16.5931 16.3247 16.325 16.5929 15.994 16.5929ZM21.6503 22.2491H18.0956C17.7646 22.2491 17.4964 21.981 17.4964 21.65V18.0953C17.4964 17.7643 17.7646 17.4961 18.0956 17.4961H21.6503C21.9814 17.4961 22.2495 17.7643 22.2495 18.0953V21.65C22.2495 21.981 21.9814 22.2491 21.6503 22.2491ZM21.6503 56.1898H18.0956C17.7646 56.1898 17.4964 55.9217 17.4964 55.5906V52.036C17.4964 51.7049 17.7646 51.4368 18.0956 51.4368H21.6503C21.9814 51.4368 22.2495 51.7049 22.2495 52.036V55.5906C22.2495 55.9217 21.9814 56.1898 21.6503 56.1898ZM15.994 73.1587H12.4392C12.1082 73.1587 11.8401 72.8905 11.8401 72.5595V69.0048C11.8401 68.6738 12.1082 68.4057 12.4392 68.4057H15.994C16.325 68.4057 16.5931 68.6738 16.5931 69.0048V72.5595C16.5931 72.8905 16.325 73.1587 15.994 73.1587ZM21.6503 67.5024H18.0956C17.7646 67.5024 17.4964 67.2343 17.4964 66.9032V63.3486C17.4964 63.0175 17.7646 62.7494 18.0956 62.7494H21.6503C21.9814 62.7494 22.2495 63.0175 22.2495 63.3486V66.9032C22.2495 67.2343 21.9814 67.5024 21.6503 67.5024ZM22.7768 55.9666V51.6585C22.7768 51.3275 23.045 51.0593 23.376 51.0593H27.6842C28.0153 51.0593 28.2834 51.3275 28.2834 51.6585V55.9666C28.2834 56.2977 28.0153 56.5658 27.6842 56.5658H23.376C23.045 56.5658 22.7768 56.2977 22.7768 55.9666ZM32.9646 67.5024H29.4099C29.0788 67.5024 28.8107 67.2343 28.8107 66.9032V63.3486C28.8107 63.0175 29.0788 62.7494 29.4099 62.7494H32.9646C33.2956 62.7494 33.5638 63.0175 33.5638 63.3486V66.9032C33.5638 67.2343 33.2956 67.5024 32.9646 67.5024ZM28.4332 61.6244V57.3163C28.4332 56.9852 28.7013 56.7171 29.0324 56.7171H33.3406C33.6716 56.7171 33.9398 56.9852 33.9398 57.3163V61.6244C33.9398 61.9555 33.6716 62.2236 33.3406 62.2236H29.0324C28.7013 62.2236 28.4332 61.9555 28.4332 61.6244ZM34.0896 55.9666V51.6585C34.0896 51.3275 34.3577 51.0593 34.6888 51.0593H38.997C39.328 51.0593 39.5962 51.3275 39.5962 51.6585V55.9666C39.5962 56.2977 39.328 56.5658 38.997 56.5658H34.6888C34.3577 56.5658 34.0896 56.2977 34.0896 55.9666ZM46.003 51.0593H50.3112C50.6423 51.0593 50.9104 51.3275 50.9104 51.6585V55.9666C50.9104 56.2977 50.6423 56.5658 50.3112 56.5658H46.003C45.672 56.5658 45.4038 56.2977 45.4038 55.9666V51.6585C45.4038 51.3275 45.672 51.0593 46.003 51.0593ZM55.5916 67.5024H52.0369C51.7059 67.5024 51.4377 67.2343 51.4377 66.9032V63.3486C51.4377 63.0175 51.7059 62.7494 52.0369 62.7494H55.5916C55.9227 62.7494 56.1908 63.0175 56.1908 63.3486V66.9032C56.1908 67.2343 55.9227 67.5024 55.5916 67.5024ZM56.7166 55.9666V51.6585C56.7166 51.3275 56.9847 51.0593 57.3158 51.0593H61.624C61.955 51.0593 62.2232 51.3275 62.2232 51.6585V55.9666C62.2232 56.2977 61.955 56.5658 61.624 56.5658H57.3158C56.9847 56.5658 56.7166 56.2977 56.7166 55.9666Z" fill="var(--fill-0, white)"/>
<path id="Vector_24" d="M0.599193 85H5.20699C5.53804 85 5.80618 84.7319 5.80618 84.4008V79.7931C5.80618 79.4621 5.53804 79.1939 5.20699 79.1939H0.599193C0.268139 79.1939 0 79.4621 0 79.7931V84.4008C0 84.7319 0.268139 85 0.599193 85ZM1.12648 79.7197H4.68119C5.01225 79.7197 5.28039 79.9878 5.28039 80.3189V83.8735C5.28039 84.2046 5.01225 84.4727 4.68119 84.4727H1.12648C0.795428 84.4727 0.52729 84.2046 0.52729 83.8735V80.3189C0.52729 79.9878 0.795428 79.7197 1.12648 79.7197Z" fill="var(--fill-0, white)"/>
<path id="Vector_25" d="M79.793 85H84.4008C84.7319 85 85 84.7319 85 84.4008V79.7931C85 79.4621 84.7319 79.1939 84.4008 79.1939H79.793C79.462 79.1939 79.1938 79.4621 79.1938 79.7931V84.4008C79.1938 84.7319 79.462 85 79.793 85ZM80.3203 79.7197H83.875C84.2061 79.7197 84.4742 79.9878 84.4742 80.3189V83.8735C84.4742 84.2046 84.2061 84.4727 83.875 84.4727H80.3203C79.9893 84.4727 79.7211 84.2046 79.7211 83.8735V80.3189C79.7211 79.9878 79.9893 79.7197 80.3203 79.7197Z" fill="var(--fill-0, white)"/>
</g>
<path id="Vector_26" d="M79.2687 84.9251H84.9251V79.2688H79.2687V84.9251ZM79.6462 79.6448H84.5491V84.5476H79.6462V79.6448Z" fill="var(--fill-0, white)"/>
</g>
<defs>
<clipPath id="clip0_0_6">
<rect width="85" height="85" fill="white"/>
</clipPath>
</defs>
</svg>
