<svg preserveAspectRatio="none" width="100%" height="100%" overflow="visible" style="display: block;" viewBox="0 0 104.055 104.053" fill="none" xmlns="http://www.w3.org/2000/svg">
<g id="Group 372921">
<path id="Vector" d="M77.0903 41.7315H82.5478C82.9531 41.7315 83.2813 41.4033 83.2813 40.998V35.3573C83.2813 34.952 82.9531 34.6238 82.5478 34.6238H77.0903C76.6851 34.6238 76.3568 34.2955 76.3568 33.8902V28.6163C76.3568 28.211 76.6851 27.8828 77.0903 27.8828H82.5478C82.9531 27.8828 83.2813 27.5545 83.2813 27.1492V21.6919C83.2813 21.2866 83.6096 20.9584 84.0148 20.9584H89.4723C89.8776 20.9584 90.2058 20.6301 90.2058 20.2249V14.5841C90.2058 14.1789 89.8776 13.8506 89.4723 13.8506H83.8315C83.4262 13.8506 83.0979 14.1789 83.0979 14.5841V20.0415C83.0979 20.4467 82.7697 20.775 82.3644 20.775H76.907C76.5017 20.775 76.1734 21.1032 76.1734 21.5085V26.9659C76.1734 27.3711 75.8452 27.6994 75.4399 27.6994H70.1658C69.7606 27.6994 69.4323 27.3711 69.4323 26.9659V21.5085C69.4323 21.1032 69.104 20.775 68.6988 20.775H63.0579C62.6527 20.775 62.3244 21.1032 62.3244 21.5085V26.9659C62.3244 27.3711 61.9962 27.6994 61.5909 27.6994H56.3168C55.9115 27.6994 55.5833 27.3711 55.5833 26.9659V0.733516C55.5833 0.328248 55.255 0 54.8498 0H49.2089C48.8036 0 48.4754 0.328248 48.4754 0.733516V26.9659C48.4754 27.3711 48.1471 27.6994 47.7419 27.6994H42.4678C42.0625 27.6994 41.7343 27.3711 41.7343 26.9659V21.5085C41.7343 21.1032 41.406 20.775 41.0007 20.775H35.3599C34.9546 20.775 34.6264 21.1032 34.6264 21.5085V26.9659C34.6264 27.3711 34.2981 27.6994 33.8929 27.6994H28.6188C28.2135 27.6994 27.8853 27.3711 27.8853 26.9659V21.5085C27.8853 21.1032 27.557 20.775 27.1517 20.775H21.6943C21.289 20.775 20.9607 20.4467 20.9607 20.0415V14.5841C20.9607 14.1789 20.6325 13.8506 20.2272 13.8506H14.5864C14.1811 13.8506 13.8529 14.1789 13.8529 14.5841V20.2249C13.8529 20.6301 14.1811 20.9584 14.5864 20.9584H20.0438C20.4491 20.9584 20.7774 21.2866 20.7774 21.6919V27.1492C20.7774 27.5545 21.1056 27.8828 21.5109 27.8828H26.9683C27.3736 27.8828 27.7019 28.211 27.7019 28.6163V33.8902C27.7019 34.2955 27.3736 34.6238 26.9683 34.6238H21.5109C21.1056 34.6238 20.7774 34.952 20.7774 35.3573V40.998C20.7774 41.4033 21.1056 41.7315 21.5109 41.7315H26.9683C27.3736 41.7315 27.7019 42.0598 27.7019 42.465V47.739C27.7019 48.1443 27.3736 48.4725 26.9683 48.4725H0.733706C0.328431 48.4725 0.000177383 48.8008 0.000177383 49.2061V54.8468C0.000177383 55.2521 0.328431 55.5803 0.733706 55.5803H26.9665C27.3718 55.5803 27.7 55.9086 27.7 56.3138V61.5878C27.7 61.9931 27.3718 62.3213 26.9665 62.3213H21.5091C21.1038 62.3213 20.7755 62.6496 20.7755 63.0548V68.6956C20.7755 69.1008 21.1038 69.4291 21.5091 69.4291H26.9665C27.3718 69.4291 27.7 69.7573 27.7 70.1626V75.4366C27.7 75.8418 27.3718 76.1701 26.9665 76.1701H21.5091C21.1038 76.1701 20.7755 76.4983 20.7755 76.9036V82.361C20.7755 82.7662 20.4473 83.0945 20.042 83.0945H14.5846C14.1793 83.0945 13.851 83.4227 13.851 83.828V89.4687C13.851 89.874 14.1793 90.2022 14.5846 90.2022H20.2254C20.6307 90.2022 20.9589 89.874 20.9589 89.4687V84.0114C20.9589 83.6061 21.2872 83.2778 21.6924 83.2778H27.1499C27.5552 83.2778 27.8834 82.9496 27.8834 82.5443V77.087C27.8834 76.6817 28.2117 76.3535 28.617 76.3535H33.891C34.2963 76.3535 34.6245 76.6817 34.6245 77.087V82.5443C34.6245 82.9496 34.9528 83.2778 35.3581 83.2778H40.9989C41.4042 83.2778 41.7324 82.9496 41.7324 82.5443V77.087C41.7324 76.6817 42.0607 76.3535 42.466 76.3535H47.74C48.1453 76.3535 48.4736 76.6817 48.4736 77.087V103.319C48.4736 103.725 48.8018 104.053 49.2071 104.053H54.8479C55.2532 104.053 55.5815 103.725 55.5815 103.319V77.087C55.5815 76.6817 55.9097 76.3535 56.315 76.3535H61.589C61.9943 76.3535 62.3226 76.6817 62.3226 77.087V82.5443C62.3226 82.9496 62.6508 83.2778 63.0561 83.2778H68.6969C69.1022 83.2778 69.4305 82.9496 69.4305 82.5443V77.087C69.4305 76.6817 69.7587 76.3535 70.164 76.3535H75.4381C75.8433 76.3535 76.1716 76.6817 76.1716 77.087V82.5443C76.1716 82.9496 76.4998 83.2778 76.9051 83.2778H82.3626C82.7678 83.2778 83.0961 83.6061 83.0961 84.0114V89.4687C83.0961 89.874 83.4244 90.2022 83.8296 90.2022H89.4705C89.8757 90.2022 90.204 89.874 90.204 89.4687V83.828C90.204 83.4227 89.8757 83.0945 89.4705 83.0945H84.013C83.6077 83.0945 83.2795 82.7662 83.2795 82.361V76.9036C83.2795 76.4983 82.9512 76.1701 82.546 76.1701H77.0885C76.6832 76.1701 76.355 75.8418 76.355 75.4366V70.1626C76.355 69.7573 76.6832 69.4291 77.0885 69.4291H82.546C82.9512 69.4291 83.2795 69.1008 83.2795 68.6956V63.0548C83.2795 62.6496 82.9512 62.3213 82.546 62.3213H77.0885C76.6832 62.3213 76.355 61.9931 76.355 61.5878V56.3138C76.355 55.9086 76.6832 55.5803 77.0885 55.5803H103.321C103.727 55.5803 104.055 55.2521 104.055 54.8468V49.2061C104.055 48.8008 103.727 48.4725 103.321 48.4725H77.0885C76.6832 48.4725 76.355 48.1443 76.355 47.739V42.465C76.355 42.0598 76.6832 41.7315 77.0885 41.7315H77.0903ZM77.5525 35.2693H81.9041C82.3094 35.2693 82.6376 35.5975 82.6376 36.0028V40.3544C82.6376 40.7596 82.3094 41.0879 81.9041 41.0879H77.5525C77.1472 41.0879 76.8189 40.7596 76.8189 40.3544V36.0028C76.8189 35.5975 77.1472 35.2693 77.5525 35.2693ZM84.477 14.4943H88.8286C89.2339 14.4943 89.5622 14.8225 89.5622 15.2278V19.5794C89.5622 19.9846 89.2339 20.3129 88.8286 20.3129H84.477C84.0717 20.3129 83.7434 19.9846 83.7434 19.5794V15.2278C83.7434 14.8225 84.0717 14.4943 84.477 14.4943ZM77.5525 21.4187H81.9041C82.3094 21.4187 82.6376 21.7469 82.6376 22.1522V26.5037C82.6376 26.909 82.3094 27.2373 81.9041 27.2373H77.5525C77.1472 27.2373 76.8189 26.909 76.8189 26.5037V22.1522C76.8189 21.7469 77.1472 21.4187 77.5525 21.4187ZM26.5044 41.0879H22.1527C21.7475 41.0879 21.4192 40.7596 21.4192 40.3544V36.0028C21.4192 35.5975 21.7475 35.2693 22.1527 35.2693H26.5044C26.9097 35.2693 27.2379 35.5975 27.2379 36.0028V40.3544C27.2379 40.7596 26.9097 41.0879 26.5044 41.0879ZM84.477 83.7418H88.8286C89.2339 83.7418 89.5622 84.07 89.5622 84.4753V88.8269C89.5622 89.2322 89.2339 89.5604 88.8286 89.5604H84.477C84.0717 89.5604 83.7434 89.2322 83.7434 88.8269V84.4753C83.7434 84.07 84.0717 83.7418 84.477 83.7418ZM77.5525 76.8174H81.9041C82.3094 76.8174 82.6376 77.1457 82.6376 77.5509V81.9025C82.6376 82.3078 82.3094 82.636 81.9041 82.636H77.5525C77.1472 82.636 76.8189 82.3078 76.8189 81.9025V77.5509C76.8189 77.1457 77.1472 76.8174 77.5525 76.8174ZM77.5525 62.9686H81.9041C82.3094 62.9686 82.6376 63.2969 82.6376 63.7022V68.0537C82.6376 68.459 82.3094 68.7872 81.9041 68.7872H77.5525C77.1472 68.7872 76.8189 68.459 76.8189 68.0537V63.7022C76.8189 63.2969 77.1472 62.9686 77.5525 62.9686ZM75.4399 41.5482H70.1658C69.7606 41.5482 69.4323 41.2199 69.4323 40.8146V35.5407C69.4323 35.1354 69.7606 34.8071 70.1658 34.8071H75.4399C75.8452 34.8071 76.1734 35.1354 76.1734 35.5407V40.8146C76.1734 41.2199 75.8452 41.5482 75.4399 41.5482ZM63.2413 69.4309H68.5154C68.9207 69.4309 69.2489 69.7592 69.2489 70.1644V75.4384C69.2489 75.8437 68.9207 76.1719 68.5154 76.1719H63.2413C62.836 76.1719 62.5078 75.8437 62.5078 75.4384V70.1644C62.5078 69.7592 62.836 69.4309 63.2413 69.4309ZM54.9378 56.7778V61.1293C54.9378 61.5346 54.6095 61.8629 54.2042 61.8629H49.8526C49.4473 61.8629 49.1191 61.5346 49.1191 61.1293V56.7778C49.1191 56.3725 49.4473 56.0443 49.8526 56.0443H54.2042C54.6095 56.0443 54.9378 56.3725 54.9378 56.7778ZM56.3168 48.6578H61.5909C61.9962 48.6578 62.3244 48.986 62.3244 49.3913V54.6652C62.3244 55.0705 61.9962 55.3988 61.5909 55.3988H56.3168C55.9115 55.3988 55.5833 55.0705 55.5833 54.6652V49.3913C55.5833 48.986 55.9115 48.6578 56.3168 48.6578ZM62.9699 68.0537V63.7022C62.9699 63.2969 63.2982 62.9686 63.7034 62.9686H68.0551C68.4604 62.9686 68.7886 63.2969 68.7886 63.7022V68.0537C68.7886 68.459 68.4604 68.7872 68.0551 68.7872H63.7034C63.2982 68.7872 62.9699 68.459 62.9699 68.0537ZM62.5078 61.5896V56.3157C62.5078 55.9104 62.836 55.5821 63.2413 55.5821H68.5154C68.9207 55.5821 69.2489 55.9104 69.2489 56.3157V61.5896C69.2489 61.9949 68.9207 62.3231 68.5154 62.3231H63.2413C62.836 62.3231 62.5078 61.9949 62.5078 61.5896ZM68.5154 48.4744H63.2413C62.836 48.4744 62.5078 48.1461 62.5078 47.7409V42.4669C62.5078 42.0616 62.836 41.7334 63.2413 41.7334H68.5154C68.9207 41.7334 69.2489 42.0616 69.2489 42.4669V47.7409C69.2489 48.1461 68.9207 48.4744 68.5154 48.4744ZM68.5154 34.6238H63.2413C62.836 34.6238 62.5078 34.2955 62.5078 33.8902V28.6163C62.5078 28.211 62.836 27.8828 63.2413 27.8828H68.5154C68.9207 27.8828 69.2489 28.211 69.2489 28.6163V33.8902C69.2489 34.2955 68.9207 34.6238 68.5154 34.6238ZM68.7886 36.0028V40.3544C68.7886 40.7596 68.4604 41.0879 68.0551 41.0879H63.7034C63.2982 41.0879 62.9699 40.7596 62.9699 40.3544V36.0028C62.9699 35.5975 63.2982 35.2693 63.7034 35.2693H68.0551C68.4604 35.2693 68.7886 35.5975 68.7886 36.0028ZM63.7034 21.4187H68.0551C68.4604 21.4187 68.7886 21.7469 68.7886 22.1522V26.5037C68.7886 26.909 68.4604 27.2373 68.0551 27.2373H63.7034C63.2982 27.2373 62.9699 26.909 62.9699 26.5037V22.1522C62.9699 21.7469 63.2982 21.4187 63.7034 21.4187ZM62.3244 35.5407V40.8146C62.3244 41.2199 61.9962 41.5482 61.5909 41.5482H56.3168C55.9115 41.5482 55.5833 41.2199 55.5833 40.8146V35.5407C55.5833 35.1354 55.9115 34.8071 56.3168 34.8071H61.5909C61.9962 34.8071 62.3244 35.1354 62.3244 35.5407ZM55.3999 42.465V47.739C55.3999 48.1443 55.0717 48.4725 54.6664 48.4725H49.3923C48.987 48.4725 48.6588 48.1443 48.6588 47.739V42.465C48.6588 42.0598 48.987 41.7315 49.3923 41.7315H54.6664C55.0717 41.7315 55.3999 42.0598 55.3999 42.465ZM42.466 34.8071H47.74C48.1453 34.8071 48.4736 35.1354 48.4736 35.5407V40.8146C48.4736 41.2199 48.1453 41.5482 47.74 41.5482H42.466C42.0607 41.5482 41.7324 41.2199 41.7324 40.8146V35.5407C41.7324 35.1354 42.0607 34.8071 42.466 34.8071ZM42.466 48.6578H47.74C48.1453 48.6578 48.4736 48.986 48.4736 49.3913V54.6652C48.4736 55.0705 48.1453 55.3988 47.74 55.3988H42.466C42.0607 55.3988 41.7324 55.0705 41.7324 54.6652V49.3913C41.7324 48.986 42.0607 48.6578 42.466 48.6578ZM36.0036 21.4187H40.3552C40.7605 21.4187 41.0888 21.7469 41.0888 22.1522V26.5037C41.0888 26.909 40.7605 27.2373 40.3552 27.2373H36.0036C35.5983 27.2373 35.2701 26.909 35.2701 26.5037V22.1522C35.2701 21.7469 35.5983 21.4187 36.0036 21.4187ZM35.5415 27.8828H40.8155C41.2208 27.8828 41.5491 28.211 41.5491 28.6163V33.8902C41.5491 34.2955 41.2208 34.6238 40.8155 34.6238H35.5415C35.1362 34.6238 34.8079 34.2955 34.8079 33.8902V28.6163C34.8079 28.211 35.1362 27.8828 35.5415 27.8828ZM41.0888 36.0028V40.3544C41.0888 40.7596 40.7605 41.0879 40.3552 41.0879H36.0036C35.5983 41.0879 35.2701 40.7596 35.2701 40.3544V36.0028C35.2701 35.5975 35.5983 35.2693 36.0036 35.2693H40.3552C40.7605 35.2693 41.0888 35.5975 41.0888 36.0028ZM35.5415 41.7315H40.8155C41.2208 41.7315 41.5491 42.0598 41.5491 42.465V47.739C41.5491 48.1443 41.2208 48.4725 40.8155 48.4725H35.5415C35.1362 48.4725 34.8079 48.1443 34.8079 47.739V42.465C34.8079 42.0598 35.1362 41.7315 35.5415 41.7315ZM35.5415 55.5821H40.8155C41.2208 55.5821 41.5491 55.9104 41.5491 56.3157V61.5896C41.5491 61.9949 41.2208 62.3231 40.8155 62.3231H35.5415C35.1362 62.3231 34.8079 61.9949 34.8079 61.5896V56.3157C34.8079 55.9104 35.1362 55.5821 35.5415 55.5821ZM41.0888 63.7022V68.0537C41.0888 68.459 40.7605 68.7872 40.3552 68.7872H36.0036C35.5983 68.7872 35.2701 68.459 35.2701 68.0537V63.7022C35.2701 63.2969 35.5983 62.9686 36.0036 62.9686H40.3552C40.7605 62.9686 41.0888 63.2969 41.0888 63.7022ZM33.891 41.5482H28.617C28.2117 41.5482 27.8834 41.2199 27.8834 40.8146V35.5407C27.8834 35.1354 28.2117 34.8071 28.617 34.8071H33.891C34.2963 34.8071 34.6245 35.1354 34.6245 35.5407V40.8146C34.6245 41.2199 34.2963 41.5482 33.891 41.5482ZM19.5799 20.3129H15.2282C14.823 20.3129 14.4947 19.9846 14.4947 19.5794V15.2278C14.4947 14.8225 14.823 14.4943 15.2282 14.4943H19.5799C19.9852 14.4943 20.3134 14.8225 20.3134 15.2278V19.5794C20.3134 19.9846 19.9852 20.3129 19.5799 20.3129ZM26.5044 27.2373H22.1527C21.7475 27.2373 21.4192 26.909 21.4192 26.5037V22.1522C21.4192 21.7469 21.7475 21.4187 22.1527 21.4187H26.5044C26.9097 21.4187 27.2379 21.7469 27.2379 22.1522V26.5037C27.2379 26.909 26.9097 27.2373 26.5044 27.2373ZM26.5044 68.7872H22.1527C21.7475 68.7872 21.4192 68.459 21.4192 68.0537V63.7022C21.4192 63.2969 21.7475 62.9686 22.1527 62.9686H26.5044C26.9097 62.9686 27.2379 63.2969 27.2379 63.7022V68.0537C27.2379 68.459 26.9097 68.7872 26.5044 68.7872ZM19.5799 89.5604H15.2282C14.823 89.5604 14.4947 89.2322 14.4947 88.8269V84.4753C14.4947 84.07 14.823 83.7418 15.2282 83.7418H19.5799C19.9852 83.7418 20.3134 84.07 20.3134 84.4753V88.8269C20.3134 89.2322 19.9852 89.5604 19.5799 89.5604ZM26.5044 82.636H22.1527C21.7475 82.636 21.4192 82.3078 21.4192 81.9025V77.5509C21.4192 77.1457 21.7475 76.8174 22.1527 76.8174H26.5044C26.9097 76.8174 27.2379 77.1457 27.2379 77.5509V81.9025C27.2379 82.3078 26.9097 82.636 26.5044 82.636ZM27.8834 68.514V63.24C27.8834 62.8348 28.2117 62.5065 28.617 62.5065H33.891C34.2963 62.5065 34.6245 62.8348 34.6245 63.24V68.514C34.6245 68.9193 34.2963 69.2475 33.891 69.2475H28.617C28.2117 69.2475 27.8834 68.9193 27.8834 68.514ZM40.3552 82.636H36.0036C35.5983 82.636 35.2701 82.3078 35.2701 81.9025V77.5509C35.2701 77.1457 35.5983 76.8174 36.0036 76.8174H40.3552C40.7605 76.8174 41.0888 77.1457 41.0888 77.5509V81.9025C41.0888 82.3078 40.7605 82.636 40.3552 82.636ZM34.8079 75.4402V70.1663C34.8079 69.761 35.1362 69.4327 35.5415 69.4327H40.8155C41.2208 69.4327 41.5491 69.761 41.5491 70.1663V75.4402C41.5491 75.8455 41.2208 76.1738 40.8155 76.1738H35.5415C35.1362 76.1738 34.8079 75.8455 34.8079 75.4402ZM41.7324 68.514V63.24C41.7324 62.8348 42.0607 62.5065 42.466 62.5065H47.74C48.1453 62.5065 48.4736 62.8348 48.4736 63.24V68.514C48.4736 68.9193 48.1453 69.2475 47.74 69.2475H42.466C42.0607 69.2475 41.7324 68.9193 41.7324 68.514ZM56.3168 62.5065H61.5909C61.9962 62.5065 62.3244 62.8348 62.3244 63.24V68.514C62.3244 68.9193 61.9962 69.2475 61.5909 69.2475H56.3168C55.9115 69.2475 55.5833 68.9193 55.5833 68.514V63.24C55.5833 62.8348 55.9115 62.5065 56.3168 62.5065ZM68.0551 82.636H63.7034C63.2982 82.636 62.9699 82.3078 62.9699 81.9025V77.5509C62.9699 77.1457 63.2982 76.8174 63.7034 76.8174H68.0551C68.4604 76.8174 68.7886 77.1457 68.7886 77.5509V81.9025C68.7886 82.3078 68.4604 82.636 68.0551 82.636ZM69.4323 68.514V63.24C69.4323 62.8348 69.7606 62.5065 70.1658 62.5065H75.4399C75.8452 62.5065 76.1734 62.8348 76.1734 63.24V68.514C76.1734 68.9193 75.8452 69.2475 75.4399 69.2475H70.1658C69.7606 69.2475 69.4323 68.9193 69.4323 68.514Z" fill="var(--fill-0, white)"/>
</g>
</svg>
