<svg preserveAspectRatio="xMidYMid meet" style="display: block;" viewBox="0 0 104.05 104.05" fill="none" xmlns="http://www.w3.org/2000/svg">
<g id="Group 372920">
<path id="Vector" d="M6.93672 0H4.38364e-05V6.93655H6.93672V0ZM6.47562 6.47546H0.462979V0.462927H6.47562V6.47546Z" fill="var(--fill-0, white)"/>
<path id="Vector_2" d="M97.1134 0V6.93655H104.05V0H97.1134ZM103.589 6.47546H97.5763V0.462927H103.589V6.47546Z" fill="var(--fill-0, white)"/>
<path id="Vector_3" d="M13.8725 13.8723V20.8088H20.8091V13.8723H13.8725ZM20.348 20.3477H14.3354V14.3352H20.348V20.3477Z" fill="var(--fill-0, white)"/>
<path id="Vector_4" d="M90.1767 13.8723H83.24V20.8088H90.1767V13.8723ZM89.7138 20.3477H83.7011V14.3352H89.7138V20.3477Z" fill="var(--fill-0, white)"/>
<path id="Vector_5" d="M20.811 20.8102V27.7468H27.7476V20.8102H20.811ZM27.2847 27.2839H21.2721V21.2713H27.2847V27.2839Z" fill="var(--fill-0, white)"/>
<path id="Vector_6" d="M69.3671 20.8102H62.4304V27.7468H69.3671V20.8102ZM68.906 27.2839H62.8933V21.2713H68.906V27.2839Z" fill="var(--fill-0, white)"/>
<path id="Vector_7" d="M69.3671 34.6825H62.4304V41.6191H69.3671V34.6825ZM68.906 41.158H62.8933V35.1454H68.906V41.158Z" fill="var(--fill-0, white)"/>
<path id="Vector_8" d="M62.4306 41.6186H55.4939V48.5552H62.4306V41.6186Z" fill="var(--fill-0, white)"/>
<path id="Vector_9" d="M55.4941 48.5568H48.5575V55.4934H55.4941V48.5568Z" fill="var(--fill-0, white)"/>
<path id="Vector_10" d="M104.05 48.5567H76.3029V41.6206H83.2392V34.6844H76.3029V27.7483H83.2392V20.8121H76.3029V27.7483H69.3667V34.6844H76.3029V41.6206H69.3667V48.5567H62.4304V55.4929H69.3667V62.429H76.3029V69.3652H83.2392V62.429H76.3029V55.4929H104.05V48.5567ZM76.7659 35.1455H82.7781V41.1577H76.7659V35.1455ZM76.7659 21.2713H82.7781V27.2835H76.7659V21.2713ZM76.7659 62.8919H82.7781V68.9041H76.7659V62.8919Z" fill="var(--fill-0, white)"/>
<path id="Vector_11" d="M55.4939 62.4291V55.4929H48.5577H41.6214V62.4291H34.6851V55.4929H41.6214V48.5568H34.6851V41.6206H41.6214V48.5568H48.5577V41.6206H41.6214V34.6844H48.5577V41.6206H55.4939V34.6844H62.4302V27.7483H55.4939V0H48.5577V27.7465H41.6214V20.8103H34.6851V27.7465H27.7488V34.6826H34.6851V41.6188H27.7488V34.6826H20.8125V41.6188H27.7488V48.5549H4.38364e-05V55.4911H27.747V62.4272H20.8107V69.3634H27.747V62.4272H34.6833V69.3634H41.6195V62.4272H48.5558H55.4921L55.4939 62.4291ZM49.0187 55.9558H55.031V61.968H49.0187V55.9558ZM27.2841 41.1577H21.2718V35.1455H27.2841V41.1577ZM41.1585 41.1577H35.1462V35.1455H41.1585V41.1577ZM35.1462 21.2714H41.1585V27.2836H35.1462V21.2714ZM34.6833 27.7465H41.6195V34.6826H34.6833V27.7465ZM27.2841 68.9041H21.2718V62.892H27.2841V68.9041ZM41.1585 68.9041H35.1462V62.892H41.1585V68.9041Z" fill="var(--fill-0, white)"/>
<path id="Vector_12" d="M62.4306 55.4928H55.4939V62.4293H62.4306V55.4928Z" fill="var(--fill-0, white)"/>
<path id="Vector_13" d="M48.5578 69.3653H41.6215V76.3014H34.6852V69.3653H27.749V76.3014H34.6852V83.2376H41.6215V76.3014H48.5578V104.048H55.4941V76.3014H62.4303V69.3653H55.4941V62.4291H48.5578V69.3653ZM41.1586 82.7765H35.1463V76.7643H41.1586V82.7765Z" fill="var(--fill-0, white)"/>
<path id="Vector_14" d="M62.4304 69.3657H69.3671V62.4291H62.4304V69.3657ZM62.8933 62.892H68.906V68.9046H62.8933V62.892Z" fill="var(--fill-0, white)"/>
<path id="Vector_15" d="M20.811 83.2398H27.7476V76.3032H20.811V83.2398ZM21.2721 76.7643H27.2847V82.7768H21.2721V76.7643Z" fill="var(--fill-0, white)"/>
<path id="Vector_16" d="M62.4304 83.2398H69.3671V76.3032H62.4304V83.2398ZM62.8933 76.7643H68.906V82.7768H62.8933V76.7643Z" fill="var(--fill-0, white)"/>
<path id="Vector_17" d="M76.3045 76.3034V69.3671H69.3681V76.3034H76.3045V83.2396H83.2409V76.3034H76.3045ZM82.778 82.7767H76.7655V76.7644H82.778V82.7767Z" fill="var(--fill-0, white)"/>
<path id="Vector_18" d="M13.8725 90.1759H20.8091V83.2394H13.8725V90.1759ZM14.3354 83.7004H20.348V89.713H14.3354V83.7004Z" fill="var(--fill-0, white)"/>
<path id="Vector_19" d="M83.24 90.1759H90.1767V83.2394H83.24V90.1759ZM83.7011 83.7004H89.7138V89.713H83.7011V83.7004Z" fill="var(--fill-0, white)"/>
<path id="Vector_20" d="M0 104.05H6.93667V97.1135H0V104.05ZM0.462935 97.5746H6.47558V103.587H0.462935V97.5746Z" fill="var(--fill-0, white)"/>
<path id="Vector_21" d="M97.1134 104.05H104.05V97.1135H97.1134V104.05ZM97.5763 97.5746H103.589V103.587H97.5763V97.5746Z" fill="var(--fill-0, white)"/>
</g>
</svg>
