<svg preserveAspectRatio="none" width="100%" height="100%" overflow="visible" style="display: block;" viewBox="0 0 73 85" fill="none" xmlns="http://www.w3.org/2000/svg">
<g id="tree" clip-path="url(#clip0_0_132)">
<path id="Vector" d="M33.6974 5.73128H33.9349C34.0195 5.77772 34.1145 5.80618 34.2168 5.80618H38.7817C38.8841 5.80618 38.979 5.77772 39.0636 5.73128H39.3011V5.4916C39.3471 5.40622 39.3753 5.31035 39.3753 5.20699V0.599193C39.3753 0.495832 39.3471 0.399961 39.3011 0.314576V0.0748991H39.0636C38.979 0.0284617 38.8841 0 38.7817 0H34.2168C34.1145 0 34.0195 0.0284617 33.9349 0.0748991H33.6974V0.314576C33.6514 0.399961 33.6232 0.495832 33.6232 0.599193V5.20699C33.6232 5.31035 33.6514 5.40622 33.6974 5.4916V5.73128Z" fill="var(--fill-0, white)"/>
<path id="Vector_2" d="M39.0651 39.6726C38.9805 39.6261 38.8855 39.5977 38.7831 39.5977H34.2183C34.1159 39.5977 34.021 39.6261 33.9364 39.6726H33.6989V39.9122C33.6529 39.9976 33.6247 40.0935 33.6247 40.1969V44.8046C33.6247 44.908 33.6529 45.0039 33.6989 45.0893V45.3289H33.9364C34.021 45.3754 34.1159 45.4038 34.2183 45.4038H38.7831C38.8855 45.4038 38.9805 45.3754 39.0651 45.3289H39.3026V45.0893C39.3486 45.0039 39.3768 44.908 39.3768 44.8046V40.1969C39.3768 40.0935 39.3486 39.9976 39.3026 39.9122V39.6726H39.0651Z" fill="var(--fill-0, white)"/>
<path id="Vector_3" d="M44.9062 56.6417V56.402C44.9522 56.3166 44.9804 56.2208 44.9804 56.1174V51.6594C44.9804 51.3284 45.246 51.0602 45.574 51.0602H49.9904C50.0928 51.0602 50.1878 51.0318 50.2724 50.9853H50.5098V50.7456C50.5558 50.6603 50.584 50.5644 50.584 50.461V45.8532C50.584 45.7499 50.5558 45.654 50.5098 45.5686V45.3289H50.2724C50.1878 45.2825 50.0928 45.254 49.9904 45.254H45.4256C45.3232 45.254 45.2282 45.2825 45.1436 45.3289H44.9062V45.5686C44.8602 45.654 44.832 45.7499 44.832 45.8532V50.3112C44.832 50.6423 44.5663 50.9104 44.2384 50.9104H39.822C39.7196 50.9104 39.6246 50.9389 39.54 50.9853H39.3026V51.225C39.2565 51.3104 39.2284 51.4062 39.2284 51.5096V55.9676C39.2284 56.2987 38.9627 56.5668 38.6347 56.5668H34.3667C34.0388 56.5668 33.7731 56.2987 33.7731 55.9676V51.5096C33.7731 51.4062 33.7449 51.3104 33.6989 51.225V50.9853H33.4615C33.3769 50.9389 33.2819 50.9104 33.1795 50.9104H28.7631C28.4351 50.9104 28.1695 50.6423 28.1695 50.3112V45.8532C28.1695 45.7499 28.1413 45.654 28.0953 45.5686V45.3289H27.8579C27.7733 45.2825 27.6783 45.254 27.5759 45.254H23.0111C22.9087 45.254 22.8137 45.2825 22.7291 45.3289H22.4917V45.5686C22.4457 45.654 22.4175 45.7499 22.4175 45.8532V50.3112C22.4175 50.6423 22.1518 50.9104 21.8239 50.9104H17.4075C17.3051 50.9104 17.2101 50.9389 17.1255 50.9853H16.888V51.225C16.842 51.3104 16.8138 51.4062 16.8138 51.5096V61.624C16.8138 61.955 16.5482 62.2232 16.2202 62.2232H11.9522C11.6243 62.2232 11.3586 61.955 11.3586 61.624V23.3745C11.3586 23.0435 11.6243 22.7753 11.9522 22.7753H16.2202C16.5482 22.7753 16.8138 23.0435 16.8138 23.3745V27.8325C16.8138 27.9359 16.842 28.0317 16.888 28.1171V28.3568H17.1255C17.2101 28.4032 17.3051 28.4317 17.4075 28.4317H21.9723C22.0747 28.4317 22.1696 28.4032 22.2542 28.3568H22.4917V28.1171C22.5377 28.0317 22.5659 27.9359 22.5659 27.8325V23.3745C22.5659 23.0435 22.8315 22.7753 23.1595 22.7753H27.5759C27.6783 22.7753 27.7733 22.7469 27.8579 22.7004H28.0953V22.4607C28.1413 22.3754 28.1695 22.2795 28.1695 22.1761V17.5683C28.1695 17.465 28.1413 17.3691 28.0953 17.2837V17.044H27.8579C27.7733 16.9976 27.6783 16.9691 27.5759 16.9691H23.1595C22.8315 16.9691 22.5659 16.701 22.5659 16.3699V11.912C22.5659 11.8086 22.5377 11.7127 22.4917 11.6273V11.3877H22.2542C22.1696 11.3412 22.0747 11.3128 21.9723 11.3128H17.5559C17.2279 11.3128 16.9622 11.0446 16.9622 10.7136V6.25557C16.9622 6.15221 16.9341 6.05634 16.888 5.97096V5.73128H16.6506C16.566 5.68484 16.471 5.65638 16.3686 5.65638H11.8038C11.7014 5.65638 11.6065 5.68484 11.5219 5.73128H11.2844V5.97096C11.2384 6.05634 11.2102 6.15221 11.2102 6.25557V10.7136C11.2102 11.0446 10.9446 11.3128 10.6166 11.3128H6.2002C6.0978 11.3128 6.00283 11.3412 5.91824 11.3877H5.68079V11.6273C5.63479 11.7127 5.60659 11.8086 5.60659 11.912V16.3699C5.60659 16.701 5.34096 16.9691 5.01299 16.9691H0.593605C0.491208 16.9691 0.396231 16.9976 0.311642 17.044H0.0742006V17.2837C0.0281962 17.3691 0 17.465 0 17.5683V22.1761C0 22.2795 0.0281962 22.3754 0.0742006 22.4607V22.7004H0.311642C0.396231 22.7469 0.491208 22.7753 0.593605 22.7753H5.01002C5.33799 22.7753 5.60363 23.0435 5.60363 23.3745V38.997C5.60363 39.328 5.33799 39.5962 5.01002 39.5962H0.593605C0.491208 39.5962 0.396231 39.6246 0.311642 39.6711H0.0742006V39.9107C0.0281962 39.9961 0 40.092 0 40.1954V44.8031C0 44.9065 0.0281962 45.0024 0.0742006 45.0878V45.3274H0.311642C0.396231 45.3739 0.491208 45.4023 0.593605 45.4023H5.01002C5.33799 45.4023 5.60363 45.6705 5.60363 46.0015V61.624C5.60363 61.955 5.33799 62.2232 5.01002 62.2232H0.593605C0.491208 62.2232 0.396231 62.2516 0.311642 62.2981H0.0742006V62.5378C0.0281962 62.6231 0 62.719 0 62.8224V67.4302C0 67.5335 0.0281962 67.6294 0.0742006 67.7148V67.9545H0.311642C0.396231 68.0009 0.491208 68.0294 0.593605 68.0294H5.01002C5.33799 68.0294 5.60363 68.2975 5.60363 68.6286V73.0865C5.60363 73.1899 5.63182 73.2858 5.67783 73.3712V73.6108H5.91527C5.99986 73.6573 6.09483 73.6857 6.19723 73.6857H10.762C10.8644 73.6857 10.9594 73.6573 11.044 73.6108H11.2815V73.3712C11.3275 73.2858 11.3557 73.1899 11.3557 73.0865V68.6286C11.3557 68.2975 11.6213 68.0294 11.9493 68.0294H16.2173C16.5452 68.0294 16.8109 68.2975 16.8109 68.6286V84.4008C16.8109 84.5042 16.8391 84.6 16.8851 84.6854V84.9251H17.1225C17.2071 84.9715 17.3021 85 17.4045 85H21.9693C22.0717 85 22.1667 84.9715 22.2513 84.9251H22.4887V84.6854C22.5347 84.6 22.5629 84.5042 22.5629 84.4008V51.6594C22.5629 51.3284 22.8285 51.0602 23.1565 51.0602H27.4245C27.7525 51.0602 28.0181 51.3284 28.0181 51.6594V56.1174C28.0181 56.2208 28.0463 56.3166 28.0923 56.402V56.6417H28.3298C28.4144 56.6881 28.5093 56.7166 28.6117 56.7166H33.0282C33.3561 56.7166 33.6218 56.9847 33.6218 57.3158V61.7738C33.6218 61.8771 33.65 61.973 33.696 62.0584V62.2981H33.9334C34.018 62.3445 34.113 62.373 34.2154 62.373H38.7802C38.8826 62.373 38.9776 62.3445 39.0621 62.2981H39.2996V62.0584C39.3456 61.973 39.3738 61.8771 39.3738 61.7738V57.3158C39.3738 56.9847 39.6394 56.7166 39.9674 56.7166H44.3838C44.4862 56.7166 44.5812 56.6881 44.6658 56.6417H44.9032H44.9062ZM10.8348 69.006V72.5608C10.8348 72.8918 10.5691 73.16 10.2412 73.16H6.7196C6.39164 73.16 6.126 72.8918 6.126 72.5608V69.006C6.126 68.675 6.39164 68.4069 6.7196 68.4069H10.2412C10.5691 68.4069 10.8348 68.675 10.8348 69.006ZM22.416 22.0278C22.416 22.3589 22.1504 22.627 21.8224 22.627H17.5544C17.2264 22.627 16.9608 22.3589 16.9608 22.0278V17.7196C16.9608 17.3886 17.2264 17.1204 17.5544 17.1204H21.8224C22.1504 17.1204 22.416 17.3886 22.416 17.7196V22.0278ZM11.3571 12.0618C11.3571 11.7307 11.6228 11.4626 11.9507 11.4626H16.2188C16.5467 11.4626 16.8124 11.7307 16.8124 12.0618V16.3699C16.8124 16.701 16.5467 16.9691 16.2188 16.9691H11.9507C11.6228 16.9691 11.3571 16.701 11.3571 16.3699V12.0618ZM11.7296 21.6503V18.0956C11.7296 17.7646 11.9953 17.4964 12.3232 17.4964H15.8448C16.1728 17.4964 16.4384 17.7646 16.4384 18.0956V21.6503C16.4384 21.9814 16.1728 22.2495 15.8448 22.2495H12.3232C11.9953 22.2495 11.7296 21.9814 11.7296 21.6503ZM5.75203 17.7196C5.75203 17.3886 6.01767 17.1204 6.34563 17.1204H10.6136C10.9416 17.1204 11.2073 17.3886 11.2073 17.7196V22.0278C11.2073 22.3589 10.9416 22.627 10.6136 22.627H6.34563C6.01767 22.627 5.75203 22.3589 5.75203 22.0278V17.7196ZM5.75203 62.9722C5.75203 62.6411 6.01767 62.373 6.34563 62.373H10.6136C10.9416 62.373 11.2073 62.6411 11.2073 62.9722V67.2804C11.2073 67.6114 10.9416 67.8796 10.6136 67.8796H6.34563C6.01767 67.8796 5.75203 67.6114 5.75203 67.2804V62.9722ZM5.23114 40.7226V44.2774C5.23114 44.6084 4.9655 44.8765 4.63754 44.8765H1.11598C0.78801 44.8765 0.522372 44.6084 0.522372 44.2774V40.7226C0.522372 40.3916 0.78801 40.1235 1.11598 40.1235H4.63754C4.9655 40.1235 5.23114 40.3916 5.23114 40.7226Z" fill="var(--fill-0, white)"/>
<path id="Vector_4" d="M67.3964 33.9398V23.376C67.3964 23.045 67.662 22.7768 67.99 22.7768H72.4064C72.5088 22.7768 72.6038 22.7484 72.6884 22.7019H72.9258V22.4622C72.9718 22.3769 73 22.281 73 22.1776V17.5698C73 17.4665 72.9718 17.3706 72.9258 17.2852V17.0455H72.6884C72.6038 16.9991 72.5088 16.9706 72.4064 16.9706H67.99C67.662 16.9706 67.3964 16.7025 67.3964 16.3714V11.9135C67.3964 11.8101 67.3682 11.7142 67.3222 11.6288V11.3892H67.0847C67.0001 11.3427 66.9052 11.3143 66.8028 11.3143H62.2379C62.1356 11.3143 62.0406 11.3427 61.956 11.3892H61.7185V11.6288C61.6725 11.7142 61.6443 11.8101 61.6443 11.9135V16.3714C61.6443 16.7025 61.3787 16.9706 61.0507 16.9706H56.7827C56.4548 16.9706 56.1891 16.7025 56.1891 16.3714V0.599193C56.1891 0.495832 56.1609 0.399961 56.1149 0.314576V0.0748991H55.8775C55.7929 0.0284617 55.6979 0 55.5955 0H51.0307C50.9283 0 50.8333 0.0284617 50.7487 0.0748991H50.5113V0.314576C50.4653 0.399961 50.4371 0.495832 50.4371 0.599193V33.3406C50.4371 33.6716 50.1715 33.9398 49.8435 33.9398H45.5755C45.2475 33.9398 44.9819 33.6716 44.9819 33.3406V28.8826C44.9819 28.7792 44.9537 28.6834 44.9077 28.598V28.3583H44.6702C44.5856 28.3119 44.4907 28.2834 44.3883 28.2834H39.9718C39.6439 28.2834 39.3782 28.0153 39.3782 27.6842V23.2262C39.3782 23.1229 39.35 23.027 39.304 22.9416V22.7019H39.0666C38.982 22.6555 38.887 22.627 38.7846 22.627H34.2198C34.1174 22.627 34.0224 22.6555 33.9379 22.7019H33.7004V22.9416C33.6544 23.027 33.6262 23.1229 33.6262 23.2262V27.6842C33.6262 28.0153 33.3606 28.2834 33.0326 28.2834H28.6162C28.5138 28.2834 28.4188 28.3119 28.3342 28.3583H28.0968V28.598C28.0508 28.6834 28.0226 28.7792 28.0226 28.8826V33.3406C28.0226 33.6716 27.7569 33.9398 27.429 33.9398H23.0126C22.9102 33.9398 22.8152 33.9682 22.7306 34.0147H22.4932V34.2544C22.4472 34.3397 22.419 34.4356 22.419 34.539V39.1468C22.419 39.2501 22.4472 39.346 22.4932 39.4314V39.6711H22.7306C22.8152 39.7175 22.9102 39.746 23.0126 39.746H27.5774C27.6798 39.746 27.7748 39.7175 27.8593 39.6711H28.0968V39.4314C28.1428 39.346 28.171 39.2501 28.171 39.1468V34.6888C28.171 34.3577 28.4366 34.0896 28.7646 34.0896H33.181C33.2834 34.0896 33.3784 34.0611 33.463 34.0147H33.7004V33.775C33.7464 33.6896 33.7746 33.5937 33.7746 33.4904V29.0324C33.7746 28.7013 34.0402 28.4332 34.3682 28.4332H38.6362C38.9642 28.4332 39.2298 28.7013 39.2298 29.0324V33.4904C39.2298 33.5937 39.258 33.6896 39.304 33.775V34.0147H39.5415C39.6261 34.0611 39.721 34.0896 39.8234 34.0896H44.2399C44.5678 34.0896 44.8335 34.3577 44.8335 34.6888V39.1468C44.8335 39.2501 44.8617 39.346 44.9077 39.4314V39.6711H45.1451C45.2297 39.7175 45.3247 39.746 45.4271 39.746H49.9919C50.0943 39.746 50.1893 39.7175 50.2738 39.6711H50.5113V39.4314C50.5573 39.346 50.5855 39.2501 50.5855 39.1468V34.6888C50.5855 34.3577 50.8511 34.0896 51.1791 34.0896H55.5955C55.6979 34.0896 55.7929 34.0611 55.8775 34.0147H56.1149V33.775C56.1609 33.6896 56.1891 33.5937 56.1891 33.4904V23.376C56.1891 23.045 56.4548 22.7768 56.7827 22.7768H61.0507C61.3787 22.7768 61.6443 23.045 61.6443 23.376V61.6255C61.6443 61.9565 61.3787 62.2247 61.0507 62.2247H56.7827C56.4548 62.2247 56.1891 61.9565 56.1891 61.6255V57.1675C56.1891 57.0641 56.1609 56.9683 56.1149 56.8829V56.6432H55.8775C55.7929 56.5968 55.6979 56.5683 55.5955 56.5683H51.0307C50.9283 56.5683 50.8333 56.5968 50.7487 56.6432H50.5113V56.8829C50.4653 56.9683 50.4371 57.0641 50.4371 57.1675V61.6255C50.4371 61.9565 50.1715 62.2247 49.8435 62.2247H45.4271C45.3247 62.2247 45.2297 62.2531 45.1451 62.2996H44.9077V62.5393C44.8617 62.6246 44.8335 62.7205 44.8335 62.8239V67.4317C44.8335 67.535 44.8617 67.6309 44.9077 67.7163V67.956H45.1451C45.2297 68.0024 45.3247 68.0309 45.4271 68.0309H49.8435C50.1715 68.0309 50.4371 68.299 50.4371 68.6301V73.088C50.4371 73.1914 50.4653 73.2873 50.5113 73.3727V73.6123H50.7487C50.8333 73.6588 50.9283 73.6872 51.0307 73.6872H55.4471C55.7751 73.6872 56.0407 73.9554 56.0407 74.2864V78.7444C56.0407 78.8478 56.0689 78.9437 56.1149 79.029V79.2687H56.3524C56.4369 79.3152 56.5319 79.3436 56.6343 79.3436H61.1991C61.3015 79.3436 61.3965 79.3152 61.4811 79.2687H61.7185V79.029C61.7646 78.9437 61.7927 78.8478 61.7927 78.7444V74.2864C61.7927 73.9554 62.0584 73.6872 62.3864 73.6872H66.8028C66.9052 73.6872 67.0001 73.6588 67.0847 73.6123H67.3222V73.3727C67.3682 73.2873 67.3964 73.1914 67.3964 73.088V68.6301C67.3964 68.299 67.662 68.0309 67.99 68.0309H72.4064C72.5088 68.0309 72.6038 68.0024 72.6884 67.956H72.9258V67.7163C72.9718 67.6309 73 67.535 73 67.4317V62.8239C73 62.7205 72.9718 62.6246 72.9258 62.5393V62.2996H72.6884C72.6038 62.2531 72.5088 62.2247 72.4064 62.2247H67.99C67.662 62.2247 67.3964 61.9565 67.3964 61.6255V46.003C67.3964 45.672 67.662 45.4038 67.99 45.4038H72.4064C72.5088 45.4038 72.6038 45.3754 72.6884 45.3289H72.9258V45.0893C72.9718 45.0039 73 44.908 73 44.8046V40.1969C73 40.0935 72.9718 39.9976 72.9258 39.9122V39.6726H72.6884C72.6038 39.6261 72.5088 39.5977 72.4064 39.5977H67.99C67.662 39.5977 67.3964 39.3295 67.3964 38.9985V33.9413V33.9398ZM50.584 62.9722C50.584 62.6411 50.8496 62.373 51.1776 62.373H55.4456C55.7736 62.373 56.0392 62.6411 56.0392 62.9722V67.2804C56.0392 67.6114 55.7736 67.8796 55.4456 67.8796H51.1776C50.8496 67.8796 50.584 67.6114 50.584 67.2804V62.9722ZM61.2704 63.3497V66.9044C61.2704 67.2354 61.0047 67.5036 60.6768 67.5036H57.1552C56.8272 67.5036 56.5616 67.2354 56.5616 66.9044V63.3497C56.5616 63.0186 56.8272 62.7505 57.1552 62.7505H60.6768C61.0047 62.7505 61.2704 63.0186 61.2704 63.3497ZM56.1876 68.6301C56.1876 68.299 56.4533 68.0309 56.7812 68.0309H61.0493C61.3772 68.0309 61.6429 68.299 61.6429 68.6301V72.9382C61.6429 73.2693 61.3772 73.5374 61.0493 73.5374H56.7812C56.4533 73.5374 56.1876 73.2693 56.1876 72.9382V68.6301ZM62.1652 15.994V12.4392C62.1652 12.1082 62.4309 11.8401 62.7588 11.8401H66.2804C66.6084 11.8401 66.874 12.1082 66.874 12.4392V15.994C66.874 16.325 66.6084 16.5931 66.2804 16.5931H62.7588C62.4309 16.5931 62.1652 16.325 62.1652 15.994ZM67.248 22.0278C67.248 22.3589 66.9823 22.627 66.6544 22.627H62.3864C62.0584 22.627 61.7927 22.3589 61.7927 22.0278V17.7196C61.7927 17.3886 62.0584 17.1204 62.3864 17.1204H66.6544C66.9823 17.1204 67.248 17.3886 67.248 17.7196V22.0278ZM67.248 67.2819C67.248 67.6129 66.9823 67.8811 66.6544 67.8811H62.3864C62.0584 67.8811 61.7927 67.6129 61.7927 67.2819V62.9737C61.7927 62.6426 62.0584 62.3745 62.3864 62.3745H66.6544C66.9823 62.3745 67.248 62.6426 67.248 62.9737V67.2819ZM67.7689 44.2774V40.7226C67.7689 40.3916 68.0345 40.1235 68.3625 40.1235H71.884C72.212 40.1235 72.4776 40.3916 72.4776 40.7226V44.2774C72.4776 44.6084 72.212 44.8765 71.884 44.8765H68.3625C68.0345 44.8765 67.7689 44.6084 67.7689 44.2774Z" fill="var(--fill-0, white)"/>
<path id="Vector_5" d="M39.3026 79.2687H39.0651C38.9805 79.2223 38.8855 79.1938 38.7831 79.1938H34.2183C34.1159 79.1938 34.021 79.2223 33.9364 79.2687H33.6989V79.5084C33.6529 79.5938 33.6247 79.6897 33.6247 79.793V84.4008C33.6247 84.5042 33.6529 84.6 33.6989 84.6854V84.9251H33.9364C34.021 84.9715 34.1159 85 34.2183 85H38.7831C38.8855 85 38.9805 84.9715 39.0651 84.9251H39.3026V84.6854C39.3486 84.6 39.3768 84.5042 39.3768 84.4008V79.793C39.3768 79.6897 39.3486 79.5938 39.3026 79.5084V79.2687Z" fill="var(--fill-0, white)"/>
</g>
<defs>
<clipPath id="clip0_0_132">
<rect width="73" height="85" fill="white"/>
</clipPath>
</defs>
</svg>
