<svg preserveAspectRatio="none" width="100%" height="100%" overflow="visible" style="display: block;" viewBox="0 0 85.0045 85" fill="none" xmlns="http://www.w3.org/2000/svg">
<g id="Layer_2" clip-path="url(#clip0_0_138)">
<path id="Vector" d="M22.7031 5.73158H17.0464V0.0749031H11.3898V5.73158H17.0464V11.3883H22.7031V5.73158ZM16.6689 5.35557H11.7658V0.452415H16.6689V5.35557Z" fill="var(--fill-0, white)"/>
<path id="Vector_2" d="M0.0749031 11.3883V17.0449H5.73158V11.3883H0.0749031ZM5.35557 16.6689H0.452414V11.7658H5.35557V16.6689Z" fill="var(--fill-0, white)"/>
<path id="Vector_3" d="M17.0449 11.3883H11.3883V17.0449H17.0449V11.3883Z" fill="var(--fill-0, white)"/>
<path id="Vector_4" d="M11.3883 17.0464H5.73158V22.7031H11.3883V17.0464Z" fill="var(--fill-0, white)"/>
<path id="Vector_5" d="M11.3883 34.027V39.6747H17.0464V34.0165H11.3883V28.3688H5.73158V34.0165H0.0749031V39.6747H5.73158V34.027H11.3883Z" fill="var(--fill-0, white)"/>
<path id="Vector_6" d="M22.7031 17.0464H17.0464V22.7031H22.7031V17.0464Z" fill="var(--fill-0, white)"/>
<path id="Vector_7" d="M73.6162 0.0749031H67.9595V5.73158H73.6162V0.0749031ZM73.2387 5.35557H68.3356V0.452415H73.2387V5.35557Z" fill="var(--fill-0, white)"/>
<path id="Vector_8" d="M67.9595 5.73158H62.3029V11.3883H67.9595V5.73158Z" fill="var(--fill-0, white)"/>
<path id="Vector_9" d="M79.2729 11.3883V17.0449H84.9296V11.3883H79.2729ZM84.5536 16.6689H79.6504V11.7658H84.5536V16.6689Z" fill="var(--fill-0, white)"/>
<path id="Vector_10" d="M73.6162 11.3883H67.9595V17.0449H73.6162V11.3883Z" fill="var(--fill-0, white)"/>
<path id="Vector_11" d="M56.6447 11.3883H50.988V5.73158H62.3014V0.0749031H45.3298V11.3883H39.6732V0.0749031H22.7016V5.73158H34.015V11.3883H22.7016V17.0449H34.015V39.6732H39.6717V45.3253H34.015V67.9536H22.7016V73.6102H34.015V79.2669H22.7016V84.9236H39.6732V73.6102H45.3298V84.9236H62.3014V79.2669H50.988V73.6102H62.3014V67.9536H50.988V45.3253H45.3313V39.6732H50.988V17.0464H62.3014V11.3898H56.6447V11.3883ZM45.3313 50.9835V67.9551H39.6747V45.3313H45.3313V50.9835ZM40.0507 44.9538V40.0507H44.9538V44.9538H40.0507ZM45.3313 22.7031V39.6747H39.6747V17.0464H45.3313V22.7031Z" fill="var(--fill-0, white)"/>
<path id="Vector_12" d="M79.2729 17.0464H73.6162V22.7031H79.2729V17.0464Z" fill="var(--fill-0, white)"/>
<path id="Vector_13" d="M79.2729 28.3598H73.6162V34.0165H79.2729V28.3598Z" fill="var(--fill-0, white)"/>
<path id="Vector_14" d="M67.9595 17.0464H62.3029V22.7031H67.9595V17.0464Z" fill="var(--fill-0, white)"/>
<path id="Vector_15" d="M17.0464 73.6117V79.2684H11.3898V84.9251H17.0464V79.2684H22.7031V73.6117H17.0464ZM16.6689 84.5491H11.7658V79.6459H16.6689V84.5491Z" fill="var(--fill-0, white)"/>
<path id="Vector_16" d="M0.0749031 73.6117H5.73158V67.9551H0.0749031V73.6117ZM0.452414 68.3311H5.35557V73.2342H0.452414V68.3311Z" fill="var(--fill-0, white)"/>
<path id="Vector_17" d="M17.0449 67.9551H11.3883V73.6117H17.0449V67.9551Z" fill="var(--fill-0, white)"/>
<path id="Vector_18" d="M11.3883 62.2969H5.73158V67.9536H11.3883V62.2969Z" fill="var(--fill-0, white)"/>
<path id="Vector_19" d="M22.7031 62.2969H17.0464V67.9536H22.7031V62.2969Z" fill="var(--fill-0, white)"/>
<path id="Vector_20" d="M73.6162 84.9251V79.2684H67.9595V84.9251H73.6162ZM68.3356 79.6459H73.2387V84.5491H68.3356V79.6459Z" fill="var(--fill-0, white)"/>
<path id="Vector_21" d="M67.9595 73.6117H62.3029V79.2684H67.9595V73.6117Z" fill="var(--fill-0, white)"/>
<path id="Vector_22" d="M84.9296 73.6117V67.9551H79.2729V73.6117H84.9296ZM79.6504 68.3311H84.5536V73.2342H79.6504V68.3311Z" fill="var(--fill-0, white)"/>
<path id="Vector_23" d="M73.6162 67.9551H67.9595V73.6117H73.6162V67.9551Z" fill="var(--fill-0, white)"/>
<path id="Vector_24" d="M79.2729 62.2969H73.6162V67.9536H79.2729V62.2969Z" fill="var(--fill-0, white)"/>
<path id="Vector_25" d="M67.9595 62.2969H62.3029V67.9536H67.9595V62.2969Z" fill="var(--fill-0, white)"/>
<path id="Vector_26" d="M11.3883 39.6747H5.73158V45.3313H11.3883V39.6747Z" fill="var(--fill-0, white)"/>
<path id="Vector_27" d="M5.73158 50.9865V45.3313H0.0749031V50.988H5.73158V56.6432H11.3883V50.988H17.0464V45.3313H11.3883V50.9865H5.73158Z" fill="var(--fill-0, white)"/>
<path id="Vector_28" d="M73.6162 50.9865V45.3313H67.9595V50.988H73.6162V56.6432H79.2729V50.988H84.9296V45.3313H79.2729V50.9865H73.6162Z" fill="var(--fill-0, white)"/>
<path id="Vector_29" d="M73.6162 34.0165H67.9595V39.6732H73.6162V34.0165Z" fill="var(--fill-0, white)"/>
<path id="Vector_30" d="M84.9296 34.0165H79.2729V39.6732H84.9296V34.0165Z" fill="var(--fill-0, white)"/>
<g id="Group">
<path id="Vector_31" d="M79.198 11.9126V16.3708C79.198 16.7019 78.9298 16.97 78.5988 16.97H74.2903C73.9593 16.97 73.6911 16.7019 73.6911 16.3708V11.9126C73.6911 11.5815 73.423 11.3134 73.0919 11.3134H68.6337C68.3026 11.3134 68.0344 11.0452 68.0344 10.7141V6.40571C68.0344 6.07464 68.3026 5.80649 68.6337 5.80649H73.0919C73.423 5.80649 73.6911 5.53833 73.6911 5.20726V0.599225C73.6911 0.268153 73.423 0 73.0919 0H68.4839C68.1528 0 67.8846 0.268153 67.8846 0.599225V5.05745C67.8846 5.38853 67.6165 5.65668 67.2854 5.65668H62.977C62.6459 5.65668 62.3778 5.38853 62.3778 5.05745V0.599225C62.3778 0.268153 62.1096 0 61.7785 0H45.8557C45.5246 0 45.2564 0.268153 45.2564 0.599225V10.7141C45.2564 11.0452 44.9883 11.3134 44.6572 11.3134H40.3488C40.0177 11.3134 39.7496 11.0452 39.7496 10.7141V0.599225C39.7496 0.268153 39.4814 0 39.1503 0H23.2274C22.8964 0 22.6282 0.268153 22.6282 0.599225V5.05745C22.6282 5.38853 22.3601 5.65668 22.029 5.65668H17.7206C17.3895 5.65668 17.1213 5.38853 17.1213 5.05745V0.599225C17.1213 0.268153 16.8532 0 16.5221 0H11.9141C11.583 0 11.3149 0.268153 11.3149 0.599225V5.20726C11.3149 5.53833 11.583 5.80649 11.9141 5.80649H16.3723C16.7034 5.80649 16.9715 6.07464 16.9715 6.40571V10.7141C16.9715 11.0452 16.7034 11.3134 16.3723 11.3134H11.9141C11.583 11.3134 11.3149 11.5815 11.3149 11.9126V16.3708C11.3149 16.7019 11.0467 16.97 10.7156 16.97H6.40721C6.07614 16.97 5.80798 16.7019 5.80798 16.3708V11.9126C5.80798 11.5815 5.53983 11.3134 5.20876 11.3134H0.599224C0.268153 11.3134 0 11.5815 0 11.9126V16.5206C0 16.8517 0.268153 17.1198 0.599224 17.1198H5.05745C5.38853 17.1198 5.65668 17.388 5.65668 17.7191V22.1773C5.65668 22.5084 5.92483 22.7765 6.2559 22.7765H10.8639C11.195 22.7765 11.4632 22.5084 11.4632 22.1773V17.7191C11.4632 17.388 11.7313 17.1198 12.0624 17.1198H16.3708C16.7019 17.1198 16.97 17.388 16.97 17.7191V22.1773C16.97 22.5084 17.2382 22.7765 17.5693 22.7765H22.1773C22.5084 22.7765 22.7765 22.5084 22.7765 22.1773V17.7191C22.7765 17.388 23.0447 17.1198 23.3757 17.1198H33.3408C33.6719 17.1198 33.9401 17.388 33.9401 17.7191V39.1488C33.9401 39.4799 34.2082 39.7481 34.5393 39.7481H38.9975C39.3286 39.7481 39.5968 40.0162 39.5968 40.3473V44.6512C39.5968 44.9823 39.3286 45.2504 38.9975 45.2504H34.5393C34.2082 45.2504 33.9401 45.5186 33.9401 45.8497V67.2794C33.9401 67.6105 33.6719 67.8787 33.3408 67.8787H23.3757C23.0447 67.8787 22.7765 67.6105 22.7765 67.2794V62.8212C22.7765 62.4901 22.5084 62.222 22.1773 62.222H17.5693C17.2382 62.222 16.97 62.4901 16.97 62.8212V67.2794C16.97 67.6105 16.7019 67.8787 16.3708 67.8787H12.0624C11.7313 67.8787 11.4632 67.6105 11.4632 67.2794V62.8212C11.4632 62.4901 11.195 62.222 10.8639 62.222H6.2559C5.92483 62.222 5.65668 62.4901 5.65668 62.8212V67.2794C5.65668 67.6105 5.38853 67.8787 5.05745 67.8787H0.599224C0.268153 67.8787 0 68.1468 0 68.4779V73.0859C0 73.417 0.268153 73.6851 0.599224 73.6851H5.20726C5.53833 73.6851 5.80648 73.417 5.80648 73.0859V68.6277C5.80648 68.2966 6.07464 68.0285 6.40571 68.0285H10.7141C11.0452 68.0285 11.3134 68.2966 11.3134 68.6277V73.0859C11.3134 73.417 11.5815 73.6851 11.9126 73.6851H16.3708C16.7019 73.6851 16.97 73.9533 16.97 74.2844V78.5928C16.97 78.9239 16.7019 79.192 16.3708 79.192H11.9126C11.5815 79.192 11.3134 79.4602 11.3134 79.7912V84.3993C11.3134 84.7303 11.5815 84.9985 11.9126 84.9985H16.5206C16.8517 84.9985 17.1198 84.7303 17.1198 84.3993V79.941C17.1198 79.61 17.388 79.3418 17.7191 79.3418H22.0275C22.3586 79.3418 22.6267 79.61 22.6267 79.941V84.3993C22.6267 84.7303 22.8949 84.9985 23.2259 84.9985H39.1488C39.4799 84.9985 39.7481 84.7303 39.7481 84.3993V74.2844C39.7481 73.9533 40.0162 73.6851 40.3473 73.6851H44.6557C44.9868 73.6851 45.2549 73.9533 45.2549 74.2844V84.3993C45.2549 84.7303 45.5231 84.9985 45.8542 84.9985H61.777C62.1081 84.9985 62.3763 84.7303 62.3763 84.3993V79.941C62.3763 79.61 62.6444 79.3418 62.9755 79.3418H67.2839C67.615 79.3418 67.8831 79.61 67.8831 79.941V84.3993C67.8831 84.7303 68.1513 84.9985 68.4824 84.9985H73.0904C73.4215 84.9985 73.6896 84.7303 73.6896 84.3993V79.7912C73.6896 79.4602 73.4215 79.192 73.0904 79.192H68.6322C68.3011 79.192 68.0329 78.9239 68.0329 78.5928V74.2844C68.0329 73.9533 68.3011 73.6851 68.6322 73.6851H73.0904C73.4215 73.6851 73.6896 73.417 73.6896 73.0859V68.6277C73.6896 68.2966 73.9578 68.0285 74.2889 68.0285H78.5973C78.9283 68.0285 79.1965 68.2966 79.1965 68.6277V73.0859C79.1965 73.417 79.4646 73.6851 79.7957 73.6851H84.4038C84.7348 73.6851 85.003 73.417 85.003 73.0859V68.4779C85.003 68.1468 84.7348 67.8787 84.4038 67.8787H79.9455C79.6145 67.8787 79.3463 67.6105 79.3463 67.2794V62.8212C79.3463 62.4901 79.0781 62.222 78.7471 62.222H74.139C73.808 62.222 73.5398 62.4901 73.5398 62.8212V67.2794C73.5398 67.6105 73.2717 67.8787 72.9406 67.8787H68.6322C68.3011 67.8787 68.0329 67.6105 68.0329 67.2794V62.8212C68.0329 62.4901 67.7648 62.222 67.4337 62.222H62.8257C62.4946 62.222 62.2265 62.4901 62.2265 62.8212V67.2794C62.2265 67.6105 61.9583 67.8787 61.6272 67.8787H51.6621C51.3311 67.8787 51.0629 67.6105 51.0629 67.2794V45.8497C51.0629 45.5186 50.7948 45.2504 50.4637 45.2504H46.0055C45.6744 45.2504 45.4062 44.9823 45.4062 44.6512V40.3473C45.4062 40.0162 45.6744 39.7481 46.0055 39.7481H50.4637C50.7948 39.7481 51.0629 39.4799 51.0629 39.1488V17.7206C51.0629 17.3895 51.3311 17.1213 51.6621 17.1213H61.6272C61.9583 17.1213 62.2265 17.3895 62.2265 17.7206V22.1788C62.2265 22.5099 62.4946 22.778 62.8257 22.778H67.4337C67.7648 22.778 68.0329 22.5099 68.0329 22.1788V17.7206C68.0329 17.3895 68.3011 17.1213 68.6322 17.1213H72.9406C73.2717 17.1213 73.5398 17.3895 73.5398 17.7206V22.1788C73.5398 22.5099 73.808 22.778 74.139 22.778H78.7471C79.0781 22.778 79.3463 22.5099 79.3463 22.1788V17.7206C79.3463 17.3895 79.6145 17.1213 79.9455 17.1213H84.4038C84.7348 17.1213 85.003 16.8532 85.003 16.5221V11.9141C85.003 11.583 84.7348 11.3149 84.4038 11.3149H79.7957C79.4646 11.3149 79.1965 11.583 79.1965 11.9141L79.198 11.9126ZM15.9948 5.28067H12.4399C12.1088 5.28067 11.8407 5.01251 11.8407 4.68144V1.12654C11.8407 0.795471 12.1088 0.527318 12.4399 0.527318H15.9948C16.3259 0.527318 16.594 0.795471 16.594 1.12654V4.68144C16.594 5.01251 16.3259 5.28067 15.9948 5.28067ZM22.6282 12.0624V16.3708C22.6282 16.7019 22.3601 16.97 22.029 16.97H17.7206C17.3895 16.97 17.1213 16.7019 17.1213 16.3708V12.0624C17.1213 11.7313 17.3895 11.4632 17.7206 11.4632H22.029C22.3601 11.4632 22.6282 11.7313 22.6282 12.0624ZM4.68144 16.594H1.12654C0.79547 16.594 0.527318 16.3259 0.527318 15.9948V12.4399C0.527318 12.1088 0.79547 11.8407 1.12654 11.8407H4.68144C5.01251 11.8407 5.28067 12.1088 5.28067 12.4399V15.9948C5.28067 16.3259 5.01251 16.594 4.68144 16.594ZM33.3423 11.3134H23.3772C23.0462 11.3134 22.778 11.0452 22.778 10.7141V6.40571C22.778 6.07464 23.0462 5.80649 23.3772 5.80649H33.3423C33.6734 5.80649 33.9416 6.07464 33.9416 6.40571V10.7141C33.9416 11.0452 33.6734 11.3134 33.3423 11.3134ZM15.9948 84.4742H12.4399C12.1088 84.4742 11.8407 84.206 11.8407 83.875V80.32C11.8407 79.989 12.1088 79.7208 12.4399 79.7208H15.9948C16.3259 79.7208 16.594 79.989 16.594 80.32V83.875C16.594 84.206 16.3259 84.4742 15.9948 84.4742ZM22.029 73.5368H17.7206C17.3895 73.5368 17.1213 73.2687 17.1213 72.9376V68.6292C17.1213 68.2981 17.3895 68.03 17.7206 68.03H22.029C22.3601 68.03 22.6282 68.2981 22.6282 68.6292V72.9376C22.6282 73.2687 22.3601 73.5368 22.029 73.5368ZM4.68144 73.1593H1.12654C0.79547 73.1593 0.527318 72.8912 0.527318 72.5601V69.0052C0.527318 68.6741 0.79547 68.406 1.12654 68.406H4.68144C5.01251 68.406 5.28067 68.6741 5.28067 69.0052V72.5601C5.28067 72.8912 5.01251 73.1593 4.68144 73.1593ZM33.3423 79.1935H23.3772C23.0462 79.1935 22.778 78.9254 22.778 78.5943V74.2859C22.778 73.9548 23.0462 73.6866 23.3772 73.6866H33.3423C33.6734 73.6866 33.9416 73.9548 33.9416 74.2859V78.5943C33.9416 78.9254 33.6734 79.1935 33.3423 79.1935ZM44.6572 67.8802H40.3488C40.0177 67.8802 39.7496 67.612 39.7496 67.2809V46.0055C39.7496 45.6744 40.0177 45.4062 40.3488 45.4062H44.6572C44.9883 45.4062 45.2564 45.6744 45.2564 46.0055V67.2809C45.2564 67.612 44.9883 67.8802 44.6572 67.8802ZM40.1256 44.2797V40.7248C40.1256 40.3937 40.3937 40.1256 40.7248 40.1256H44.2797C44.6108 40.1256 44.8789 40.3937 44.8789 40.7248V44.2797C44.8789 44.6108 44.6108 44.8789 44.2797 44.8789H40.7248C40.3937 44.8789 40.1256 44.6108 40.1256 44.2797ZM44.6572 39.5998H40.3488C40.0177 39.5998 39.7496 39.3316 39.7496 39.0005V17.7206C39.7496 17.3895 40.0177 17.1213 40.3488 17.1213H44.6572C44.9883 17.1213 45.2564 17.3895 45.2564 17.7206V39.0005C45.2564 39.3316 44.9883 39.5998 44.6572 39.5998ZM69.0097 79.7208H72.5646C72.8957 79.7208 73.1638 79.989 73.1638 80.32V83.875C73.1638 84.206 72.8957 84.4742 72.5646 84.4742H69.0097C68.6786 84.4742 68.4105 84.206 68.4105 83.875V80.32C68.4105 79.989 68.6786 79.7208 69.0097 79.7208ZM62.3778 72.9376V68.6292C62.3778 68.2981 62.6459 68.03 62.977 68.03H67.2854C67.6165 68.03 67.8846 68.2981 67.8846 68.6292V72.9376C67.8846 73.2687 67.6165 73.5368 67.2854 73.5368H62.977C62.6459 73.5368 62.3778 73.2687 62.3778 72.9376ZM80.3245 68.406H83.8794C84.2105 68.406 84.4787 68.6741 84.4787 69.0052V72.5601C84.4787 72.8912 84.2105 73.1593 83.8794 73.1593H80.3245C79.9935 73.1593 79.7253 72.8912 79.7253 72.5601V69.0052C79.7253 68.6741 79.9935 68.406 80.3245 68.406ZM51.6621 73.6866H61.6272C61.9583 73.6866 62.2265 73.9548 62.2265 74.2859V78.5943C62.2265 78.9254 61.9583 79.1935 61.6272 79.1935H51.6621C51.3311 79.1935 51.0629 78.9254 51.0629 78.5943V74.2859C51.0629 73.9548 51.3311 73.6866 51.6621 73.6866ZM69.0097 0.527318H72.5646C72.8957 0.527318 73.1638 0.795471 73.1638 1.12654V4.68144C73.1638 5.01251 72.8957 5.28067 72.5646 5.28067H69.0097C68.6786 5.28067 68.4105 5.01251 68.4105 4.68144V1.12654C68.4105 0.795471 68.6786 0.527318 69.0097 0.527318ZM62.977 11.4632H67.2854C67.6165 11.4632 67.8846 11.7313 67.8846 12.0624V16.3708C67.8846 16.7019 67.6165 16.97 67.2854 16.97H62.977C62.6459 16.97 62.3778 16.7019 62.3778 16.3708V12.0624C62.3778 11.7313 62.6459 11.4632 62.977 11.4632ZM51.6621 5.80649H61.6272C61.9583 5.80649 62.2265 6.07464 62.2265 6.40571V10.7141C62.2265 11.0452 61.9583 11.3134 61.6272 11.3134H51.6621C51.3311 11.3134 51.0629 11.0452 51.0629 10.7141V6.40571C51.0629 6.07464 51.3311 5.80649 51.6621 5.80649ZM83.8794 16.594H80.3245C79.9935 16.594 79.7253 16.3259 79.7253 15.9948V12.4399C79.7253 12.1088 79.9935 11.8407 80.3245 11.8407H83.8794C84.2105 11.8407 84.4787 12.1088 84.4787 12.4399V15.9948C84.4787 16.3259 84.2105 16.594 83.8794 16.594Z" fill="var(--fill-0, white)"/>
<path id="Vector_32" d="M78.7486 28.2849H74.1405C73.8095 28.2849 73.5413 28.553 73.5413 28.8841V33.3424C73.5413 33.6734 73.2732 33.9416 72.9421 33.9416H68.4839C68.1528 33.9416 67.8846 34.2097 67.8846 34.5408V39.1488C67.8846 39.4799 68.1528 39.7481 68.4839 39.7481H72.9421C73.2732 39.7481 73.5413 40.0162 73.5413 40.3473V44.6557C73.5413 44.9868 73.2732 45.2549 72.9421 45.2549H68.4839C68.1528 45.2549 67.8846 45.5231 67.8846 45.8542V50.4622C67.8846 50.7933 68.1528 51.0614 68.4839 51.0614H72.9421C73.2732 51.0614 73.5413 51.3296 73.5413 51.6606V56.1174C73.5413 56.4484 73.8095 56.7166 74.1405 56.7166H78.7486C79.0797 56.7166 79.3478 56.4484 79.3478 56.1174V51.6606C79.3478 51.3296 79.616 51.0614 79.947 51.0614H84.4053C84.7363 51.0614 85.0045 50.7933 85.0045 50.4622V45.8542C85.0045 45.5231 84.7363 45.2549 84.4053 45.2549H79.947C79.616 45.2549 79.3478 44.9868 79.3478 44.6557V40.3473C79.3478 40.0162 79.616 39.7481 79.947 39.7481H84.4053C84.7363 39.7481 85.0045 39.4799 85.0045 39.1488V34.5408C85.0045 34.2097 84.7363 33.9416 84.4053 33.9416H79.947C79.616 33.9416 79.3478 33.6734 79.3478 33.3424V28.8841C79.3478 28.553 79.0797 28.2849 78.7486 28.2849ZM79.198 34.6906V38.999C79.198 39.3301 78.9298 39.5983 78.5988 39.5983H74.2904C73.9593 39.5983 73.6911 39.3301 73.6911 38.999V34.6906C73.6911 34.3595 73.9593 34.0914 74.2904 34.0914H78.5988C78.9298 34.0914 79.198 34.3595 79.198 34.6906ZM73.6911 50.3124V46.0055C73.6911 45.6744 73.9593 45.4062 74.2904 45.4062H78.5988C78.9298 45.4062 79.198 45.6744 79.198 46.0055V50.3124C79.198 50.6435 78.9298 50.9116 78.5988 50.9116H74.2904C73.9593 50.9116 73.6911 50.6435 73.6911 50.3124Z" fill="var(--fill-0, white)"/>
<path id="Vector_33" d="M6.2559 56.7181H10.8639C11.195 56.7181 11.4632 56.4499 11.4632 56.1189V51.6621C11.4632 51.3311 11.7313 51.0629 12.0624 51.0629H16.5206C16.8517 51.0629 17.1198 50.7948 17.1198 50.4637V45.8557C17.1198 45.5246 16.8517 45.2564 16.5206 45.2564H12.0624C11.7313 45.2564 11.4632 44.9883 11.4632 44.6572V40.3488C11.4632 40.0177 11.7313 39.7496 12.0624 39.7496H16.5206C16.8517 39.7496 17.1198 39.4814 17.1198 39.1503V34.5423C17.1198 34.2112 16.8517 33.9431 16.5206 33.9431H12.0624C11.7313 33.9431 11.4632 33.6749 11.4632 33.3438V28.8946C11.4632 28.5635 11.195 28.2954 10.8639 28.2954H6.2559C5.92483 28.2954 5.65668 28.5635 5.65668 28.8946V33.3438C5.65668 33.6749 5.38853 33.9431 5.05745 33.9431H0.599224C0.268153 33.9431 0 34.2112 0 34.5423V39.1503C0 39.4814 0.268153 39.7496 0.599224 39.7496H5.05745C5.38853 39.7496 5.65668 40.0177 5.65668 40.3488V44.6572C5.65668 44.9883 5.38853 45.2564 5.05745 45.2564H0.599224C0.268153 45.2564 0 45.5246 0 45.8557V50.4637C0 50.7948 0.268153 51.0629 0.599224 51.0629H5.05745C5.38853 51.0629 5.65668 51.3311 5.65668 51.6621V56.1189C5.65668 56.4499 5.92483 56.7181 6.2559 56.7181ZM5.80648 50.3124V46.0055C5.80648 45.6744 6.07464 45.4062 6.40571 45.4062H10.7141C11.0452 45.4062 11.3134 45.6744 11.3134 46.0055V50.3124C11.3134 50.6435 11.0452 50.9116 10.7141 50.9116H6.40571C6.07464 50.9116 5.80648 50.6435 5.80648 50.3124ZM11.3134 34.7011V39.0005C11.3134 39.3316 11.0452 39.5998 10.7141 39.5998H6.40571C6.07464 39.5998 5.80648 39.3316 5.80648 39.0005V34.7011C5.80648 34.37 6.07464 34.1019 6.40571 34.1019H10.7141C11.0452 34.1019 11.3134 34.37 11.3134 34.7011Z" fill="var(--fill-0, white)"/>
</g>
<path id="Vector_34" d="M79.2729 39.6747H73.6162V45.3313H79.2729V39.6747Z" fill="var(--fill-0, white)"/>
</g>
<defs>
<clipPath id="clip0_0_138">
<rect width="85.0045" height="85" fill="white"/>
</clipPath>
</defs>
</svg>
