<svg preserveAspectRatio="xMidYMid meet" overflow="visible" style="display: block;" viewBox="0 0 95.8864 95.8795" fill="none" xmlns="http://www.w3.org/2000/svg">
<g id="Group">
<path id="Vector" d="M89.3365 13.4376V18.4665C89.3365 18.84 89.034 19.1424 88.6605 19.1424H83.8006C83.4271 19.1424 83.1246 18.84 83.1246 18.4665V13.4376C83.1246 13.0641 82.8222 12.7616 82.4487 12.7616H77.4198C77.0463 12.7616 76.7438 12.4591 76.7438 12.0857V7.22573C76.7438 6.85228 77.0463 6.5498 77.4198 6.5498H82.4487C82.8222 6.5498 83.1246 6.24732 83.1246 5.87386V0.675934C83.1246 0.30248 82.8222 0 82.4487 0H77.2508C76.8773 0 76.5748 0.30248 76.5748 0.675934V5.70488C76.5748 6.07833 76.2724 6.38081 75.8989 6.38081H71.039C70.6655 6.38081 70.363 6.07833 70.363 5.70488V0.675934C70.363 0.30248 70.0605 0 69.6871 0H51.7258C51.3524 0 51.0499 0.30248 51.0499 0.675934V12.0857C51.0499 12.4591 50.7474 12.7616 50.374 12.7616H45.514C45.1405 12.7616 44.8381 12.4591 44.8381 12.0857V0.675934C44.8381 0.30248 44.5356 0 44.1621 0H26.2009C25.8274 0 25.5249 0.30248 25.5249 0.675934V5.70488C25.5249 6.07833 25.2225 6.38081 24.849 6.38081H19.9891C19.6156 6.38081 19.3131 6.07833 19.3131 5.70488V0.675934C19.3131 0.30248 19.0106 0 18.6372 0H13.4393C13.0658 0 12.7633 0.30248 12.7633 0.675934V5.87386C12.7633 6.24732 13.0658 6.5498 13.4393 6.5498H18.4682C18.8417 6.5498 19.1441 6.85228 19.1441 7.22573V12.0857C19.1441 12.4591 18.8417 12.7616 18.4682 12.7616H13.4393C13.0658 12.7616 12.7633 13.0641 12.7633 13.4376V18.4665C12.7633 18.84 12.4608 19.1424 12.0874 19.1424H7.22742C6.85397 19.1424 6.55149 18.84 6.55149 18.4665V13.4376C6.55149 13.0641 6.24901 12.7616 5.87555 12.7616H0.675934C0.30248 12.7616 0 13.0641 0 13.4376V18.6355C0 19.0089 0.30248 19.3114 0.675934 19.3114H5.70488C6.07833 19.3114 6.38081 19.6139 6.38081 19.9874V25.0163C6.38081 25.3898 6.68329 25.6922 7.05675 25.6922H12.2547C12.6281 25.6922 12.9306 25.3898 12.9306 25.0163V19.9874C12.9306 19.6139 13.2331 19.3114 13.6065 19.3114H18.4665C18.84 19.3114 19.1424 19.6139 19.1424 19.9874V25.0163C19.1424 25.3898 19.4449 25.6922 19.8184 25.6922H25.0163C25.3898 25.6922 25.6922 25.3898 25.6922 25.0163V19.9874C25.6922 19.6139 25.9947 19.3114 26.3682 19.3114H37.609C37.9824 19.3114 38.2849 19.6139 38.2849 19.9874V44.1604C38.2849 44.5339 38.5874 44.8364 38.9608 44.8364H43.9898C44.3632 44.8364 44.6657 45.1389 44.6657 45.5123V50.3672C44.6657 50.7407 44.3632 51.0431 43.9898 51.0431H38.9608C38.5874 51.0431 38.2849 51.3456 38.2849 51.7191V75.8922C38.2849 76.2656 37.9824 76.5681 37.609 76.5681H26.3682C25.9947 76.5681 25.6922 76.2656 25.6922 75.8922V70.8632C25.6922 70.4898 25.3898 70.1873 25.0163 70.1873H19.8184C19.4449 70.1873 19.1424 70.4898 19.1424 70.8632V75.8922C19.1424 76.2656 18.84 76.5681 18.4665 76.5681H13.6065C13.2331 76.5681 12.9306 76.2656 12.9306 75.8922V70.8632C12.9306 70.4898 12.6281 70.1873 12.2547 70.1873H7.05675C6.68329 70.1873 6.38081 70.4898 6.38081 70.8632V75.8922C6.38081 76.2656 6.07833 76.5681 5.70488 76.5681H0.675934C0.30248 76.5681 0 76.8706 0 77.244V82.442C0 82.8154 0.30248 83.1179 0.675934 83.1179H5.87386C6.24732 83.1179 6.5498 82.8154 6.5498 82.442V77.413C6.5498 77.0395 6.85228 76.7371 7.22573 76.7371H12.0857C12.4591 76.7371 12.7616 77.0395 12.7616 77.413V82.442C12.7616 82.8154 13.0641 83.1179 13.4376 83.1179H18.4665C18.84 83.1179 19.1424 83.4204 19.1424 83.7938V88.6538C19.1424 89.0272 18.84 89.3297 18.4665 89.3297H13.4376C13.0641 89.3297 12.7616 89.6322 12.7616 90.0057V95.2036C12.7616 95.577 13.0641 95.8795 13.4376 95.8795H18.6355C19.0089 95.8795 19.3114 95.577 19.3114 95.2036V90.1746C19.3114 89.8012 19.6139 89.4987 19.9874 89.4987H24.8473C25.2208 89.4987 25.5233 89.8012 25.5233 90.1746V95.2036C25.5233 95.577 25.8257 95.8795 26.1992 95.8795H44.1604C44.5339 95.8795 44.8364 95.577 44.8364 95.2036V83.7938C44.8364 83.4204 45.1389 83.1179 45.5123 83.1179H50.3723C50.7457 83.1179 51.0482 83.4204 51.0482 83.7938V95.2036C51.0482 95.577 51.3507 95.8795 51.7241 95.8795H69.6854C70.0588 95.8795 70.3613 95.577 70.3613 95.2036V90.1746C70.3613 89.8012 70.6638 89.4987 71.0373 89.4987H75.8972C76.2707 89.4987 76.5732 89.8012 76.5732 90.1746V95.2036C76.5732 95.577 76.8756 95.8795 77.2491 95.8795H82.447C82.8205 95.8795 83.123 95.577 83.123 95.2036V90.0057C83.123 89.6322 82.8205 89.3297 82.447 89.3297H77.4181C77.0446 89.3297 76.7421 89.0272 76.7421 88.6538V83.7938C76.7421 83.4204 77.0446 83.1179 77.4181 83.1179H82.447C82.8205 83.1179 83.123 82.8154 83.123 82.442V77.413C83.123 77.0395 83.4254 76.7371 83.7989 76.7371H88.6588C89.0323 76.7371 89.3348 77.0395 89.3348 77.413V82.442C89.3348 82.8154 89.6373 83.1179 90.0107 83.1179H95.2086C95.5821 83.1179 95.8846 82.8154 95.8846 82.442V77.244C95.8846 76.8706 95.5821 76.5681 95.2086 76.5681H90.1797C89.8062 76.5681 89.5038 76.2656 89.5038 75.8922V70.8632C89.5038 70.4898 89.2013 70.1873 88.8278 70.1873H83.6299C83.2565 70.1873 82.954 70.4898 82.954 70.8632V75.8922C82.954 76.2656 82.6515 76.5681 82.278 76.5681H77.4181C77.0446 76.5681 76.7421 76.2656 76.7421 75.8922V70.8632C76.7421 70.4898 76.4397 70.1873 76.0662 70.1873H70.8683C70.4948 70.1873 70.1923 70.4898 70.1923 70.8632V75.8922C70.1923 76.2656 69.8899 76.5681 69.5164 76.5681H58.2756C57.9022 76.5681 57.5997 76.2656 57.5997 75.8922V51.7191C57.5997 51.3456 57.2972 51.0431 56.9238 51.0431H51.8948C51.5214 51.0431 51.2189 50.7407 51.2189 50.3672V45.5123C51.2189 45.1389 51.5214 44.8364 51.8948 44.8364H56.9238C57.2972 44.8364 57.5997 44.5339 57.5997 44.1604V19.9891C57.5997 19.6156 57.9022 19.3131 58.2756 19.3131H69.5164C69.8899 19.3131 70.1923 19.6156 70.1923 19.9891V25.018C70.1923 25.3915 70.4948 25.6939 70.8683 25.6939H76.0662C76.4397 25.6939 76.7421 25.3915 76.7421 25.018V19.9891C76.7421 19.6156 77.0446 19.3131 77.4181 19.3131H82.278C82.6515 19.3131 82.954 19.6156 82.954 19.9891V25.018C82.954 25.3915 83.2565 25.6939 83.6299 25.6939H88.8278C89.2013 25.6939 89.5038 25.3915 89.5038 25.018V19.9891C89.5038 19.6156 89.8062 19.3131 90.1797 19.3131H95.2086C95.5821 19.3131 95.8846 19.0106 95.8846 18.6372V13.4393C95.8846 13.0658 95.5821 12.7633 95.2086 12.7633H90.0107C89.6373 12.7633 89.3348 13.0658 89.3348 13.4393L89.3365 13.4376ZM18.0424 5.95667H14.0324C13.6589 5.95667 13.3565 5.65419 13.3565 5.28073V1.27076C13.3565 0.897302 13.6589 0.594822 14.0324 0.594822H18.0424C18.4158 0.594822 18.7183 0.897302 18.7183 1.27076V5.28073C18.7183 5.65419 18.4158 5.95667 18.0424 5.95667ZM25.5249 13.6065V18.4665C25.5249 18.84 25.2225 19.1424 24.849 19.1424H19.9891C19.6156 19.1424 19.3131 18.84 19.3131 18.4665V13.6065C19.3131 13.2331 19.6156 12.9306 19.9891 12.9306H24.849C25.2225 12.9306 25.5249 13.2331 25.5249 13.6065ZM5.28073 18.7183H1.27076C0.897302 18.7183 0.594822 18.4158 0.594822 18.0424V14.0324C0.594822 13.6589 0.897302 13.3565 1.27076 13.3565H5.28073C5.65419 13.3565 5.95667 13.6589 5.95667 14.0324V18.0424C5.95667 18.4158 5.65419 18.7183 5.28073 18.7183ZM37.6106 12.7616H26.3699C25.9964 12.7616 25.6939 12.4591 25.6939 12.0857V7.22573C25.6939 6.85228 25.9964 6.5498 26.3699 6.5498H37.6106C37.9841 6.5498 38.2866 6.85228 38.2866 7.22573V12.0857C38.2866 12.4591 37.9841 12.7616 37.6106 12.7616ZM18.0424 95.2881H14.0324C13.6589 95.2881 13.3565 94.9856 13.3565 94.6121V90.6022C13.3565 90.2287 13.6589 89.9262 14.0324 89.9262H18.0424C18.4158 89.9262 18.7183 90.2287 18.7183 90.6022V94.6121C18.7183 94.9856 18.4158 95.2881 18.0424 95.2881ZM24.849 82.9506H19.9891C19.6156 82.9506 19.3131 82.6481 19.3131 82.2747V77.4147C19.3131 77.0412 19.6156 76.7388 19.9891 76.7388H24.849C25.2225 76.7388 25.5249 77.0412 25.5249 77.4147V82.2747C25.5249 82.6481 25.2225 82.9506 24.849 82.9506ZM5.28073 82.5248H1.27076C0.897302 82.5248 0.594822 82.2223 0.594822 81.8488V77.8388C0.594822 77.4654 0.897302 77.1629 1.27076 77.1629H5.28073C5.65419 77.1629 5.95667 77.4654 5.95667 77.8388V81.8488C5.95667 82.2223 5.65419 82.5248 5.28073 82.5248ZM37.6106 89.3314H26.3699C25.9964 89.3314 25.6939 89.0289 25.6939 88.6555V83.7955C25.6939 83.4221 25.9964 83.1196 26.3699 83.1196H37.6106C37.9841 83.1196 38.2866 83.4221 38.2866 83.7955V88.6555C38.2866 89.0289 37.9841 89.3314 37.6106 89.3314ZM50.374 76.5698H45.514C45.1405 76.5698 44.8381 76.2673 44.8381 75.8938V51.8948C44.8381 51.5214 45.1405 51.2189 45.514 51.2189H50.374C50.7474 51.2189 51.0499 51.5214 51.0499 51.8948V75.8938C51.0499 76.2673 50.7474 76.5698 50.374 76.5698ZM45.2622 49.9481V45.9382C45.2622 45.5647 45.5647 45.2622 45.9382 45.2622H49.9481C50.3216 45.2622 50.6241 45.5647 50.6241 45.9382V49.9481C50.6241 50.3216 50.3216 50.6241 49.9481 50.6241H45.9382C45.5647 50.6241 45.2622 50.3216 45.2622 49.9481ZM50.374 44.6691H45.514C45.1405 44.6691 44.8381 44.3666 44.8381 43.9931V19.9891C44.8381 19.6156 45.1405 19.3131 45.514 19.3131H50.374C50.7474 19.3131 51.0499 19.6156 51.0499 19.9891V43.9931C51.0499 44.3666 50.7474 44.6691 50.374 44.6691ZM77.8439 89.9262H81.8539C82.2273 89.9262 82.5298 90.2287 82.5298 90.6022V94.6121C82.5298 94.9856 82.2273 95.2881 81.8539 95.2881H77.8439C77.4705 95.2881 77.168 94.9856 77.168 94.6121V90.6022C77.168 90.2287 77.4705 89.9262 77.8439 89.9262ZM70.363 82.2747V77.4147C70.363 77.0412 70.6655 76.7388 71.039 76.7388H75.8989C76.2724 76.7388 76.5748 77.0412 76.5748 77.4147V82.2747C76.5748 82.6481 76.2724 82.9506 75.8989 82.9506H71.039C70.6655 82.9506 70.363 82.6481 70.363 82.2747ZM90.6072 77.1629H94.6172C94.9907 77.1629 95.2931 77.4654 95.2931 77.8388V81.8488C95.2931 82.2223 94.9907 82.5248 94.6172 82.5248H90.6072C90.2338 82.5248 89.9313 82.2223 89.9313 81.8488V77.8388C89.9313 77.4654 90.2338 77.1629 90.6072 77.1629ZM58.2756 83.1196H69.5164C69.8899 83.1196 70.1923 83.4221 70.1923 83.7955V88.6555C70.1923 89.0289 69.8899 89.3314 69.5164 89.3314H58.2756C57.9022 89.3314 57.5997 89.0289 57.5997 88.6555V83.7955C57.5997 83.4221 57.9022 83.1196 58.2756 83.1196ZM77.8439 0.594822H81.8539C82.2273 0.594822 82.5298 0.897302 82.5298 1.27076V5.28073C82.5298 5.65419 82.2273 5.95667 81.8539 5.95667H77.8439C77.4705 5.95667 77.168 5.65419 77.168 5.28073V1.27076C77.168 0.897302 77.4705 0.594822 77.8439 0.594822ZM71.039 12.9306H75.8989C76.2724 12.9306 76.5748 13.2331 76.5748 13.6065V18.4665C76.5748 18.84 76.2724 19.1424 75.8989 19.1424H71.039C70.6655 19.1424 70.363 18.84 70.363 18.4665V13.6065C70.363 13.2331 70.6655 12.9306 71.039 12.9306ZM58.2756 6.5498H69.5164C69.8899 6.5498 70.1923 6.85228 70.1923 7.22573V12.0857C70.1923 12.4591 69.8899 12.7616 69.5164 12.7616H58.2756C57.9022 12.7616 57.5997 12.4591 57.5997 12.0857V7.22573C57.5997 6.85228 57.9022 6.5498 58.2756 6.5498ZM94.6172 18.7183H90.6072C90.2338 18.7183 89.9313 18.4158 89.9313 18.0424V14.0324C89.9313 13.6589 90.2338 13.3565 90.6072 13.3565H94.6172C94.9907 13.3565 95.2931 13.6589 95.2931 14.0324V18.0424C95.2931 18.4158 94.9907 18.7183 94.6172 18.7183Z" fill="var(--fill-0, white)"/>
<path id="Vector_2" d="M88.8296 31.9057H83.6317C83.2582 31.9057 82.9558 32.2082 82.9558 32.5817V37.6106C82.9558 37.9841 82.6533 38.2865 82.2798 38.2865H77.2509C76.8774 38.2865 76.5749 38.589 76.5749 38.9625V44.1604C76.5749 44.5339 76.8774 44.8363 77.2509 44.8363H82.2798C82.6533 44.8363 82.9558 45.1388 82.9558 45.5123V50.3722C82.9558 50.7457 82.6533 51.0482 82.2798 51.0482H77.2509C76.8774 51.0482 76.5749 51.3507 76.5749 51.7241V56.922C76.5749 57.2955 76.8774 57.598 77.2509 57.598H82.2798C82.6533 57.598 82.9558 57.9005 82.9558 58.2739V63.3012C82.9558 63.6746 83.2582 63.9771 83.6317 63.9771H88.8296C89.2031 63.9771 89.5056 63.6746 89.5056 63.3012V58.2739C89.5056 57.9005 89.808 57.598 90.1815 57.598H95.2104C95.5839 57.598 95.8864 57.2955 95.8864 56.922V51.7241C95.8864 51.3507 95.5839 51.0482 95.2104 51.0482H90.1815C89.808 51.0482 89.5056 50.7457 89.5056 50.3722V45.5123C89.5056 45.1388 89.808 44.8363 90.1815 44.8363H95.2104C95.5839 44.8363 95.8864 44.5339 95.8864 44.1604V38.9625C95.8864 38.589 95.5839 38.2865 95.2104 38.2865H90.1815C89.808 38.2865 89.5056 37.9841 89.5056 37.6106V32.5817C89.5056 32.2082 89.2031 31.9057 88.8296 31.9057ZM89.3366 39.1315V43.9914C89.3366 44.3649 89.0341 44.6674 88.6606 44.6674H83.8007C83.4272 44.6674 83.1247 44.3649 83.1247 43.9914V39.1315C83.1247 38.758 83.4272 38.4555 83.8007 38.4555H88.6606C89.0341 38.4555 89.3366 38.758 89.3366 39.1315ZM83.1247 56.7531V51.8948C83.1247 51.5213 83.4272 51.2189 83.8007 51.2189H88.6606C89.0341 51.2189 89.3366 51.5213 89.3366 51.8948V56.7531C89.3366 57.1265 89.0341 57.429 88.6606 57.429H83.8007C83.4272 57.429 83.1247 57.1265 83.1247 56.7531Z" fill="var(--fill-0, white)"/>
<path id="Vector_3" d="M7.05675 63.9788H12.2547C12.6281 63.9788 12.9306 63.6764 12.9306 63.3029V58.2757C12.9306 57.9022 13.2331 57.5997 13.6065 57.5997H18.6355C19.0089 57.5997 19.3114 57.2972 19.3114 56.9238V51.7259C19.3114 51.3524 19.0089 51.0499 18.6355 51.0499H13.6065C13.2331 51.0499 12.9306 50.7474 12.9306 50.374V45.514C12.9306 45.1406 13.2331 44.8381 13.6065 44.8381H18.6355C19.0089 44.8381 19.3114 44.5356 19.3114 44.1622V38.9642C19.3114 38.5908 19.0089 38.2883 18.6355 38.2883H13.6065C13.2331 38.2883 12.9306 37.9858 12.9306 37.6124V32.5936C12.9306 32.2201 12.6281 31.9176 12.2547 31.9176H7.05675C6.68329 31.9176 6.38081 32.2201 6.38081 32.5936V37.6124C6.38081 37.9858 6.07833 38.2883 5.70488 38.2883H0.675934C0.30248 38.2883 0 38.5908 0 38.9642V44.1622C0 44.5356 0.30248 44.8381 0.675934 44.8381H5.70488C6.07833 44.8381 6.38081 45.1406 6.38081 45.514V50.374C6.38081 50.7474 6.07833 51.0499 5.70488 51.0499H0.675934C0.30248 51.0499 0 51.3524 0 51.7259V56.9238C0 57.2972 0.30248 57.5997 0.675934 57.5997H5.70488C6.07833 57.5997 6.38081 57.9022 6.38081 58.2757V63.3029C6.38081 63.6764 6.68329 63.9788 7.05675 63.9788ZM6.5498 56.7531V51.8948C6.5498 51.5214 6.85228 51.2189 7.22573 51.2189H12.0857C12.4591 51.2189 12.7616 51.5214 12.7616 51.8948V56.7531C12.7616 57.1266 12.4591 57.4291 12.0857 57.4291H7.22573C6.85228 57.4291 6.5498 57.1266 6.5498 56.7531ZM12.7616 39.1434V43.9932C12.7616 44.3666 12.4591 44.6691 12.0857 44.6691H7.22573C6.85228 44.6691 6.5498 44.3666 6.5498 43.9932V39.1434C6.5498 38.7699 6.85228 38.4674 7.22573 38.4674H12.0857C12.4591 38.4674 12.7616 38.7699 12.7616 39.1434Z" fill="var(--fill-0, white)"/>
</g>
</svg>
