<svg preserveAspectRatio="xMidYMid meet" style="display: block;" viewBox="0 0 246.933 246.933" fill="none" xmlns="http://www.w3.org/2000/svg">
<g id="Group 372920">
<path id="Vector" d="M16.4622 0H0V16.4619H16.4622V0ZM15.3679 15.3677H1.09864V1.09862H15.3679V15.3677Z" fill="var(--fill-0, white)"/>
<path id="Vector_2" d="M230.471 0V16.4619H246.933V0H230.471ZM245.839 15.3677H231.57V1.09862H245.839V15.3677Z" fill="var(--fill-0, white)"/>
<path id="Vector_3" d="M32.9224 32.9219V49.3838H49.3846V32.9219H32.9224ZM48.2903 48.2895H34.021V34.0205H48.2903V48.2895Z" fill="var(--fill-0, white)"/>
<path id="Vector_4" d="M214.009 32.9219H197.546V49.3838H214.009V32.9219ZM212.91 48.2895H198.641V34.0205H212.91V48.2895Z" fill="var(--fill-0, white)"/>
<path id="Vector_5" d="M49.3889 49.3874V65.8494H65.8511V49.3874H49.3889ZM64.7525 64.7507H50.4832V50.4817H64.7525V64.7507Z" fill="var(--fill-0, white)"/>
<path id="Vector_6" d="M164.623 49.3874H148.161V65.8494H164.623V49.3874ZM163.529 64.7507H149.259V50.4817H163.529V64.7507Z" fill="var(--fill-0, white)"/>
<path id="Vector_7" d="M164.623 82.3093H148.161V98.7712H164.623V82.3093ZM163.529 97.677H149.259V83.4079H163.529V97.677Z" fill="var(--fill-0, white)"/>
<path id="Vector_8" d="M148.161 98.7702H131.699V115.232H148.161V98.7702Z" fill="var(--fill-0, white)"/>
<path id="Vector_9" d="M131.699 115.236H115.237V131.698H131.699V115.236Z" fill="var(--fill-0, white)"/>
<path id="Vector_10" d="M246.933 115.236H181.083V98.7746H197.545V82.3137H181.083V65.8527H197.545V49.3917H181.083V65.8527H164.622V82.3137H181.083V98.7746H164.622V115.236H148.161V131.697H164.622V148.158H181.083V164.619H197.545V148.158H181.083V131.697H246.933V115.236ZM182.182 83.4079H196.45V97.6761H182.182V83.4079ZM182.182 50.4815H196.45V64.7497H182.182V50.4815ZM182.182 149.256H196.45V163.524H182.182V149.256Z" fill="var(--fill-0, white)"/>
<path id="Vector_11" d="M131.699 148.158V131.697H115.238H98.7764V148.158H82.3151V131.697H98.7764V115.236H82.3151V98.7746H98.7764V115.236H115.238V98.7746H98.7764V82.3137H115.238V98.7746H131.699V82.3137H148.16V65.8527H131.699V0H115.238V65.8483H98.7764V49.3873H82.3151V65.8483H65.8538V82.3093H82.3151V98.7703H65.8538V82.3093H49.3926V98.7703H65.8538V115.231H0V131.692H65.8495V148.153H49.3882V164.614H65.8495V148.153H82.3108V164.614H98.772V148.153H115.233H131.695L131.699 148.158ZM116.332 132.795H130.6V147.063H116.332V132.795ZM64.7509 97.6761H50.4824V83.4079H64.7509V97.6761ZM97.6778 97.6761H83.4093V83.4079H97.6778V97.6761ZM83.4093 50.4815H97.6778V64.7497H83.4093V50.4815ZM82.3108 65.8483H98.772V82.3093H82.3108V65.8483ZM64.7509 163.524H50.4824V149.256H64.7509V163.524ZM97.6778 163.524H83.4093V149.256H97.6778V163.524Z" fill="var(--fill-0, white)"/>
<path id="Vector_12" d="M148.161 131.697H131.699V148.158H148.161V131.697Z" fill="var(--fill-0, white)"/>
<path id="Vector_13" d="M115.238 164.619H98.7768V181.08H82.3155V164.619H65.8543V181.08H82.3155V197.541H98.7768V181.08H115.238V246.928H131.699V181.08H148.161V164.619H131.699V148.158H115.238V164.619ZM97.6782 196.446H83.4098V182.178H97.6782V196.446Z" fill="var(--fill-0, white)"/>
<path id="Vector_14" d="M148.161 164.62H164.623V148.158H148.161V164.62ZM149.259 149.256H163.529V163.525H149.259V149.256Z" fill="var(--fill-0, white)"/>
<path id="Vector_15" d="M49.3889 197.546H65.8511V181.084H49.3889V197.546ZM50.4832 182.178H64.7525V196.447H50.4832V182.178Z" fill="var(--fill-0, white)"/>
<path id="Vector_16" d="M148.161 197.546H164.623V181.084H148.161V197.546ZM149.259 182.178H163.529V196.447H149.259V182.178Z" fill="var(--fill-0, white)"/>
<path id="Vector_17" d="M181.087 181.084V164.623H164.625V181.084H181.087V197.546H197.548V181.084H181.087ZM196.45 196.447H182.181V182.178H196.45V196.447Z" fill="var(--fill-0, white)"/>
<path id="Vector_18" d="M32.9224 214.007H49.3846V197.545H32.9224V214.007ZM34.021 198.639H48.2903V212.908H34.021V198.639Z" fill="var(--fill-0, white)"/>
<path id="Vector_19" d="M197.546 214.007H214.009V197.545H197.546V214.007ZM198.641 198.639H212.91V212.908H198.641V198.639Z" fill="var(--fill-0, white)"/>
<path id="Vector_20" d="M0 246.933H16.4622V230.471H0V246.933ZM1.09864 231.566H15.3679V245.835H1.09864V231.566Z" fill="var(--fill-0, white)"/>
<path id="Vector_21" d="M230.471 246.933H246.933V230.471H230.471V246.933ZM231.57 231.566H245.839V245.835H231.57V231.566Z" fill="var(--fill-0, white)"/>
</g>
</svg>
