<svg preserveAspectRatio="none" width="100%" height="100%" overflow="visible" style="display: block;" viewBox="0 0 198 198" fill="none" xmlns="http://www.w3.org/2000/svg">
<g id="Layer_2" clip-path="url(#clip0_0_34)">
<path id="Vector" d="M13.3505 0.174468H0.174471V13.3503H13.3505V0.174468ZM12.4747 12.4744H1.0538V1.05379H12.4747V12.4744Z" fill="var(--fill-0, white)"/>
<path id="Vector_2" d="M184.649 0.174468V13.3503H197.826V0.174468H184.649ZM196.95 12.4744H185.529V1.05379H196.95V12.4744Z" fill="var(--fill-0, white)"/>
<path id="Vector_3" d="M26.5265 26.5261V39.7019H39.7026V26.5261H26.5265ZM38.8267 38.8261H27.4059V27.4054H38.8267V38.8261Z" fill="var(--fill-0, white)"/>
<path id="Vector_4" d="M171.473 26.5261H158.297V39.7019H171.473V26.5261ZM170.594 38.8261H159.173V27.4054H170.594V38.8261Z" fill="var(--fill-0, white)"/>
<path id="Vector_5" d="M39.7061 39.7054V52.8812H52.8821V39.7054H39.7061ZM52.0028 52.0019H40.5819V40.5812H52.0028V52.0019Z" fill="var(--fill-0, white)"/>
<path id="Vector_6" d="M131.942 39.7054H118.766V52.8812H131.942V39.7054ZM131.066 52.0019H119.645V40.5812H131.066V52.0019Z" fill="var(--fill-0, white)"/>
<path id="Vector_7" d="M131.942 66.057H118.766V79.2328H131.942V66.057ZM131.066 78.357H119.645V66.9363H131.066V78.357Z" fill="var(--fill-0, white)"/>
<path id="Vector_8" d="M118.766 79.2328H105.59V92.4086H118.766V79.2328Z" fill="var(--fill-0, white)"/>
<path id="Vector_9" d="M105.59 92.4121H92.4137V105.588H105.59V92.4121Z" fill="var(--fill-0, white)"/>
<path id="Vector_10" d="M197.826 92.4121H145.118V79.2363H158.294V66.0605H145.118V52.8847H158.294V39.7089H145.118V52.8847H131.942V66.0605H145.118V79.2363H131.942V92.4121H118.766V105.588H131.942V118.764H145.118V131.94H158.294V118.764H145.118V105.588H197.826V92.4121ZM145.997 66.9363H157.418V78.357H145.997V66.9363ZM145.997 40.5812H157.418V52.0019H145.997V40.5812ZM145.997 119.643H157.418V131.064H145.997V119.643Z" fill="var(--fill-0, white)"/>
<path id="Vector_11" d="M105.59 118.764V105.588H92.4137H79.2377V118.764H66.0617V105.588H79.2377V92.4121H66.0617V79.2363H79.2377V92.4121H92.4137V79.2363H79.2377V66.0605H92.4137V79.2363H105.59V66.0605H118.766V52.8847H105.59V0.174468H92.4137V52.8812H79.2377V39.7054H66.0617V52.8812H52.8856V66.057H66.0617V79.2328H52.8856V66.057H39.7096V79.2328H52.8856V92.4086H0.174471V105.584H52.8821V118.76H39.7061V131.936H52.8821V118.76H66.0582V131.936H79.2342V118.76H92.4102H105.586L105.59 118.764ZM93.2896 106.467H104.71V117.888H93.2896V106.467ZM52.0028 78.357H40.5819V66.9363H52.0028V78.357ZM78.3584 78.357H66.9375V66.9363H78.3584V78.357ZM66.9375 40.5812H78.3584V52.0019H66.9375V40.5812ZM66.0582 52.8812H79.2342V66.057H66.0582V52.8812ZM52.0028 131.064H40.5819V119.643H52.0028V131.064ZM78.3584 131.064H66.9375V119.643H78.3584V131.064Z" fill="var(--fill-0, white)"/>
<path id="Vector_12" d="M118.766 105.588H105.59V118.764H118.766V105.588Z" fill="var(--fill-0, white)"/>
<path id="Vector_13" d="M92.4137 131.94H79.2377V145.115H66.0617V131.94H52.8856V145.115H66.0617V158.291H79.2377V145.115H92.4137V197.822H105.59V145.115H118.766V131.94H105.59V118.764H92.4137V131.94ZM78.3584 157.415H66.9375V145.995H78.3584V157.415Z" fill="var(--fill-0, white)"/>
<path id="Vector_14" d="M118.766 131.94H131.942V118.764H118.766V131.94ZM119.645 119.643H131.066V131.064H119.645V119.643Z" fill="var(--fill-0, white)"/>
<path id="Vector_15" d="M39.7061 158.295H52.8821V145.119H39.7061V158.295ZM40.5819 145.995H52.0028V157.415H40.5819V145.995Z" fill="var(--fill-0, white)"/>
<path id="Vector_16" d="M118.766 158.295H131.942V145.119H118.766V158.295ZM119.645 145.995H131.066V157.415H119.645V145.995Z" fill="var(--fill-0, white)"/>
<path id="Vector_17" d="M145.121 145.119V131.943H131.945V145.119H145.121V158.295H158.297V145.119H145.121ZM157.418 157.415H145.997V145.995H157.418V157.415Z" fill="var(--fill-0, white)"/>
<path id="Vector_18" d="M26.5265 171.47H39.7026V158.295H26.5265V171.47ZM27.4059 159.17H38.8267V170.591H27.4059V159.17Z" fill="var(--fill-0, white)"/>
<path id="Vector_19" d="M158.297 171.47H171.473V158.295H158.297V171.47ZM159.173 159.17H170.594V170.591H159.173V159.17Z" fill="var(--fill-0, white)"/>
<path id="Vector_20" d="M0.174471 197.826H13.3505V184.65H0.174471V197.826ZM1.0538 185.526H12.4747V196.946H1.0538V185.526Z" fill="var(--fill-0, white)"/>
<g id="Group">
<path id="Vector_21" d="M12.1292 0H1.39577C0.624606 0 0 0.624595 0 1.39574V12.129C0 12.9001 0.624606 13.5247 1.39577 13.5247H12.1292C12.9004 13.5247 13.525 12.9001 13.525 12.129V1.39574C13.525 0.624595 12.9004 0 12.1292 0ZM10.9044 12.3H2.62404C1.85288 12.3 1.22827 11.6754 1.22827 10.9042V2.624C1.22827 1.85285 1.85288 1.22825 2.62404 1.22825H10.9044C11.6756 1.22825 12.3002 1.85285 12.3002 2.624V10.9042C12.3002 11.6754 11.6756 12.3 10.9044 12.3Z" fill="var(--fill-0, white)"/>
<path id="Vector_22" d="M184.475 1.39574V12.129C184.475 12.9001 185.1 13.5247 185.871 13.5247H196.604C197.375 13.5247 198 12.9001 198 12.129V1.39574C198 0.624595 197.375 0 196.604 0H185.871C185.1 0 184.475 0.624595 184.475 1.39574ZM195.379 12.3H187.099C186.328 12.3 185.703 11.6754 185.703 10.9042V2.624C185.703 1.85285 186.328 1.22825 187.099 1.22825H195.379C196.151 1.22825 196.775 1.85285 196.775 2.624V10.9042C196.775 11.6754 196.151 12.3 195.379 12.3Z" fill="var(--fill-0, white)"/>
<path id="Vector_23" d="M146.688 79.4073H157.073C157.844 79.4073 158.468 78.7827 158.468 78.0115V67.2783C158.468 66.5071 157.844 65.8825 157.073 65.8825H146.688C145.917 65.8825 145.292 65.2579 145.292 64.4868V54.4514C145.292 53.6803 145.917 53.0557 146.688 53.0557H157.073C157.844 53.0557 158.468 52.4311 158.468 51.6599V41.2756C158.468 40.5044 159.093 39.8799 159.864 39.8799H170.249C171.02 39.8799 171.644 39.2553 171.644 38.4841V27.7508C171.644 26.9797 171.02 26.3551 170.249 26.3551H159.515C158.744 26.3551 158.119 26.9797 158.119 27.7508V38.1352C158.119 38.9063 157.495 39.5309 156.724 39.5309H146.339C145.568 39.5309 144.943 40.1555 144.943 40.9267V51.311C144.943 52.0821 144.319 52.7067 143.548 52.7067H133.512C132.741 52.7067 132.116 52.0821 132.116 51.311V40.9267C132.116 40.1555 131.492 39.5309 130.721 39.5309H119.987C119.216 39.5309 118.591 40.1555 118.591 40.9267V51.311C118.591 52.0821 117.967 52.7067 117.196 52.7067H107.16C106.389 52.7067 105.764 52.0821 105.764 51.311V1.39574C105.764 0.624595 105.14 0 104.368 0H93.635C92.8639 0 92.2393 0.624595 92.2393 1.39574V51.311C92.2393 52.0821 91.6146 52.7067 90.8435 52.7067H80.8079C80.0368 52.7067 79.4122 52.0821 79.4122 51.311V40.9267C79.4122 40.1555 78.7876 39.5309 78.0164 39.5309H67.2829C66.5118 39.5309 65.8872 40.1555 65.8872 40.9267V51.311C65.8872 52.0821 65.2626 52.7067 64.4914 52.7067H54.4558C53.6847 52.7067 53.0601 52.0821 53.0601 51.311V40.9267C53.0601 40.1555 52.4355 39.5309 51.6643 39.5309H41.2798C40.5086 39.5309 39.884 38.9063 39.884 38.1352V27.7508C39.884 26.9797 39.2594 26.3551 38.4883 26.3551H27.7548C26.9837 26.3551 26.3591 26.9797 26.3591 27.7508V38.4841C26.3591 39.2553 26.9837 39.8799 27.7548 39.8799H38.1393C38.9105 39.8799 39.5351 40.5044 39.5351 41.2756V51.6599C39.5351 52.4311 40.1597 53.0557 40.9309 53.0557H51.3154C52.0865 53.0557 52.7111 53.6803 52.7111 54.4514V64.4868C52.7111 65.2579 52.0865 65.8825 51.3154 65.8825H40.9309C40.1597 65.8825 39.5351 66.5071 39.5351 67.2783V78.0115C39.5351 78.7827 40.1597 79.4073 40.9309 79.4073H51.3154C52.0865 79.4073 52.7111 80.0319 52.7111 80.803V90.8384C52.7111 91.6095 52.0865 92.2341 51.3154 92.2341H1.39577C0.624606 92.2341 0 92.8587 0 93.6299V104.363C0 105.134 0.624606 105.759 1.39577 105.759H51.3119C52.083 105.759 52.7076 106.383 52.7076 107.155V117.19C52.7076 117.961 52.083 118.586 51.3119 118.586H40.9274C40.1562 118.586 39.5316 119.21 39.5316 119.982V130.715C39.5316 131.486 40.1562 132.111 40.9274 132.111H51.3119C52.083 132.111 52.7076 132.735 52.7076 133.506V143.542C52.7076 144.313 52.083 144.937 51.3119 144.937H40.9274C40.1562 144.937 39.5316 145.562 39.5316 146.333V156.717C39.5316 157.489 38.907 158.113 38.1358 158.113H27.7513C26.9802 158.113 26.3556 158.738 26.3556 159.509V170.242C26.3556 171.013 26.9802 171.638 27.7513 171.638H38.4848C39.2559 171.638 39.8805 171.013 39.8805 170.242V159.858C39.8805 159.087 40.5052 158.462 41.2763 158.462H51.6608C52.432 158.462 53.0566 157.838 53.0566 157.066V146.682C53.0566 145.911 53.6812 145.286 54.4524 145.286H64.4879C65.2591 145.286 65.8837 145.911 65.8837 146.682V157.066C65.8837 157.838 66.5083 158.462 67.2795 158.462H78.0129C78.7841 158.462 79.4087 157.838 79.4087 157.066V146.682C79.4087 145.911 80.0333 145.286 80.8044 145.286H90.84C91.6112 145.286 92.2358 145.911 92.2358 146.682V196.597C92.2358 197.368 92.8604 197.993 93.6315 197.993H104.365C105.136 197.993 105.761 197.368 105.761 196.597V146.682C105.761 145.911 106.385 145.286 107.157 145.286H117.192C117.963 145.286 118.588 145.911 118.588 146.682V157.066C118.588 157.838 119.212 158.462 119.984 158.462H130.717C131.488 158.462 132.113 157.838 132.113 157.066V146.682C132.113 145.911 132.737 145.286 133.509 145.286H143.544C144.315 145.286 144.94 145.911 144.94 146.682V157.066C144.94 157.838 145.565 158.462 146.336 158.462H156.72C157.491 158.462 158.116 159.087 158.116 159.858V170.242C158.116 171.013 158.741 171.638 159.512 171.638H170.245C171.016 171.638 171.641 171.013 171.641 170.242V159.509C171.641 158.738 171.016 158.113 170.245 158.113H159.861C159.09 158.113 158.465 157.489 158.465 156.717V146.333C158.465 145.562 157.84 144.937 157.069 144.937H146.685C145.913 144.937 145.289 144.313 145.289 143.542V133.506C145.289 132.735 145.913 132.111 146.685 132.111H157.069C157.84 132.111 158.465 131.486 158.465 130.715V119.982C158.465 119.21 157.84 118.586 157.069 118.586H146.685C145.913 118.586 145.289 117.961 145.289 117.19V107.155C145.289 106.383 145.913 105.759 146.685 105.759H196.601C197.372 105.759 197.997 105.134 197.997 104.363V93.6299C197.997 92.8587 197.372 92.2341 196.601 92.2341H146.685C145.913 92.2341 145.289 91.6095 145.289 90.8384V80.803C145.289 80.0319 145.913 79.4073 146.685 79.4073H146.688ZM147.567 67.1108H155.848C156.619 67.1108 157.244 67.7354 157.244 68.5065V76.7868C157.244 77.5579 156.619 78.1825 155.848 78.1825H147.567C146.796 78.1825 146.172 77.5579 146.172 76.7868V68.5065C146.172 67.7354 146.796 67.1108 147.567 67.1108ZM160.743 27.5799H169.024C169.795 27.5799 170.42 28.2045 170.42 28.9756V37.2559C170.42 38.027 169.795 38.6516 169.024 38.6516H160.743C159.972 38.6516 159.348 38.027 159.348 37.2559V28.9756C159.348 28.2045 159.972 27.5799 160.743 27.5799ZM147.567 40.7557H155.848C156.619 40.7557 157.244 41.3803 157.244 42.1514V50.4317C157.244 51.2028 156.619 51.8274 155.848 51.8274H147.567C146.796 51.8274 146.172 51.2028 146.172 50.4317V42.1514C146.172 41.3803 146.796 40.7557 147.567 40.7557ZM50.4325 78.1825H42.1522C41.381 78.1825 40.7564 77.5579 40.7564 76.7868V68.5065C40.7564 67.7354 41.381 67.1108 42.1522 67.1108H50.4325C51.2037 67.1108 51.8283 67.7354 51.8283 68.5065V76.7868C51.8283 77.5579 51.2037 78.1825 50.4325 78.1825ZM160.743 159.345H169.024C169.795 159.345 170.42 159.97 170.42 160.741V169.021C170.42 169.792 169.795 170.417 169.024 170.417H160.743C159.972 170.417 159.348 169.792 159.348 169.021V160.741C159.348 159.97 159.972 159.345 160.743 159.345ZM147.567 146.169H155.848C156.619 146.169 157.244 146.794 157.244 147.565V155.845C157.244 156.616 156.619 157.241 155.848 157.241H147.567C146.796 157.241 146.172 156.616 146.172 155.845V147.565C146.172 146.794 146.796 146.169 147.567 146.169ZM147.567 119.818H155.848C156.619 119.818 157.244 120.442 157.244 121.213V129.493C157.244 130.265 156.619 130.889 155.848 130.889H147.567C146.796 130.889 146.172 130.265 146.172 129.493V121.213C146.172 120.442 146.796 119.818 147.567 119.818ZM143.548 79.0583H133.512C132.741 79.0583 132.116 78.4337 132.116 77.6626V67.6272C132.116 66.8561 132.741 66.2315 133.512 66.2315H143.548C144.319 66.2315 144.943 66.8561 144.943 67.6272V77.6626C144.943 78.4337 144.319 79.0583 143.548 79.0583ZM120.336 132.114H130.372C131.143 132.114 131.767 132.739 131.767 133.51V143.545C131.767 144.316 131.143 144.941 130.372 144.941H120.336C119.565 144.941 118.94 144.316 118.94 143.545V133.51C118.94 132.739 119.565 132.114 120.336 132.114ZM104.536 108.037V116.318C104.536 117.089 103.911 117.713 103.14 117.713H94.8598C94.0886 117.713 93.464 117.089 93.464 116.318V108.037C93.464 107.266 94.0886 106.642 94.8598 106.642H103.14C103.911 106.642 104.536 107.266 104.536 108.037ZM107.16 92.5866H117.196C117.967 92.5866 118.591 93.2112 118.591 93.9823V104.018C118.591 104.789 117.967 105.413 117.196 105.413H107.16C106.389 105.413 105.764 104.789 105.764 104.018V93.9823C105.764 93.2112 106.389 92.5866 107.16 92.5866ZM119.82 129.493V121.213C119.82 120.442 120.444 119.818 121.215 119.818H129.496C130.267 119.818 130.892 120.442 130.892 121.213V129.493C130.892 130.265 130.267 130.889 129.496 130.889H121.215C120.444 130.889 119.82 130.265 119.82 129.493ZM118.94 117.194V107.158C118.94 106.387 119.565 105.762 120.336 105.762H130.372C131.143 105.762 131.767 106.387 131.767 107.158V117.194C131.767 117.965 131.143 118.589 130.372 118.589H120.336C119.565 118.589 118.94 117.965 118.94 117.194ZM130.372 92.2376H120.336C119.565 92.2376 118.94 91.613 118.94 90.8419V80.8065C118.94 80.0354 119.565 79.4108 120.336 79.4108H130.372C131.143 79.4108 131.767 80.0354 131.767 80.8065V90.8419C131.767 91.613 131.143 92.2376 130.372 92.2376ZM130.372 65.8825H120.336C119.565 65.8825 118.94 65.2579 118.94 64.4868V54.4514C118.94 53.6803 119.565 53.0557 120.336 53.0557H130.372C131.143 53.0557 131.767 53.6803 131.767 54.4514V64.4868C131.767 65.2579 131.143 65.8825 130.372 65.8825ZM130.892 68.5065V76.7868C130.892 77.5579 130.267 78.1825 129.496 78.1825H121.215C120.444 78.1825 119.82 77.5579 119.82 76.7868V68.5065C119.82 67.7354 120.444 67.1108 121.215 67.1108H129.496C130.267 67.1108 130.892 67.7354 130.892 68.5065ZM121.215 40.7557H129.496C130.267 40.7557 130.892 41.3803 130.892 42.1514V50.4317C130.892 51.2028 130.267 51.8274 129.496 51.8274H121.215C120.444 51.8274 119.82 51.2028 119.82 50.4317V42.1514C119.82 41.3803 120.444 40.7557 121.215 40.7557ZM118.591 67.6272V77.6626C118.591 78.4337 117.967 79.0583 117.196 79.0583H107.16C106.389 79.0583 105.764 78.4337 105.764 77.6626V67.6272C105.764 66.8561 106.389 66.2315 107.16 66.2315H117.196C117.967 66.2315 118.591 66.8561 118.591 67.6272ZM105.415 80.803V90.8384C105.415 91.6095 104.791 92.2341 104.02 92.2341H93.984C93.2128 92.2341 92.5882 91.6095 92.5882 90.8384V80.803C92.5882 80.0319 93.2128 79.4073 93.984 79.4073H104.02C104.791 79.4073 105.415 80.0319 105.415 80.803ZM80.8044 66.2315H90.84C91.6112 66.2315 92.2358 66.8561 92.2358 67.6272V77.6626C92.2358 78.4337 91.6112 79.0583 90.84 79.0583H80.8044C80.0333 79.0583 79.4087 78.4337 79.4087 77.6626V67.6272C79.4087 66.8561 80.0333 66.2315 80.8044 66.2315ZM80.8044 92.5866H90.84C91.6112 92.5866 92.2358 93.2112 92.2358 93.9823V104.018C92.2358 104.789 91.6112 105.413 90.84 105.413H80.8044C80.0333 105.413 79.4087 104.789 79.4087 104.018V93.9823C79.4087 93.2112 80.0333 92.5866 80.8044 92.5866ZM68.5077 40.7557H76.7881C77.5593 40.7557 78.1839 41.3803 78.1839 42.1514V50.4317C78.1839 51.2028 77.5593 51.8274 76.7881 51.8274H68.5077C67.7366 51.8274 67.112 51.2028 67.112 50.4317V42.1514C67.112 41.3803 67.7366 40.7557 68.5077 40.7557ZM67.6284 53.0557H77.664C78.4351 53.0557 79.0597 53.6803 79.0597 54.4514V64.4868C79.0597 65.2579 78.4351 65.8825 77.664 65.8825H67.6284C66.8572 65.8825 66.2326 65.2579 66.2326 64.4868V54.4514C66.2326 53.6803 66.8572 53.0557 67.6284 53.0557ZM78.1839 68.5065V76.7868C78.1839 77.5579 77.5593 78.1825 76.7881 78.1825H68.5077C67.7366 78.1825 67.112 77.5579 67.112 76.7868V68.5065C67.112 67.7354 67.7366 67.1108 68.5077 67.1108H76.7881C77.5593 67.1108 78.1839 67.7354 78.1839 68.5065ZM67.6284 79.4073H77.664C78.4351 79.4073 79.0597 80.0319 79.0597 80.803V90.8384C79.0597 91.6095 78.4351 92.2341 77.664 92.2341H67.6284C66.8572 92.2341 66.2326 91.6095 66.2326 90.8384V80.803C66.2326 80.0319 66.8572 79.4073 67.6284 79.4073ZM67.6284 105.762H77.664C78.4351 105.762 79.0597 106.387 79.0597 107.158V117.194C79.0597 117.965 78.4351 118.589 77.664 118.589H67.6284C66.8572 118.589 66.2326 117.965 66.2326 117.194V107.158C66.2326 106.387 66.8572 105.762 67.6284 105.762ZM78.1839 121.213V129.493C78.1839 130.265 77.5593 130.889 76.7881 130.889H68.5077C67.7366 130.889 67.112 130.265 67.112 129.493V121.213C67.112 120.442 67.7366 119.818 68.5077 119.818H76.7881C77.5593 119.818 78.1839 120.442 78.1839 121.213ZM64.4879 79.0583H54.4524C53.6812 79.0583 53.0566 78.4337 53.0566 77.6626V67.6272C53.0566 66.8561 53.6812 66.2315 54.4524 66.2315H64.4879C65.2591 66.2315 65.8837 66.8561 65.8837 67.6272V77.6626C65.8837 78.4337 65.2591 79.0583 64.4879 79.0583ZM37.2565 38.6516H28.9761C28.205 38.6516 27.5804 38.027 27.5804 37.2559V28.9756C27.5804 28.2045 28.205 27.5799 28.9761 27.5799H37.2565C38.0277 27.5799 38.6523 28.2045 38.6523 28.9756V37.2559C38.6523 38.027 38.0277 38.6516 37.2565 38.6516ZM50.4325 51.8274H42.1522C41.381 51.8274 40.7564 51.2028 40.7564 50.4317V42.1514C40.7564 41.3803 41.381 40.7557 42.1522 40.7557H50.4325C51.2037 40.7557 51.8283 41.3803 51.8283 42.1514V50.4317C51.8283 51.2028 51.2037 51.8274 50.4325 51.8274ZM50.4325 130.889H42.1522C41.381 130.889 40.7564 130.265 40.7564 129.493V121.213C40.7564 120.442 41.381 119.818 42.1522 119.818H50.4325C51.2037 119.818 51.8283 120.442 51.8283 121.213V129.493C51.8283 130.265 51.2037 130.889 50.4325 130.889ZM37.2565 170.417H28.9761C28.205 170.417 27.5804 169.792 27.5804 169.021V160.741C27.5804 159.97 28.205 159.345 28.9761 159.345H37.2565C38.0277 159.345 38.6523 159.97 38.6523 160.741V169.021C38.6523 169.792 38.0277 170.417 37.2565 170.417ZM50.4325 157.241H42.1522C41.381 157.241 40.7564 156.616 40.7564 155.845V147.565C40.7564 146.794 41.381 146.169 42.1522 146.169H50.4325C51.2037 146.169 51.8283 146.794 51.8283 147.565V155.845C51.8283 156.616 51.2037 157.241 50.4325 157.241ZM53.0566 130.369V120.334C53.0566 119.563 53.6812 118.938 54.4524 118.938H64.4879C65.2591 118.938 65.8837 119.563 65.8837 120.334V130.369C65.8837 131.14 65.2591 131.765 64.4879 131.765H54.4524C53.6812 131.765 53.0566 131.14 53.0566 130.369ZM76.7881 157.241H68.5077C67.7366 157.241 67.112 156.616 67.112 155.845V147.565C67.112 146.794 67.7366 146.169 68.5077 146.169H76.7881C77.5593 146.169 78.1839 146.794 78.1839 147.565V155.845C78.1839 156.616 77.5593 157.241 76.7881 157.241ZM66.2326 143.549V133.513C66.2326 132.742 66.8572 132.117 67.6284 132.117H77.664C78.4351 132.117 79.0597 132.742 79.0597 133.513V143.549C79.0597 144.32 78.4351 144.944 77.664 144.944H67.6284C66.8572 144.944 66.2326 144.32 66.2326 143.549ZM79.4087 130.369V120.334C79.4087 119.563 80.0333 118.938 80.8044 118.938H90.84C91.6112 118.938 92.2358 119.563 92.2358 120.334V130.369C92.2358 131.14 91.6112 131.765 90.84 131.765H80.8044C80.0333 131.765 79.4087 131.14 79.4087 130.369ZM107.16 118.938H117.196C117.967 118.938 118.591 119.563 118.591 120.334V130.369C118.591 131.14 117.967 131.765 117.196 131.765H107.16C106.389 131.765 105.764 131.14 105.764 130.369V120.334C105.764 119.563 106.389 118.938 107.16 118.938ZM129.496 157.241H121.215C120.444 157.241 119.82 156.616 119.82 155.845V147.565C119.82 146.794 120.444 146.169 121.215 146.169H129.496C130.267 146.169 130.892 146.794 130.892 147.565V155.845C130.892 156.616 130.267 157.241 129.496 157.241ZM132.116 130.369V120.334C132.116 119.563 132.741 118.938 133.512 118.938H143.548C144.319 118.938 144.943 119.563 144.943 120.334V130.369C144.943 131.14 144.319 131.765 143.548 131.765H133.512C132.741 131.765 132.116 131.14 132.116 130.369Z" fill="var(--fill-0, white)"/>
<path id="Vector_24" d="M1.39577 198H12.1292C12.9004 198 13.525 197.375 13.525 196.604V185.871C13.525 185.1 12.9004 184.475 12.1292 184.475H1.39577C0.624606 184.475 0 185.1 0 185.871V196.604C0 197.375 0.624606 198 1.39577 198ZM2.62404 185.7H10.9044C11.6756 185.7 12.3002 186.325 12.3002 187.096V195.376C12.3002 196.147 11.6756 196.772 10.9044 196.772H2.62404C1.85288 196.772 1.22827 196.147 1.22827 195.376V187.096C1.22827 186.325 1.85288 185.7 2.62404 185.7Z" fill="var(--fill-0, white)"/>
<path id="Vector_25" d="M185.871 198H196.604C197.375 198 198 197.375 198 196.604V185.871C198 185.1 197.375 184.475 196.604 184.475H185.871C185.1 184.475 184.475 185.1 184.475 185.871V196.604C184.475 197.375 185.1 198 185.871 198ZM187.099 185.7H195.379C196.151 185.7 196.775 186.325 196.775 187.096V195.376C196.775 196.147 196.151 196.772 195.379 196.772H187.099C186.328 196.772 185.703 196.147 185.703 195.376V187.096C185.703 186.325 186.328 185.7 187.099 185.7Z" fill="var(--fill-0, white)"/>
</g>
<path id="Vector_26" d="M184.649 197.826H197.826V184.65H184.649V197.826ZM185.529 185.526H196.95V196.946H185.529V185.526Z" fill="var(--fill-0, white)"/>
</g>
<defs>
<clipPath id="clip0_0_34">
<rect width="198" height="198" fill="white"/>
</clipPath>
</defs>
</svg>
